M48
; DRILL file {KiCad (6.0.1)} date Fri Oct 14 11:51:36 2022
; FORMAT={-:-/ absolute / metric / decimal}
; #@! TF.CreationDate,2022-10-14T11:51:36+08:00
; #@! TF.GenerationSoftware,Kicad,Pcbnew,(6.0.1)
; #@! TF.FileFunction,Plated,1,2,PTH
FMAT,2
METRIC
; #@! TA.AperFunction,Plated,PTH,ViaDrill
T1C0.400
; #@! TA.AperFunction,Plated,PTH,ComponentDrill
T2C0.650
; #@! TA.AperFunction,Plated,PTH,ComponentDrill
T3C0.800
; #@! TA.AperFunction,Plated,PTH,ComponentDrill
T4C1.000
%
G90
G05
T1
X88.698Y-75.614
X172.102Y-77.886
T2
X103.176Y-33.45
X104.446Y-33.45
X105.716Y-33.45
X106.986Y-33.45
X108.256Y-33.45
X114.108Y-33.45
X115.378Y-33.45
X116.648Y-33.45
X117.918Y-33.45
X119.188Y-33.45
X141.612Y-120.05
X142.882Y-120.05
X144.152Y-120.05
X145.422Y-120.05
X146.692Y-120.05
X152.544Y-120.05
X153.814Y-120.05
X155.084Y-120.05
X156.354Y-120.05
X157.624Y-120.05
T3
X86.92Y-57.518
X87.2Y-80.9
X87.871Y-113.053
X89.74Y-80.9
X92.28Y-80.9
X94.82Y-80.9
X97.36Y-80.9
X99.9Y-80.9
X102.44Y-80.9
X104.98Y-80.9
X107.52Y-80.9
X110.06Y-80.9
X150.74Y-72.6
X153.28Y-72.6
X155.82Y-72.6
X158.36Y-72.6
X160.9Y-72.6
X163.44Y-72.6
X165.98Y-72.6
X168.52Y-72.6
X171.06Y-72.6
X172.929Y-40.447
X173.6Y-72.6
X173.88Y-95.982
T4
X87.682Y-67.74
X87.682Y-70.28
X124.35Y-88.046
X124.35Y-90.586
X136.45Y-62.914
X136.45Y-65.454
X173.118Y-83.22
X173.118Y-85.76
T0
M30
