%TF.GenerationSoftware,KiCad,Pcbnew,(6.0.1)*%
%TF.CreationDate,2022-10-14T11:51:34+08:00*%
%TF.ProjectId,CRVisionJoystickMerge,43525669-7369-46f6-9e4a-6f7973746963,rev?*%
%TF.SameCoordinates,Original*%
%TF.FileFunction,Profile,NP*%
%FSLAX46Y46*%
G04 Gerber Fmt 4.6, Leading zero omitted, Abs format (unit mm)*
G04 Created by KiCad (PCBNEW (6.0.1)) date 2022-10-14 11:51:34*
%MOMM*%
%LPD*%
G01*
G04 APERTURE LIST*
%TA.AperFunction,Profile*%
%ADD10C,0.013352*%
%TD*%
%TA.AperFunction,Profile*%
%ADD11C,0.100000*%
%TD*%
G04 APERTURE END LIST*
D10*
X130768833Y-75666451D02*
X131487056Y-76384671D01*
X131487056Y-76384671D02*
X132097389Y-75784623D01*
X132097389Y-75784623D02*
X141114330Y-75784623D01*
X141114330Y-75784623D02*
X141114330Y-69476861D01*
X141114330Y-69476861D02*
X157598018Y-69476861D01*
X157598018Y-69476861D02*
X157598018Y-68539395D01*
X157598018Y-68539395D02*
X157058291Y-68502887D01*
X157058291Y-68502887D02*
X156519584Y-68450843D01*
X156519584Y-68450843D02*
X155982255Y-68383261D01*
X155982255Y-68383261D02*
X155446659Y-68300140D01*
X155446659Y-68300140D02*
X154913154Y-68201478D01*
X154913154Y-68201478D02*
X154382096Y-68087273D01*
X154382096Y-68087273D02*
X153853842Y-67957525D01*
X153853842Y-67957525D02*
X153328749Y-67812230D01*
X153328749Y-67812230D02*
X152807174Y-67651389D01*
X152807174Y-67651389D02*
X152289472Y-67474999D01*
X152289472Y-67474999D02*
X151776002Y-67283059D01*
X151776002Y-67283059D02*
X151267120Y-67075567D01*
X151267120Y-67075567D02*
X150763182Y-66852522D01*
X150763182Y-66852522D02*
X150264545Y-66613922D01*
X150264545Y-66613922D02*
X149771566Y-66359765D01*
X149771566Y-66359765D02*
X149284603Y-66090051D01*
X149284603Y-66090051D02*
X148777999Y-65784992D01*
X148777999Y-65784992D02*
X148283451Y-65465528D01*
X148283451Y-65465528D02*
X147801159Y-65132016D01*
X147801159Y-65132016D02*
X147331322Y-64784815D01*
X147331322Y-64784815D02*
X146874139Y-64424283D01*
X146874139Y-64424283D02*
X146429808Y-64050780D01*
X146429808Y-64050780D02*
X145998529Y-63664663D01*
X145998529Y-63664663D02*
X145580500Y-63266291D01*
X145580500Y-63266291D02*
X145175922Y-62856022D01*
X145175922Y-62856022D02*
X144784992Y-62434216D01*
X144784992Y-62434216D02*
X144044875Y-61557424D01*
X144044875Y-61557424D02*
X143361742Y-60638783D01*
X143361742Y-60638783D02*
X142737185Y-59681162D01*
X142737185Y-59681162D02*
X142172796Y-58687428D01*
X142172796Y-58687428D02*
X141670168Y-57660451D01*
X141670168Y-57660451D02*
X141230892Y-56603098D01*
X141230892Y-56603098D02*
X140856562Y-55518237D01*
X140856562Y-55518237D02*
X140548769Y-54408738D01*
X140548769Y-54408738D02*
X140420322Y-53845645D01*
X140420322Y-53845645D02*
X140309106Y-53277468D01*
X140309106Y-53277468D02*
X140215321Y-52704565D01*
X140215321Y-52704565D02*
X140139165Y-52127295D01*
X140139165Y-52127295D02*
X140080838Y-51546017D01*
X140080838Y-51546017D02*
X140040538Y-50961089D01*
X140040538Y-50961089D02*
X138701305Y-50961089D01*
X138701305Y-50961089D02*
X138701305Y-67868043D01*
X138701305Y-67868043D02*
X130768699Y-75666322D01*
X130768699Y-75666322D02*
X130768716Y-75666338D01*
X130768716Y-75666338D02*
X130768733Y-75666354D01*
X130768733Y-75666354D02*
X130768767Y-75666386D01*
X130768767Y-75666386D02*
X130768800Y-75666419D01*
X130768800Y-75666419D02*
X130768833Y-75666451D01*
X130768833Y-75666451D02*
X130768833Y-75666451D01*
D11*
X116300000Y-56500000D02*
G75*
G03*
X116300000Y-56500000I-5200000J0D01*
G01*
X107389052Y-103506860D02*
G75*
G03*
X107389052Y-103506860I-5200000J0D01*
G01*
X171000000Y-114100000D02*
G75*
G03*
X171000000Y-114100000I-1500000J0D01*
G01*
D10*
X130060760Y-77786797D02*
X129342540Y-77068578D01*
X129342540Y-77068578D02*
X128710842Y-77689591D01*
X128710842Y-77689591D02*
X119693763Y-77689591D01*
X119693763Y-77689591D02*
X119693763Y-83997224D01*
X119693763Y-83997224D02*
X103210210Y-83997224D01*
X103210210Y-83997224D02*
X103210210Y-84934689D01*
X103210210Y-84934689D02*
X103749937Y-84971219D01*
X103749937Y-84971219D02*
X104288642Y-85023280D01*
X104288642Y-85023280D02*
X104825971Y-85090873D01*
X104825971Y-85090873D02*
X105361565Y-85174001D01*
X105361565Y-85174001D02*
X105895068Y-85272666D01*
X105895068Y-85272666D02*
X106426123Y-85386870D01*
X106426123Y-85386870D02*
X106954372Y-85516615D01*
X106954372Y-85516615D02*
X107479460Y-85661904D01*
X107479460Y-85661904D02*
X108001028Y-85822738D01*
X108001028Y-85822738D02*
X108518720Y-85999120D01*
X108518720Y-85999120D02*
X109032179Y-86191052D01*
X109032179Y-86191052D02*
X109541049Y-86398536D01*
X109541049Y-86398536D02*
X110044971Y-86621574D01*
X110044971Y-86621574D02*
X110543589Y-86860168D01*
X110543589Y-86860168D02*
X111036547Y-87114321D01*
X111036547Y-87114321D02*
X111523487Y-87384034D01*
X111523487Y-87384034D02*
X112030200Y-87689092D01*
X112030200Y-87689092D02*
X112525066Y-88008557D01*
X112525066Y-88008557D02*
X113007874Y-88342068D01*
X113007874Y-88342068D02*
X113478410Y-88689270D01*
X113478410Y-88689270D02*
X113936462Y-89049801D01*
X113936462Y-89049801D02*
X114381819Y-89423305D01*
X114381819Y-89423305D02*
X114814268Y-89809422D01*
X114814268Y-89809422D02*
X115233596Y-90207794D01*
X115233596Y-90207794D02*
X116032042Y-91039868D01*
X116032042Y-91039868D02*
X116775460Y-91916660D01*
X116775460Y-91916660D02*
X117462151Y-92835301D01*
X117462151Y-92835301D02*
X118090417Y-93792922D01*
X118090417Y-93792922D02*
X118658561Y-94786656D01*
X118658561Y-94786656D02*
X119164883Y-95813633D01*
X119164883Y-95813633D02*
X119607686Y-96870986D01*
X119607686Y-96870986D02*
X119985271Y-97955847D01*
X119985271Y-97955847D02*
X120295941Y-99065346D01*
X120295941Y-99065346D02*
X120425653Y-99628439D01*
X120425653Y-99628439D02*
X120537998Y-100196616D01*
X120537998Y-100196616D02*
X120632766Y-100769518D01*
X120632766Y-100769518D02*
X120709743Y-101346788D01*
X120709743Y-101346788D02*
X120768718Y-101928066D01*
X120768718Y-101928066D02*
X120809478Y-102512994D01*
X120809478Y-102512994D02*
X122106788Y-102512994D01*
X122106788Y-102512994D02*
X122106788Y-85606042D01*
X122106788Y-85606042D02*
X130060756Y-77786935D01*
X130060756Y-77786935D02*
X130060757Y-77786918D01*
X130060757Y-77786918D02*
X130060758Y-77786900D01*
X130060758Y-77786900D02*
X130060759Y-77786883D01*
X130060759Y-77786883D02*
X130060759Y-77786866D01*
X130060759Y-77786866D02*
X130060760Y-77786832D01*
X130060760Y-77786832D02*
X130060760Y-77786797D01*
X130060760Y-77786797D02*
X130060760Y-77786797D01*
D11*
X92800000Y-39400000D02*
G75*
G03*
X92800000Y-39400000I-1500000J0D01*
G01*
X175108097Y-81245580D02*
X175108097Y-121673951D01*
X175108097Y-121673951D02*
X122106658Y-121673951D01*
X122106658Y-121673951D02*
X122106658Y-104512902D01*
X122106658Y-104512902D02*
X120809349Y-104512902D01*
X120809349Y-104512902D02*
X120709612Y-105679131D01*
X120709612Y-105679131D02*
X120537863Y-106829320D01*
X120537863Y-106829320D02*
X120295800Y-107960601D01*
X120295800Y-107960601D02*
X119985122Y-109070108D01*
X119985122Y-109070108D02*
X119607528Y-110154971D01*
X119607528Y-110154971D02*
X119164717Y-111212324D01*
X119164717Y-111212324D02*
X118658386Y-112239299D01*
X118658386Y-112239299D02*
X118090236Y-113233027D01*
X118090236Y-113233027D02*
X117461964Y-114190642D01*
X117461964Y-114190642D02*
X116775270Y-115109275D01*
X116775270Y-115109275D02*
X116031852Y-115986059D01*
X116031852Y-115986059D02*
X115233408Y-116818126D01*
X115233408Y-116818126D02*
X114381638Y-117602608D01*
X114381638Y-117602608D02*
X113478241Y-118336638D01*
X113478241Y-118336638D02*
X112524914Y-119017348D01*
X112524914Y-119017348D02*
X111523357Y-119641869D01*
X111523357Y-119641869D02*
X110428657Y-120222302D01*
X110428657Y-120222302D02*
X109306173Y-120725344D01*
X109306173Y-120725344D02*
X108159872Y-121150994D01*
X108159872Y-121150994D02*
X106993723Y-121499254D01*
X106993723Y-121499254D02*
X105811697Y-121770123D01*
X105811697Y-121770123D02*
X104617762Y-121963600D01*
X104617762Y-121963600D02*
X103415887Y-122079687D01*
X103415887Y-122079687D02*
X102210041Y-122118382D01*
X102210041Y-122118382D02*
X101004194Y-122079687D01*
X101004194Y-122079687D02*
X99802314Y-121963600D01*
X99802314Y-121963600D02*
X98608371Y-121770123D01*
X98608371Y-121770123D02*
X97426334Y-121499254D01*
X97426334Y-121499254D02*
X96260171Y-121150994D01*
X96260171Y-121150994D02*
X95113853Y-120725344D01*
X95113853Y-120725344D02*
X93991348Y-120222302D01*
X93991348Y-120222302D02*
X92896625Y-119641869D01*
X92896625Y-119641869D02*
X92363494Y-119320220D01*
X92363494Y-119320220D02*
X91843742Y-118982618D01*
X91843742Y-118982618D02*
X91337600Y-118629483D01*
X91337600Y-118629483D02*
X90845300Y-118261232D01*
X90845300Y-118261232D02*
X90367077Y-117878285D01*
X90367077Y-117878285D02*
X89903162Y-117481059D01*
X89903162Y-117481059D02*
X89453787Y-117069975D01*
X89453787Y-117069975D02*
X89019187Y-116645449D01*
X89019187Y-116645449D02*
X88599592Y-116207901D01*
X88599592Y-116207901D02*
X88195236Y-115757749D01*
X88195236Y-115757749D02*
X87806351Y-115295411D01*
X87806351Y-115295411D02*
X87433170Y-114821308D01*
X87433170Y-114821308D02*
X87075926Y-114335856D01*
X87075926Y-114335856D02*
X86734850Y-113839474D01*
X86734850Y-113839474D02*
X86410177Y-113332581D01*
X86410177Y-113332581D02*
X86102138Y-112815596D01*
X86102138Y-112815596D02*
X85810965Y-112288938D01*
X85810965Y-112288938D02*
X85536893Y-111753023D01*
X85536893Y-111753023D02*
X85280152Y-111208272D01*
X85280152Y-111208272D02*
X85040976Y-110655103D01*
X85040976Y-110655103D02*
X84819598Y-110093934D01*
X84819598Y-110093934D02*
X84616249Y-109525185D01*
X84616249Y-109525185D02*
X84431164Y-108949272D01*
X84431164Y-108949272D02*
X84264573Y-108366616D01*
X84264573Y-108366616D02*
X84116710Y-107777634D01*
X84116710Y-107777634D02*
X83987807Y-107182746D01*
X83987807Y-107182746D02*
X83878098Y-106582369D01*
X83878098Y-106582369D02*
X83787814Y-105976922D01*
X83787814Y-105976922D02*
X83717188Y-105366825D01*
X83717188Y-105366825D02*
X83666453Y-104752494D01*
X83666453Y-104752494D02*
X83635841Y-104134350D01*
X83635841Y-104134350D02*
X83625586Y-103512811D01*
X83625586Y-103512811D02*
X83666451Y-102273149D01*
X83666451Y-102273149D02*
X83787808Y-101048738D01*
X83787808Y-101048738D02*
X83987796Y-99842927D01*
X83987796Y-99842927D02*
X84264554Y-98659063D01*
X84264554Y-98659063D02*
X84616223Y-97500498D01*
X84616223Y-97500498D02*
X85040941Y-96370579D01*
X85040941Y-96370579D02*
X85536850Y-95272656D01*
X85536850Y-95272656D02*
X86102088Y-94210078D01*
X86102088Y-94210078D02*
X86734795Y-93186194D01*
X86734795Y-93186194D02*
X87433111Y-92204353D01*
X87433111Y-92204353D02*
X88195176Y-91267905D01*
X88195176Y-91267905D02*
X89019130Y-90380198D01*
X89019130Y-90380198D02*
X89903112Y-89544582D01*
X89903112Y-89544582D02*
X90845262Y-88764405D01*
X90845262Y-88764405D02*
X91843720Y-88043017D01*
X91843720Y-88043017D02*
X92896625Y-87383767D01*
X92896625Y-87383767D02*
X93383589Y-87114074D01*
X93383589Y-87114074D02*
X93876567Y-86859933D01*
X93876567Y-86859933D02*
X94375204Y-86621344D01*
X94375204Y-86621344D02*
X94879141Y-86398305D01*
X94879141Y-86398305D02*
X95388024Y-86190816D01*
X95388024Y-86190816D02*
X95901494Y-85998875D01*
X95901494Y-85998875D02*
X96419195Y-85822482D01*
X96419195Y-85822482D02*
X96940770Y-85661635D01*
X96940770Y-85661635D02*
X97465863Y-85516334D01*
X97465863Y-85516334D02*
X97994116Y-85386578D01*
X97994116Y-85386578D02*
X98525174Y-85272365D01*
X98525174Y-85272365D02*
X99058679Y-85173694D01*
X99058679Y-85173694D02*
X99594274Y-85090566D01*
X99594274Y-85090566D02*
X100131603Y-85022977D01*
X100131603Y-85022977D02*
X100670309Y-84970929D01*
X100670309Y-84970929D02*
X101210035Y-84934419D01*
X101210035Y-84934419D02*
X101210035Y-83996957D01*
X101210035Y-83996957D02*
X85700000Y-83996957D01*
X85700000Y-83996957D02*
X85700000Y-74641400D01*
X85700000Y-74641400D02*
X87520319Y-74641400D01*
X87520319Y-74641400D02*
X87520319Y-72228371D01*
X87520319Y-72228371D02*
X85700000Y-72228371D01*
X85700000Y-72228371D02*
X85700000Y-31800000D01*
X85700000Y-31800000D02*
X138701301Y-31800000D01*
X138701301Y-31800000D02*
X138701301Y-48961047D01*
X138701301Y-48961047D02*
X140040534Y-48961047D01*
X140040534Y-48961047D02*
X140139161Y-47794820D01*
X140139161Y-47794820D02*
X140309101Y-46644636D01*
X140309101Y-46644636D02*
X140548764Y-45513361D01*
X140548764Y-45513361D02*
X140856557Y-44403862D01*
X140856557Y-44403862D02*
X141230888Y-43319007D01*
X141230888Y-43319007D02*
X141670163Y-42261663D01*
X141670163Y-42261663D02*
X142172792Y-41234696D01*
X142172792Y-41234696D02*
X142737181Y-40240975D01*
X142737181Y-40240975D02*
X143361738Y-39283366D01*
X143361738Y-39283366D02*
X144044871Y-38364736D01*
X144044871Y-38364736D02*
X144784988Y-37487953D01*
X144784988Y-37487953D02*
X145580496Y-36655884D01*
X145580496Y-36655884D02*
X146429803Y-35871395D01*
X146429803Y-35871395D02*
X147331317Y-35137355D01*
X147331317Y-35137355D02*
X148283445Y-34456629D01*
X148283445Y-34456629D02*
X149284595Y-33832086D01*
X149284595Y-33832086D02*
X150379316Y-33251652D01*
X150379316Y-33251652D02*
X151501817Y-32748609D01*
X151501817Y-32748609D02*
X152648129Y-32322958D01*
X152648129Y-32322958D02*
X153814284Y-31974697D01*
X153814284Y-31974697D02*
X154996313Y-31703828D01*
X154996313Y-31703828D02*
X156190248Y-31510350D01*
X156190248Y-31510350D02*
X157392120Y-31394263D01*
X157392120Y-31394263D02*
X158597961Y-31355568D01*
X158597961Y-31355568D02*
X159803801Y-31394263D01*
X159803801Y-31394263D02*
X161005673Y-31510350D01*
X161005673Y-31510350D02*
X162199608Y-31703828D01*
X162199608Y-31703828D02*
X163381638Y-31974697D01*
X163381638Y-31974697D02*
X164547793Y-32322958D01*
X164547793Y-32322958D02*
X165694105Y-32748609D01*
X165694105Y-32748609D02*
X166816606Y-33251652D01*
X166816606Y-33251652D02*
X167911327Y-33832086D01*
X167911327Y-33832086D02*
X168444579Y-34153735D01*
X168444579Y-34153735D02*
X168964685Y-34491336D01*
X168964685Y-34491336D02*
X169471399Y-34844470D01*
X169471399Y-34844470D02*
X169964470Y-35212720D01*
X169964470Y-35212720D02*
X170443652Y-35595667D01*
X170443652Y-35595667D02*
X170908696Y-35992892D01*
X170908696Y-35992892D02*
X171359354Y-36403976D01*
X171359354Y-36403976D02*
X171795379Y-36828501D01*
X171795379Y-36828501D02*
X172216521Y-37266049D01*
X172216521Y-37266049D02*
X172622533Y-37716201D01*
X172622533Y-37716201D02*
X173013166Y-38178537D01*
X173013166Y-38178537D02*
X173388173Y-38652641D01*
X173388173Y-38652641D02*
X173747306Y-39138092D01*
X173747306Y-39138092D02*
X174090316Y-39634474D01*
X174090316Y-39634474D02*
X174416955Y-40141366D01*
X174416955Y-40141366D02*
X174726976Y-40658351D01*
X174726976Y-40658351D02*
X175020129Y-41185009D01*
X175020129Y-41185009D02*
X175296168Y-41720923D01*
X175296168Y-41720923D02*
X175554843Y-42265674D01*
X175554843Y-42265674D02*
X175795907Y-42818843D01*
X175795907Y-42818843D02*
X176019112Y-43380011D01*
X176019112Y-43380011D02*
X176224209Y-43948761D01*
X176224209Y-43948761D02*
X176410951Y-44524673D01*
X176410951Y-44524673D02*
X176579089Y-45107329D01*
X176579089Y-45107329D02*
X176728375Y-45696311D01*
X176728375Y-45696311D02*
X176858562Y-46291199D01*
X176858562Y-46291199D02*
X176969400Y-46891576D01*
X176969400Y-46891576D02*
X177060643Y-47497022D01*
X177060643Y-47497022D02*
X177132041Y-48107119D01*
X177132041Y-48107119D02*
X177183347Y-48721449D01*
X177183347Y-48721449D02*
X177214312Y-49339593D01*
X177214312Y-49339593D02*
X177224689Y-49961133D01*
X177224689Y-49961133D02*
X177183348Y-51200817D01*
X177183348Y-51200817D02*
X177060648Y-52425245D01*
X177060648Y-52425245D02*
X176858573Y-53631068D01*
X176858573Y-53631068D02*
X176579107Y-54814938D01*
X176579107Y-54814938D02*
X176224235Y-55973506D01*
X176224235Y-55973506D02*
X175795942Y-57103424D01*
X175795942Y-57103424D02*
X175296210Y-58201344D01*
X175296210Y-58201344D02*
X174727024Y-59263917D01*
X174727024Y-59263917D02*
X174090370Y-60287793D01*
X174090370Y-60287793D02*
X173388230Y-61269626D01*
X173388230Y-61269626D02*
X172622590Y-62206066D01*
X172622590Y-62206066D02*
X171795433Y-63093765D01*
X171795433Y-63093765D02*
X170908744Y-63929375D01*
X170908744Y-63929375D02*
X169964507Y-64709546D01*
X169964507Y-64709546D02*
X168964707Y-65430931D01*
X168964707Y-65430931D02*
X167911327Y-66090180D01*
X167911327Y-66090180D02*
X167424387Y-66359872D01*
X167424387Y-66359872D02*
X166931429Y-66614009D01*
X166931429Y-66614009D02*
X166432811Y-66852592D01*
X166432811Y-66852592D02*
X165928888Y-67075623D01*
X165928888Y-67075623D02*
X165420018Y-67283105D01*
X165420018Y-67283105D02*
X164906559Y-67475037D01*
X164906559Y-67475037D02*
X164388866Y-67651422D01*
X164388866Y-67651422D02*
X163867298Y-67812261D01*
X163867298Y-67812261D02*
X163342210Y-67957557D01*
X163342210Y-67957557D02*
X162813960Y-68087310D01*
X162813960Y-68087310D02*
X162282905Y-68201522D01*
X162282905Y-68201522D02*
X161749402Y-68300195D01*
X161749402Y-68300195D02*
X161213808Y-68383330D01*
X161213808Y-68383330D02*
X160676480Y-68450929D01*
X160676480Y-68450929D02*
X160137774Y-68502993D01*
X160137774Y-68502993D02*
X159598049Y-68539525D01*
X159598049Y-68539525D02*
X159598049Y-69476991D01*
X159598049Y-69476991D02*
X175108089Y-69476991D01*
X175108089Y-69476991D02*
X175108089Y-78832681D01*
X175108089Y-78832681D02*
X173287639Y-78832681D01*
X173287639Y-78832681D02*
X173287639Y-81245709D01*
X173287639Y-81245709D02*
X175108089Y-81245709D01*
X175108089Y-81245709D02*
X175108097Y-81245580D01*
X175108097Y-81245580D02*
X175108097Y-81245580D01*
X132300000Y-39400000D02*
G75*
G03*
X132300000Y-39400000I-1500000J0D01*
G01*
X163810948Y-49993140D02*
G75*
G03*
X163810948Y-49993140I-5200000J0D01*
G01*
X131500000Y-114100000D02*
G75*
G03*
X131500000Y-114100000I-1500000J0D01*
G01*
X154900000Y-97000000D02*
G75*
G03*
X154900000Y-97000000I-5200000J0D01*
G01*
M02*
