%FSLAX45Y45*%
G04 Gerber Fmt 4.5, Leading zero omitted, Abs format (unit mm)*
G04 Created by KiCad (PCBNEW (6.0.1)) date 2022-10-14 11:51:39*
%MOMM*%
%LPD*%
G01*
G04 APERTURE LIST*
%TA.AperFunction,Profile*%
%ADD10C,0.013352*%
%TD*%
%TA.AperFunction,Profile*%
%ADD11C,0.100000*%
%TD*%
%ADD12C,0.200000*%
%ADD13C,0.040000*%
%ADD14C,0.065000*%
%ADD15C,0.080000*%
%ADD16C,0.100000*%
G04 APERTURE END LIST*
D10*
X13076883Y-7566645D02*
X13148706Y-7638467D01*
X13148706Y-7638467D02*
X13209739Y-7578462D01*
X13209739Y-7578462D02*
X14111433Y-7578462D01*
X14111433Y-7578462D02*
X14111433Y-6947686D01*
X14111433Y-6947686D02*
X15759802Y-6947686D01*
X15759802Y-6947686D02*
X15759802Y-6853939D01*
X15759802Y-6853939D02*
X15705829Y-6850289D01*
X15705829Y-6850289D02*
X15651958Y-6845084D01*
X15651958Y-6845084D02*
X15598225Y-6838326D01*
X15598225Y-6838326D02*
X15544666Y-6830014D01*
X15544666Y-6830014D02*
X15491315Y-6820148D01*
X15491315Y-6820148D02*
X15438210Y-6808727D01*
X15438210Y-6808727D02*
X15385384Y-6795752D01*
X15385384Y-6795752D02*
X15332875Y-6781223D01*
X15332875Y-6781223D02*
X15280717Y-6765139D01*
X15280717Y-6765139D02*
X15228947Y-6747500D01*
X15228947Y-6747500D02*
X15177600Y-6728306D01*
X15177600Y-6728306D02*
X15126712Y-6707557D01*
X15126712Y-6707557D02*
X15076318Y-6685252D01*
X15076318Y-6685252D02*
X15026454Y-6661392D01*
X15026454Y-6661392D02*
X14977157Y-6635976D01*
X14977157Y-6635976D02*
X14928460Y-6609005D01*
X14928460Y-6609005D02*
X14877800Y-6578499D01*
X14877800Y-6578499D02*
X14828345Y-6546553D01*
X14828345Y-6546553D02*
X14780116Y-6513202D01*
X14780116Y-6513202D02*
X14733132Y-6478481D01*
X14733132Y-6478481D02*
X14687414Y-6442428D01*
X14687414Y-6442428D02*
X14642981Y-6405078D01*
X14642981Y-6405078D02*
X14599853Y-6366466D01*
X14599853Y-6366466D02*
X14558050Y-6326629D01*
X14558050Y-6326629D02*
X14517592Y-6285602D01*
X14517592Y-6285602D02*
X14478499Y-6243422D01*
X14478499Y-6243422D02*
X14404487Y-6155742D01*
X14404487Y-6155742D02*
X14336174Y-6063878D01*
X14336174Y-6063878D02*
X14273718Y-5968116D01*
X14273718Y-5968116D02*
X14217280Y-5868743D01*
X14217280Y-5868743D02*
X14167017Y-5766045D01*
X14167017Y-5766045D02*
X14123089Y-5660310D01*
X14123089Y-5660310D02*
X14085656Y-5551824D01*
X14085656Y-5551824D02*
X14054877Y-5440874D01*
X14054877Y-5440874D02*
X14042032Y-5384565D01*
X14042032Y-5384565D02*
X14030911Y-5327747D01*
X14030911Y-5327747D02*
X14021532Y-5270457D01*
X14021532Y-5270457D02*
X14013916Y-5212730D01*
X14013916Y-5212730D02*
X14008084Y-5154602D01*
X14008084Y-5154602D02*
X14004054Y-5096109D01*
X14004054Y-5096109D02*
X13870130Y-5096109D01*
X13870130Y-5096109D02*
X13870130Y-6786804D01*
X13870130Y-6786804D02*
X13076870Y-7566632D01*
X13076870Y-7566632D02*
X13076872Y-7566634D01*
X13076872Y-7566634D02*
X13076873Y-7566635D01*
X13076873Y-7566635D02*
X13076877Y-7566639D01*
X13076877Y-7566639D02*
X13076880Y-7566642D01*
X13076880Y-7566642D02*
X13076883Y-7566645D01*
X13076883Y-7566645D02*
X13076883Y-7566645D01*
D11*
X11630000Y-5650000D02*
G75*
G03*
X11630000Y-5650000I-520000J0D01*
G01*
X10738905Y-10350686D02*
G75*
G03*
X10738905Y-10350686I-520000J0D01*
G01*
X17100000Y-11410000D02*
G75*
G03*
X17100000Y-11410000I-150000J0D01*
G01*
D10*
X13006076Y-7778680D02*
X12934254Y-7706858D01*
X12934254Y-7706858D02*
X12871084Y-7768959D01*
X12871084Y-7768959D02*
X11969376Y-7768959D01*
X11969376Y-7768959D02*
X11969376Y-8399722D01*
X11969376Y-8399722D02*
X10321021Y-8399722D01*
X10321021Y-8399722D02*
X10321021Y-8493469D01*
X10321021Y-8493469D02*
X10374994Y-8497122D01*
X10374994Y-8497122D02*
X10428864Y-8502328D01*
X10428864Y-8502328D02*
X10482597Y-8509087D01*
X10482597Y-8509087D02*
X10536157Y-8517400D01*
X10536157Y-8517400D02*
X10589507Y-8527267D01*
X10589507Y-8527267D02*
X10642612Y-8538687D01*
X10642612Y-8538687D02*
X10695437Y-8551662D01*
X10695437Y-8551662D02*
X10747946Y-8566190D01*
X10747946Y-8566190D02*
X10800103Y-8582274D01*
X10800103Y-8582274D02*
X10851872Y-8599912D01*
X10851872Y-8599912D02*
X10903218Y-8619105D01*
X10903218Y-8619105D02*
X10954105Y-8639854D01*
X10954105Y-8639854D02*
X11004497Y-8662157D01*
X11004497Y-8662157D02*
X11054359Y-8686017D01*
X11054359Y-8686017D02*
X11103655Y-8711432D01*
X11103655Y-8711432D02*
X11152349Y-8738403D01*
X11152349Y-8738403D02*
X11203020Y-8768909D01*
X11203020Y-8768909D02*
X11252507Y-8800856D01*
X11252507Y-8800856D02*
X11300787Y-8834207D01*
X11300787Y-8834207D02*
X11347841Y-8868927D01*
X11347841Y-8868927D02*
X11393646Y-8904980D01*
X11393646Y-8904980D02*
X11438182Y-8942331D01*
X11438182Y-8942331D02*
X11481427Y-8980942D01*
X11481427Y-8980942D02*
X11523360Y-9020779D01*
X11523360Y-9020779D02*
X11603204Y-9103987D01*
X11603204Y-9103987D02*
X11677546Y-9191666D01*
X11677546Y-9191666D02*
X11746215Y-9283530D01*
X11746215Y-9283530D02*
X11809042Y-9379292D01*
X11809042Y-9379292D02*
X11865856Y-9478666D01*
X11865856Y-9478666D02*
X11916488Y-9581363D01*
X11916488Y-9581363D02*
X11960769Y-9687099D01*
X11960769Y-9687099D02*
X11998527Y-9795585D01*
X11998527Y-9795585D02*
X12029594Y-9906535D01*
X12029594Y-9906535D02*
X12042565Y-9962844D01*
X12042565Y-9962844D02*
X12053800Y-10019662D01*
X12053800Y-10019662D02*
X12063277Y-10076952D01*
X12063277Y-10076952D02*
X12070974Y-10134679D01*
X12070974Y-10134679D02*
X12076872Y-10192807D01*
X12076872Y-10192807D02*
X12080948Y-10251299D01*
X12080948Y-10251299D02*
X12210679Y-10251299D01*
X12210679Y-10251299D02*
X12210679Y-8560604D01*
X12210679Y-8560604D02*
X13006076Y-7778693D01*
X13006076Y-7778693D02*
X13006076Y-7778692D01*
X13006076Y-7778692D02*
X13006076Y-7778690D01*
X13006076Y-7778690D02*
X13006076Y-7778688D01*
X13006076Y-7778688D02*
X13006076Y-7778687D01*
X13006076Y-7778687D02*
X13006076Y-7778683D01*
X13006076Y-7778683D02*
X13006076Y-7778680D01*
X13006076Y-7778680D02*
X13006076Y-7778680D01*
D11*
X9280000Y-3940000D02*
G75*
G03*
X9280000Y-3940000I-150000J0D01*
G01*
X17510810Y-8124558D02*
X17510810Y-12167395D01*
X17510810Y-12167395D02*
X12210666Y-12167395D01*
X12210666Y-12167395D02*
X12210666Y-10451290D01*
X12210666Y-10451290D02*
X12080935Y-10451290D01*
X12080935Y-10451290D02*
X12070961Y-10567913D01*
X12070961Y-10567913D02*
X12053786Y-10682932D01*
X12053786Y-10682932D02*
X12029580Y-10796060D01*
X12029580Y-10796060D02*
X11998512Y-10907011D01*
X11998512Y-10907011D02*
X11960753Y-11015497D01*
X11960753Y-11015497D02*
X11916472Y-11121232D01*
X11916472Y-11121232D02*
X11865839Y-11223930D01*
X11865839Y-11223930D02*
X11809024Y-11323303D01*
X11809024Y-11323303D02*
X11746196Y-11419064D01*
X11746196Y-11419064D02*
X11677527Y-11510927D01*
X11677527Y-11510927D02*
X11603185Y-11598606D01*
X11603185Y-11598606D02*
X11523341Y-11681813D01*
X11523341Y-11681813D02*
X11438164Y-11760261D01*
X11438164Y-11760261D02*
X11347824Y-11833664D01*
X11347824Y-11833664D02*
X11252491Y-11901735D01*
X11252491Y-11901735D02*
X11152336Y-11964187D01*
X11152336Y-11964187D02*
X11042866Y-12022230D01*
X11042866Y-12022230D02*
X10930617Y-12072534D01*
X10930617Y-12072534D02*
X10815987Y-12115099D01*
X10815987Y-12115099D02*
X10699372Y-12149925D01*
X10699372Y-12149925D02*
X10581170Y-12177012D01*
X10581170Y-12177012D02*
X10461776Y-12196360D01*
X10461776Y-12196360D02*
X10341589Y-12207969D01*
X10341589Y-12207969D02*
X10221004Y-12211838D01*
X10221004Y-12211838D02*
X10100419Y-12207969D01*
X10100419Y-12207969D02*
X9980231Y-12196360D01*
X9980231Y-12196360D02*
X9860837Y-12177012D01*
X9860837Y-12177012D02*
X9742633Y-12149925D01*
X9742633Y-12149925D02*
X9626017Y-12115099D01*
X9626017Y-12115099D02*
X9511385Y-12072534D01*
X9511385Y-12072534D02*
X9399135Y-12022230D01*
X9399135Y-12022230D02*
X9289663Y-11964187D01*
X9289663Y-11964187D02*
X9236349Y-11932022D01*
X9236349Y-11932022D02*
X9184374Y-11898262D01*
X9184374Y-11898262D02*
X9133760Y-11862948D01*
X9133760Y-11862948D02*
X9084530Y-11826123D01*
X9084530Y-11826123D02*
X9036708Y-11787828D01*
X9036708Y-11787828D02*
X8990316Y-11748106D01*
X8990316Y-11748106D02*
X8945379Y-11706997D01*
X8945379Y-11706997D02*
X8901919Y-11664545D01*
X8901919Y-11664545D02*
X8859959Y-11620790D01*
X8859959Y-11620790D02*
X8819524Y-11575775D01*
X8819524Y-11575775D02*
X8780635Y-11529541D01*
X8780635Y-11529541D02*
X8743317Y-11482131D01*
X8743317Y-11482131D02*
X8707593Y-11433586D01*
X8707593Y-11433586D02*
X8673485Y-11383947D01*
X8673485Y-11383947D02*
X8641018Y-11333258D01*
X8641018Y-11333258D02*
X8610214Y-11281560D01*
X8610214Y-11281560D02*
X8581097Y-11228894D01*
X8581097Y-11228894D02*
X8553689Y-11175302D01*
X8553689Y-11175302D02*
X8528015Y-11120827D01*
X8528015Y-11120827D02*
X8504098Y-11065510D01*
X8504098Y-11065510D02*
X8481960Y-11009393D01*
X8481960Y-11009393D02*
X8461625Y-10952519D01*
X8461625Y-10952519D02*
X8443116Y-10894927D01*
X8443116Y-10894927D02*
X8426457Y-10836662D01*
X8426457Y-10836662D02*
X8411671Y-10777763D01*
X8411671Y-10777763D02*
X8398781Y-10718275D01*
X8398781Y-10718275D02*
X8387810Y-10658237D01*
X8387810Y-10658237D02*
X8378781Y-10597692D01*
X8378781Y-10597692D02*
X8371719Y-10536683D01*
X8371719Y-10536683D02*
X8366645Y-10475249D01*
X8366645Y-10475249D02*
X8363584Y-10413435D01*
X8363584Y-10413435D02*
X8362559Y-10351281D01*
X8362559Y-10351281D02*
X8366645Y-10227315D01*
X8366645Y-10227315D02*
X8378781Y-10104874D01*
X8378781Y-10104874D02*
X8398780Y-9984293D01*
X8398780Y-9984293D02*
X8426455Y-9865906D01*
X8426455Y-9865906D02*
X8461622Y-9750050D01*
X8461622Y-9750050D02*
X8504094Y-9637058D01*
X8504094Y-9637058D02*
X8553685Y-9527266D01*
X8553685Y-9527266D02*
X8610209Y-9421008D01*
X8610209Y-9421008D02*
X8673480Y-9318619D01*
X8673480Y-9318619D02*
X8743311Y-9220435D01*
X8743311Y-9220435D02*
X8819518Y-9126791D01*
X8819518Y-9126791D02*
X8901913Y-9038020D01*
X8901913Y-9038020D02*
X8990311Y-8954458D01*
X8990311Y-8954458D02*
X9084526Y-8876441D01*
X9084526Y-8876441D02*
X9184372Y-8804302D01*
X9184372Y-8804302D02*
X9289663Y-8738377D01*
X9289663Y-8738377D02*
X9338359Y-8711407D01*
X9338359Y-8711407D02*
X9387657Y-8685993D01*
X9387657Y-8685993D02*
X9437520Y-8662134D01*
X9437520Y-8662134D02*
X9487914Y-8639831D01*
X9487914Y-8639831D02*
X9538802Y-8619082D01*
X9538802Y-8619082D02*
X9590149Y-8599888D01*
X9590149Y-8599888D02*
X9641920Y-8582248D01*
X9641920Y-8582248D02*
X9694077Y-8566164D01*
X9694077Y-8566164D02*
X9746586Y-8551633D01*
X9746586Y-8551633D02*
X9799412Y-8538658D01*
X9799412Y-8538658D02*
X9852517Y-8527237D01*
X9852517Y-8527237D02*
X9905868Y-8517369D01*
X9905868Y-8517369D02*
X9959427Y-8509057D01*
X9959427Y-8509057D02*
X10013160Y-8502298D01*
X10013160Y-8502298D02*
X10067031Y-8497093D01*
X10067031Y-8497093D02*
X10121004Y-8493442D01*
X10121004Y-8493442D02*
X10121004Y-8399696D01*
X10121004Y-8399696D02*
X8570000Y-8399696D01*
X8570000Y-8399696D02*
X8570000Y-7464140D01*
X8570000Y-7464140D02*
X8752032Y-7464140D01*
X8752032Y-7464140D02*
X8752032Y-7222837D01*
X8752032Y-7222837D02*
X8570000Y-7222837D01*
X8570000Y-7222837D02*
X8570000Y-3180000D01*
X8570000Y-3180000D02*
X13870130Y-3180000D01*
X13870130Y-3180000D02*
X13870130Y-4896105D01*
X13870130Y-4896105D02*
X14004053Y-4896105D01*
X14004053Y-4896105D02*
X14013916Y-4779482D01*
X14013916Y-4779482D02*
X14030910Y-4664464D01*
X14030910Y-4664464D02*
X14054876Y-4551336D01*
X14054876Y-4551336D02*
X14085656Y-4440386D01*
X14085656Y-4440386D02*
X14123089Y-4331901D01*
X14123089Y-4331901D02*
X14167016Y-4226166D01*
X14167016Y-4226166D02*
X14217279Y-4123470D01*
X14217279Y-4123470D02*
X14273718Y-4024097D01*
X14273718Y-4024097D02*
X14336174Y-3928337D01*
X14336174Y-3928337D02*
X14404487Y-3836474D01*
X14404487Y-3836474D02*
X14478499Y-3748795D01*
X14478499Y-3748795D02*
X14558050Y-3665588D01*
X14558050Y-3665588D02*
X14642980Y-3587139D01*
X14642980Y-3587139D02*
X14733132Y-3513735D01*
X14733132Y-3513735D02*
X14828344Y-3445663D01*
X14828344Y-3445663D02*
X14928459Y-3383209D01*
X14928459Y-3383209D02*
X15037932Y-3325165D01*
X15037932Y-3325165D02*
X15150182Y-3274861D01*
X15150182Y-3274861D02*
X15264813Y-3232296D01*
X15264813Y-3232296D02*
X15381428Y-3197470D01*
X15381428Y-3197470D02*
X15499631Y-3170383D01*
X15499631Y-3170383D02*
X15619025Y-3151035D01*
X15619025Y-3151035D02*
X15739212Y-3139426D01*
X15739212Y-3139426D02*
X15859796Y-3135557D01*
X15859796Y-3135557D02*
X15980380Y-3139426D01*
X15980380Y-3139426D02*
X16100567Y-3151035D01*
X16100567Y-3151035D02*
X16219961Y-3170383D01*
X16219961Y-3170383D02*
X16338164Y-3197470D01*
X16338164Y-3197470D02*
X16454779Y-3232296D01*
X16454779Y-3232296D02*
X16569410Y-3274861D01*
X16569410Y-3274861D02*
X16681661Y-3325165D01*
X16681661Y-3325165D02*
X16791133Y-3383209D01*
X16791133Y-3383209D02*
X16844458Y-3415373D01*
X16844458Y-3415373D02*
X16896469Y-3449134D01*
X16896469Y-3449134D02*
X16947140Y-3484447D01*
X16947140Y-3484447D02*
X16996447Y-3521272D01*
X16996447Y-3521272D02*
X17044365Y-3559567D01*
X17044365Y-3559567D02*
X17090870Y-3599289D01*
X17090870Y-3599289D02*
X17135935Y-3640398D01*
X17135935Y-3640398D02*
X17179538Y-3682850D01*
X17179538Y-3682850D02*
X17221652Y-3726605D01*
X17221652Y-3726605D02*
X17262253Y-3771620D01*
X17262253Y-3771620D02*
X17301317Y-3817854D01*
X17301317Y-3817854D02*
X17338817Y-3865264D01*
X17338817Y-3865264D02*
X17374731Y-3913809D01*
X17374731Y-3913809D02*
X17409032Y-3963447D01*
X17409032Y-3963447D02*
X17441696Y-4014137D01*
X17441696Y-4014137D02*
X17472698Y-4065835D01*
X17472698Y-4065835D02*
X17502013Y-4118501D01*
X17502013Y-4118501D02*
X17529617Y-4172092D01*
X17529617Y-4172092D02*
X17555484Y-4226567D01*
X17555484Y-4226567D02*
X17579591Y-4281884D01*
X17579591Y-4281884D02*
X17601911Y-4338001D01*
X17601911Y-4338001D02*
X17622421Y-4394876D01*
X17622421Y-4394876D02*
X17641095Y-4452467D01*
X17641095Y-4452467D02*
X17657909Y-4510733D01*
X17657909Y-4510733D02*
X17672838Y-4569631D01*
X17672838Y-4569631D02*
X17685856Y-4629120D01*
X17685856Y-4629120D02*
X17696940Y-4689158D01*
X17696940Y-4689158D02*
X17706064Y-4749702D01*
X17706064Y-4749702D02*
X17713204Y-4810712D01*
X17713204Y-4810712D02*
X17718335Y-4872145D01*
X17718335Y-4872145D02*
X17721431Y-4933959D01*
X17721431Y-4933959D02*
X17722469Y-4996113D01*
X17722469Y-4996113D02*
X17718335Y-5120082D01*
X17718335Y-5120082D02*
X17706065Y-5242525D01*
X17706065Y-5242525D02*
X17685857Y-5363107D01*
X17685857Y-5363107D02*
X17657911Y-5481494D01*
X17657911Y-5481494D02*
X17622424Y-5597351D01*
X17622424Y-5597351D02*
X17579594Y-5710342D01*
X17579594Y-5710342D02*
X17529621Y-5820134D01*
X17529621Y-5820134D02*
X17472702Y-5926392D01*
X17472702Y-5926392D02*
X17409037Y-6028779D01*
X17409037Y-6028779D02*
X17338823Y-6126963D01*
X17338823Y-6126963D02*
X17262259Y-6220607D01*
X17262259Y-6220607D02*
X17179543Y-6309376D01*
X17179543Y-6309376D02*
X17090874Y-6392937D01*
X17090874Y-6392937D02*
X16996451Y-6470955D01*
X16996451Y-6470955D02*
X16896471Y-6543093D01*
X16896471Y-6543093D02*
X16791133Y-6609018D01*
X16791133Y-6609018D02*
X16742439Y-6635987D01*
X16742439Y-6635987D02*
X16693143Y-6661401D01*
X16693143Y-6661401D02*
X16643281Y-6685259D01*
X16643281Y-6685259D02*
X16592889Y-6707562D01*
X16592889Y-6707562D02*
X16542002Y-6728310D01*
X16542002Y-6728310D02*
X16490656Y-6747504D01*
X16490656Y-6747504D02*
X16438887Y-6765142D01*
X16438887Y-6765142D02*
X16386730Y-6781226D01*
X16386730Y-6781226D02*
X16334221Y-6795756D01*
X16334221Y-6795756D02*
X16281396Y-6808731D01*
X16281396Y-6808731D02*
X16228290Y-6820152D01*
X16228290Y-6820152D02*
X16174940Y-6830019D01*
X16174940Y-6830019D02*
X16121381Y-6838333D01*
X16121381Y-6838333D02*
X16067648Y-6845093D01*
X16067648Y-6845093D02*
X16013777Y-6850299D01*
X16013777Y-6850299D02*
X15959805Y-6853952D01*
X15959805Y-6853952D02*
X15959805Y-6947699D01*
X15959805Y-6947699D02*
X17510809Y-6947699D01*
X17510809Y-6947699D02*
X17510809Y-7883268D01*
X17510809Y-7883268D02*
X17328764Y-7883268D01*
X17328764Y-7883268D02*
X17328764Y-8124571D01*
X17328764Y-8124571D02*
X17510809Y-8124571D01*
X17510809Y-8124571D02*
X17510810Y-8124558D01*
X17510810Y-8124558D02*
X17510810Y-8124558D01*
X13230000Y-3940000D02*
G75*
G03*
X13230000Y-3940000I-150000J0D01*
G01*
X16381095Y-4999314D02*
G75*
G03*
X16381095Y-4999314I-520000J0D01*
G01*
X13150000Y-11410000D02*
G75*
G03*
X13150000Y-11410000I-150000J0D01*
G01*
X15490000Y-9700000D02*
G75*
G03*
X15490000Y-9700000I-520000J0D01*
G01*
D12*
D13*
X8849800Y-7541400D02*
X8889800Y-7581400D01*
X8889800Y-7541400D02*
X8849800Y-7581400D01*
X17190200Y-7768600D02*
X17230200Y-7808600D01*
X17230200Y-7768600D02*
X17190200Y-7808600D01*
D14*
X10350100Y-3345000D02*
G75*
G03*
X10350100Y-3345000I-32500J0D01*
G01*
X10477100Y-3345000D02*
G75*
G03*
X10477100Y-3345000I-32500J0D01*
G01*
X10604100Y-3345000D02*
G75*
G03*
X10604100Y-3345000I-32500J0D01*
G01*
X10731100Y-3345000D02*
G75*
G03*
X10731100Y-3345000I-32500J0D01*
G01*
X10858100Y-3345000D02*
G75*
G03*
X10858100Y-3345000I-32500J0D01*
G01*
X11443300Y-3345000D02*
G75*
G03*
X11443300Y-3345000I-32500J0D01*
G01*
X11570300Y-3345000D02*
G75*
G03*
X11570300Y-3345000I-32500J0D01*
G01*
X11697300Y-3345000D02*
G75*
G03*
X11697300Y-3345000I-32500J0D01*
G01*
X11824300Y-3345000D02*
G75*
G03*
X11824300Y-3345000I-32500J0D01*
G01*
X11951300Y-3345000D02*
G75*
G03*
X11951300Y-3345000I-32500J0D01*
G01*
X14193700Y-12005000D02*
G75*
G03*
X14193700Y-12005000I-32500J0D01*
G01*
X14320700Y-12005000D02*
G75*
G03*
X14320700Y-12005000I-32500J0D01*
G01*
X14447700Y-12005000D02*
G75*
G03*
X14447700Y-12005000I-32500J0D01*
G01*
X14574700Y-12005000D02*
G75*
G03*
X14574700Y-12005000I-32500J0D01*
G01*
X14701700Y-12005000D02*
G75*
G03*
X14701700Y-12005000I-32500J0D01*
G01*
X15286900Y-12005000D02*
G75*
G03*
X15286900Y-12005000I-32500J0D01*
G01*
X15413900Y-12005000D02*
G75*
G03*
X15413900Y-12005000I-32500J0D01*
G01*
X15540900Y-12005000D02*
G75*
G03*
X15540900Y-12005000I-32500J0D01*
G01*
X15667900Y-12005000D02*
G75*
G03*
X15667900Y-12005000I-32500J0D01*
G01*
X15794900Y-12005000D02*
G75*
G03*
X15794900Y-12005000I-32500J0D01*
G01*
D15*
X8692000Y-5711800D02*
X8692000Y-5791800D01*
X8652000Y-5751800D02*
X8732000Y-5751800D01*
X8720000Y-8050000D02*
X8720000Y-8130000D01*
X8680000Y-8090000D02*
X8760000Y-8090000D01*
X8787105Y-11265308D02*
X8787105Y-11345308D01*
X8747105Y-11305308D02*
X8827105Y-11305308D01*
X8974000Y-8050000D02*
X8974000Y-8130000D01*
X8934000Y-8090000D02*
X9014000Y-8090000D01*
X9228000Y-8050000D02*
X9228000Y-8130000D01*
X9188000Y-8090000D02*
X9268000Y-8090000D01*
X9482000Y-8050000D02*
X9482000Y-8130000D01*
X9442000Y-8090000D02*
X9522000Y-8090000D01*
X9736000Y-8050000D02*
X9736000Y-8130000D01*
X9696000Y-8090000D02*
X9776000Y-8090000D01*
X9990000Y-8050000D02*
X9990000Y-8130000D01*
X9950000Y-8090000D02*
X10030000Y-8090000D01*
X10244000Y-8050000D02*
X10244000Y-8130000D01*
X10204000Y-8090000D02*
X10284000Y-8090000D01*
X10498000Y-8050000D02*
X10498000Y-8130000D01*
X10458000Y-8090000D02*
X10538000Y-8090000D01*
X10752000Y-8050000D02*
X10752000Y-8130000D01*
X10712000Y-8090000D02*
X10792000Y-8090000D01*
X11006000Y-8050000D02*
X11006000Y-8130000D01*
X10966000Y-8090000D02*
X11046000Y-8090000D01*
X15074000Y-7220000D02*
X15074000Y-7300000D01*
X15034000Y-7260000D02*
X15114000Y-7260000D01*
X15328000Y-7220000D02*
X15328000Y-7300000D01*
X15288000Y-7260000D02*
X15368000Y-7260000D01*
X15582000Y-7220000D02*
X15582000Y-7300000D01*
X15542000Y-7260000D02*
X15622000Y-7260000D01*
X15836000Y-7220000D02*
X15836000Y-7300000D01*
X15796000Y-7260000D02*
X15876000Y-7260000D01*
X16090000Y-7220000D02*
X16090000Y-7300000D01*
X16050000Y-7260000D02*
X16130000Y-7260000D01*
X16344000Y-7220000D02*
X16344000Y-7300000D01*
X16304000Y-7260000D02*
X16384000Y-7260000D01*
X16598000Y-7220000D02*
X16598000Y-7300000D01*
X16558000Y-7260000D02*
X16638000Y-7260000D01*
X16852000Y-7220000D02*
X16852000Y-7300000D01*
X16812000Y-7260000D02*
X16892000Y-7260000D01*
X17106000Y-7220000D02*
X17106000Y-7300000D01*
X17066000Y-7260000D02*
X17146000Y-7260000D01*
X17292895Y-4004692D02*
X17292895Y-4084692D01*
X17252895Y-4044692D02*
X17332895Y-4044692D01*
X17360000Y-7220000D02*
X17360000Y-7300000D01*
X17320000Y-7260000D02*
X17400000Y-7260000D01*
X17388000Y-9558200D02*
X17388000Y-9638200D01*
X17348000Y-9598200D02*
X17428000Y-9598200D01*
D16*
X8803556Y-6809356D02*
X8803556Y-6738644D01*
X8732844Y-6738644D01*
X8732844Y-6809356D01*
X8803556Y-6809356D01*
X8803556Y-7063356D02*
X8803556Y-6992644D01*
X8732844Y-6992644D01*
X8732844Y-7063356D01*
X8803556Y-7063356D01*
X12470356Y-8839956D02*
X12470356Y-8769244D01*
X12399644Y-8769244D01*
X12399644Y-8839956D01*
X12470356Y-8839956D01*
X12470356Y-9093956D02*
X12470356Y-9023244D01*
X12399644Y-9023244D01*
X12399644Y-9093956D01*
X12470356Y-9093956D01*
X13680356Y-6326756D02*
X13680356Y-6256044D01*
X13609644Y-6256044D01*
X13609644Y-6326756D01*
X13680356Y-6326756D01*
X13680356Y-6580756D02*
X13680356Y-6510044D01*
X13609644Y-6510044D01*
X13609644Y-6580756D01*
X13680356Y-6580756D01*
X17347156Y-8357356D02*
X17347156Y-8286644D01*
X17276444Y-8286644D01*
X17276444Y-8357356D01*
X17347156Y-8357356D01*
X17347156Y-8611356D02*
X17347156Y-8540644D01*
X17276444Y-8540644D01*
X17276444Y-8611356D01*
X17347156Y-8611356D01*
D12*
X8615178Y-12527314D02*
X8615178Y-12327314D01*
X8662797Y-12327314D01*
X8691368Y-12336838D01*
X8710416Y-12355886D01*
X8719940Y-12374933D01*
X8729463Y-12413029D01*
X8729463Y-12441600D01*
X8719940Y-12479695D01*
X8710416Y-12498743D01*
X8691368Y-12517790D01*
X8662797Y-12527314D01*
X8615178Y-12527314D01*
X8815178Y-12527314D02*
X8815178Y-12393981D01*
X8815178Y-12432076D02*
X8824701Y-12413029D01*
X8834225Y-12403505D01*
X8853273Y-12393981D01*
X8872321Y-12393981D01*
X8938987Y-12527314D02*
X8938987Y-12393981D01*
X8938987Y-12327314D02*
X8929463Y-12336838D01*
X8938987Y-12346362D01*
X8948511Y-12336838D01*
X8938987Y-12327314D01*
X8938987Y-12346362D01*
X9062797Y-12527314D02*
X9043749Y-12517790D01*
X9034225Y-12498743D01*
X9034225Y-12327314D01*
X9167559Y-12527314D02*
X9148511Y-12517790D01*
X9138987Y-12498743D01*
X9138987Y-12327314D01*
X9396130Y-12527314D02*
X9396130Y-12327314D01*
X9462797Y-12470171D01*
X9529463Y-12327314D01*
X9529463Y-12527314D01*
X9710416Y-12527314D02*
X9710416Y-12422552D01*
X9700892Y-12403505D01*
X9681844Y-12393981D01*
X9643749Y-12393981D01*
X9624701Y-12403505D01*
X9710416Y-12517790D02*
X9691368Y-12527314D01*
X9643749Y-12527314D01*
X9624701Y-12517790D01*
X9615178Y-12498743D01*
X9615178Y-12479695D01*
X9624701Y-12460648D01*
X9643749Y-12451124D01*
X9691368Y-12451124D01*
X9710416Y-12441600D01*
X9805654Y-12393981D02*
X9805654Y-12593981D01*
X9805654Y-12403505D02*
X9824701Y-12393981D01*
X9862797Y-12393981D01*
X9881844Y-12403505D01*
X9891368Y-12413029D01*
X9900892Y-12432076D01*
X9900892Y-12489219D01*
X9891368Y-12508267D01*
X9881844Y-12517790D01*
X9862797Y-12527314D01*
X9824701Y-12527314D01*
X9805654Y-12517790D01*
X9986606Y-12508267D02*
X9996130Y-12517790D01*
X9986606Y-12527314D01*
X9977082Y-12517790D01*
X9986606Y-12508267D01*
X9986606Y-12527314D01*
X9986606Y-12403505D02*
X9996130Y-12413029D01*
X9986606Y-12422552D01*
X9977082Y-12413029D01*
X9986606Y-12403505D01*
X9986606Y-12422552D01*
D13*
X8317559Y-12836838D02*
X8357559Y-12876838D01*
X8357559Y-12836838D02*
X8317559Y-12876838D01*
D12*
X8653273Y-12747314D02*
X8672321Y-12747314D01*
X8691368Y-12756838D01*
X8700892Y-12766362D01*
X8710416Y-12785410D01*
X8719940Y-12823505D01*
X8719940Y-12871124D01*
X8710416Y-12909219D01*
X8700892Y-12928267D01*
X8691368Y-12937790D01*
X8672321Y-12947314D01*
X8653273Y-12947314D01*
X8634225Y-12937790D01*
X8624701Y-12928267D01*
X8615178Y-12909219D01*
X8605654Y-12871124D01*
X8605654Y-12823505D01*
X8615178Y-12785410D01*
X8624701Y-12766362D01*
X8634225Y-12756838D01*
X8653273Y-12747314D01*
X8805654Y-12928267D02*
X8815178Y-12937790D01*
X8805654Y-12947314D01*
X8796130Y-12937790D01*
X8805654Y-12928267D01*
X8805654Y-12947314D01*
X8986606Y-12813981D02*
X8986606Y-12947314D01*
X8938987Y-12737790D02*
X8891368Y-12880648D01*
X9015178Y-12880648D01*
X9129463Y-12747314D02*
X9148511Y-12747314D01*
X9167559Y-12756838D01*
X9177082Y-12766362D01*
X9186606Y-12785410D01*
X9196130Y-12823505D01*
X9196130Y-12871124D01*
X9186606Y-12909219D01*
X9177082Y-12928267D01*
X9167559Y-12937790D01*
X9148511Y-12947314D01*
X9129463Y-12947314D01*
X9110416Y-12937790D01*
X9100892Y-12928267D01*
X9091368Y-12909219D01*
X9081844Y-12871124D01*
X9081844Y-12823505D01*
X9091368Y-12785410D01*
X9100892Y-12766362D01*
X9110416Y-12756838D01*
X9129463Y-12747314D01*
X9319940Y-12747314D02*
X9338987Y-12747314D01*
X9358035Y-12756838D01*
X9367559Y-12766362D01*
X9377082Y-12785410D01*
X9386606Y-12823505D01*
X9386606Y-12871124D01*
X9377082Y-12909219D01*
X9367559Y-12928267D01*
X9358035Y-12937790D01*
X9338987Y-12947314D01*
X9319940Y-12947314D01*
X9300892Y-12937790D01*
X9291368Y-12928267D01*
X9281844Y-12909219D01*
X9272321Y-12871124D01*
X9272321Y-12823505D01*
X9281844Y-12785410D01*
X9291368Y-12766362D01*
X9300892Y-12756838D01*
X9319940Y-12747314D01*
X9472321Y-12947314D02*
X9472321Y-12813981D01*
X9472321Y-12833029D02*
X9481844Y-12823505D01*
X9500892Y-12813981D01*
X9529463Y-12813981D01*
X9548511Y-12823505D01*
X9558035Y-12842552D01*
X9558035Y-12947314D01*
X9558035Y-12842552D02*
X9567559Y-12823505D01*
X9586606Y-12813981D01*
X9615178Y-12813981D01*
X9634225Y-12823505D01*
X9643749Y-12842552D01*
X9643749Y-12947314D01*
X9738987Y-12947314D02*
X9738987Y-12813981D01*
X9738987Y-12833029D02*
X9748511Y-12823505D01*
X9767559Y-12813981D01*
X9796130Y-12813981D01*
X9815178Y-12823505D01*
X9824701Y-12842552D01*
X9824701Y-12947314D01*
X9824701Y-12842552D02*
X9834225Y-12823505D01*
X9853273Y-12813981D01*
X9881844Y-12813981D01*
X9900892Y-12823505D01*
X9910416Y-12842552D01*
X9910416Y-12947314D01*
X10300892Y-12737790D02*
X10129463Y-12994933D01*
X10558035Y-12747314D02*
X10577082Y-12747314D01*
X10596130Y-12756838D01*
X10605654Y-12766362D01*
X10615178Y-12785410D01*
X10624701Y-12823505D01*
X10624701Y-12871124D01*
X10615178Y-12909219D01*
X10605654Y-12928267D01*
X10596130Y-12937790D01*
X10577082Y-12947314D01*
X10558035Y-12947314D01*
X10538987Y-12937790D01*
X10529463Y-12928267D01*
X10519940Y-12909219D01*
X10510416Y-12871124D01*
X10510416Y-12823505D01*
X10519940Y-12785410D01*
X10529463Y-12766362D01*
X10538987Y-12756838D01*
X10558035Y-12747314D01*
X10710416Y-12928267D02*
X10719940Y-12937790D01*
X10710416Y-12947314D01*
X10700892Y-12937790D01*
X10710416Y-12928267D01*
X10710416Y-12947314D01*
X10843749Y-12747314D02*
X10862797Y-12747314D01*
X10881844Y-12756838D01*
X10891368Y-12766362D01*
X10900892Y-12785410D01*
X10910416Y-12823505D01*
X10910416Y-12871124D01*
X10900892Y-12909219D01*
X10891368Y-12928267D01*
X10881844Y-12937790D01*
X10862797Y-12947314D01*
X10843749Y-12947314D01*
X10824701Y-12937790D01*
X10815178Y-12928267D01*
X10805654Y-12909219D01*
X10796130Y-12871124D01*
X10796130Y-12823505D01*
X10805654Y-12785410D01*
X10815178Y-12766362D01*
X10824701Y-12756838D01*
X10843749Y-12747314D01*
X11100892Y-12947314D02*
X10986606Y-12947314D01*
X11043749Y-12947314D02*
X11043749Y-12747314D01*
X11024701Y-12775886D01*
X11005654Y-12794933D01*
X10986606Y-12804457D01*
X11281844Y-12747314D02*
X11186606Y-12747314D01*
X11177082Y-12842552D01*
X11186606Y-12833029D01*
X11205654Y-12823505D01*
X11253273Y-12823505D01*
X11272320Y-12833029D01*
X11281844Y-12842552D01*
X11291368Y-12861600D01*
X11291368Y-12909219D01*
X11281844Y-12928267D01*
X11272320Y-12937790D01*
X11253273Y-12947314D01*
X11205654Y-12947314D01*
X11186606Y-12937790D01*
X11177082Y-12928267D01*
X11358035Y-12747314D02*
X11491368Y-12747314D01*
X11405654Y-12947314D01*
X11558035Y-12747314D02*
X11558035Y-12785410D01*
X11634225Y-12747314D02*
X11634225Y-12785410D01*
X11929463Y-13023505D02*
X11919939Y-13013981D01*
X11900892Y-12985410D01*
X11891368Y-12966362D01*
X11881844Y-12937790D01*
X11872320Y-12890171D01*
X11872320Y-12852076D01*
X11881844Y-12804457D01*
X11891368Y-12775886D01*
X11900892Y-12756838D01*
X11919939Y-12728267D01*
X11929463Y-12718743D01*
X11996130Y-12766362D02*
X12005654Y-12756838D01*
X12024701Y-12747314D01*
X12072320Y-12747314D01*
X12091368Y-12756838D01*
X12100892Y-12766362D01*
X12110416Y-12785410D01*
X12110416Y-12804457D01*
X12100892Y-12833029D01*
X11986606Y-12947314D01*
X12110416Y-12947314D01*
X12348511Y-12947314D02*
X12348511Y-12747314D01*
X12434225Y-12947314D02*
X12434225Y-12842552D01*
X12424701Y-12823505D01*
X12405654Y-12813981D01*
X12377082Y-12813981D01*
X12358035Y-12823505D01*
X12348511Y-12833029D01*
X12558035Y-12947314D02*
X12538987Y-12937790D01*
X12529463Y-12928267D01*
X12519939Y-12909219D01*
X12519939Y-12852076D01*
X12529463Y-12833029D01*
X12538987Y-12823505D01*
X12558035Y-12813981D01*
X12586606Y-12813981D01*
X12605654Y-12823505D01*
X12615178Y-12833029D01*
X12624701Y-12852076D01*
X12624701Y-12909219D01*
X12615178Y-12928267D01*
X12605654Y-12937790D01*
X12586606Y-12947314D01*
X12558035Y-12947314D01*
X12738987Y-12947314D02*
X12719939Y-12937790D01*
X12710416Y-12918743D01*
X12710416Y-12747314D01*
X12891368Y-12937790D02*
X12872320Y-12947314D01*
X12834225Y-12947314D01*
X12815178Y-12937790D01*
X12805654Y-12918743D01*
X12805654Y-12842552D01*
X12815178Y-12823505D01*
X12834225Y-12813981D01*
X12872320Y-12813981D01*
X12891368Y-12823505D01*
X12900892Y-12842552D01*
X12900892Y-12861600D01*
X12805654Y-12880648D01*
X12977082Y-12937790D02*
X12996130Y-12947314D01*
X13034225Y-12947314D01*
X13053273Y-12937790D01*
X13062797Y-12918743D01*
X13062797Y-12909219D01*
X13053273Y-12890171D01*
X13034225Y-12880648D01*
X13005654Y-12880648D01*
X12986606Y-12871124D01*
X12977082Y-12852076D01*
X12977082Y-12842552D01*
X12986606Y-12823505D01*
X13005654Y-12813981D01*
X13034225Y-12813981D01*
X13053273Y-12823505D01*
X13129463Y-13023505D02*
X13138987Y-13013981D01*
X13158035Y-12985410D01*
X13167558Y-12966362D01*
X13177082Y-12937790D01*
X13186606Y-12890171D01*
X13186606Y-12852076D01*
X13177082Y-12804457D01*
X13167558Y-12775886D01*
X13158035Y-12756838D01*
X13138987Y-12728267D01*
X13129463Y-12718743D01*
D14*
X8357559Y-13120838D02*
G75*
G03*
X8357559Y-13120838I-32500J0D01*
G01*
D12*
X8653273Y-13011314D02*
X8672321Y-13011314D01*
X8691368Y-13020838D01*
X8700892Y-13030362D01*
X8710416Y-13049410D01*
X8719940Y-13087505D01*
X8719940Y-13135124D01*
X8710416Y-13173219D01*
X8700892Y-13192267D01*
X8691368Y-13201790D01*
X8672321Y-13211314D01*
X8653273Y-13211314D01*
X8634225Y-13201790D01*
X8624701Y-13192267D01*
X8615178Y-13173219D01*
X8605654Y-13135124D01*
X8605654Y-13087505D01*
X8615178Y-13049410D01*
X8624701Y-13030362D01*
X8634225Y-13020838D01*
X8653273Y-13011314D01*
X8805654Y-13192267D02*
X8815178Y-13201790D01*
X8805654Y-13211314D01*
X8796130Y-13201790D01*
X8805654Y-13192267D01*
X8805654Y-13211314D01*
X8986606Y-13011314D02*
X8948511Y-13011314D01*
X8929463Y-13020838D01*
X8919940Y-13030362D01*
X8900892Y-13058933D01*
X8891368Y-13097029D01*
X8891368Y-13173219D01*
X8900892Y-13192267D01*
X8910416Y-13201790D01*
X8929463Y-13211314D01*
X8967559Y-13211314D01*
X8986606Y-13201790D01*
X8996130Y-13192267D01*
X9005654Y-13173219D01*
X9005654Y-13125600D01*
X8996130Y-13106552D01*
X8986606Y-13097029D01*
X8967559Y-13087505D01*
X8929463Y-13087505D01*
X8910416Y-13097029D01*
X8900892Y-13106552D01*
X8891368Y-13125600D01*
X9186606Y-13011314D02*
X9091368Y-13011314D01*
X9081844Y-13106552D01*
X9091368Y-13097029D01*
X9110416Y-13087505D01*
X9158035Y-13087505D01*
X9177082Y-13097029D01*
X9186606Y-13106552D01*
X9196130Y-13125600D01*
X9196130Y-13173219D01*
X9186606Y-13192267D01*
X9177082Y-13201790D01*
X9158035Y-13211314D01*
X9110416Y-13211314D01*
X9091368Y-13201790D01*
X9081844Y-13192267D01*
X9319940Y-13011314D02*
X9338987Y-13011314D01*
X9358035Y-13020838D01*
X9367559Y-13030362D01*
X9377082Y-13049410D01*
X9386606Y-13087505D01*
X9386606Y-13135124D01*
X9377082Y-13173219D01*
X9367559Y-13192267D01*
X9358035Y-13201790D01*
X9338987Y-13211314D01*
X9319940Y-13211314D01*
X9300892Y-13201790D01*
X9291368Y-13192267D01*
X9281844Y-13173219D01*
X9272321Y-13135124D01*
X9272321Y-13087505D01*
X9281844Y-13049410D01*
X9291368Y-13030362D01*
X9300892Y-13020838D01*
X9319940Y-13011314D01*
X9472321Y-13211314D02*
X9472321Y-13077981D01*
X9472321Y-13097029D02*
X9481844Y-13087505D01*
X9500892Y-13077981D01*
X9529463Y-13077981D01*
X9548511Y-13087505D01*
X9558035Y-13106552D01*
X9558035Y-13211314D01*
X9558035Y-13106552D02*
X9567559Y-13087505D01*
X9586606Y-13077981D01*
X9615178Y-13077981D01*
X9634225Y-13087505D01*
X9643749Y-13106552D01*
X9643749Y-13211314D01*
X9738987Y-13211314D02*
X9738987Y-13077981D01*
X9738987Y-13097029D02*
X9748511Y-13087505D01*
X9767559Y-13077981D01*
X9796130Y-13077981D01*
X9815178Y-13087505D01*
X9824701Y-13106552D01*
X9824701Y-13211314D01*
X9824701Y-13106552D02*
X9834225Y-13087505D01*
X9853273Y-13077981D01*
X9881844Y-13077981D01*
X9900892Y-13087505D01*
X9910416Y-13106552D01*
X9910416Y-13211314D01*
X10300892Y-13001790D02*
X10129463Y-13258933D01*
X10558035Y-13011314D02*
X10577082Y-13011314D01*
X10596130Y-13020838D01*
X10605654Y-13030362D01*
X10615178Y-13049410D01*
X10624701Y-13087505D01*
X10624701Y-13135124D01*
X10615178Y-13173219D01*
X10605654Y-13192267D01*
X10596130Y-13201790D01*
X10577082Y-13211314D01*
X10558035Y-13211314D01*
X10538987Y-13201790D01*
X10529463Y-13192267D01*
X10519940Y-13173219D01*
X10510416Y-13135124D01*
X10510416Y-13087505D01*
X10519940Y-13049410D01*
X10529463Y-13030362D01*
X10538987Y-13020838D01*
X10558035Y-13011314D01*
X10710416Y-13192267D02*
X10719940Y-13201790D01*
X10710416Y-13211314D01*
X10700892Y-13201790D01*
X10710416Y-13192267D01*
X10710416Y-13211314D01*
X10843749Y-13011314D02*
X10862797Y-13011314D01*
X10881844Y-13020838D01*
X10891368Y-13030362D01*
X10900892Y-13049410D01*
X10910416Y-13087505D01*
X10910416Y-13135124D01*
X10900892Y-13173219D01*
X10891368Y-13192267D01*
X10881844Y-13201790D01*
X10862797Y-13211314D01*
X10843749Y-13211314D01*
X10824701Y-13201790D01*
X10815178Y-13192267D01*
X10805654Y-13173219D01*
X10796130Y-13135124D01*
X10796130Y-13087505D01*
X10805654Y-13049410D01*
X10815178Y-13030362D01*
X10824701Y-13020838D01*
X10843749Y-13011314D01*
X10986606Y-13030362D02*
X10996130Y-13020838D01*
X11015178Y-13011314D01*
X11062797Y-13011314D01*
X11081844Y-13020838D01*
X11091368Y-13030362D01*
X11100892Y-13049410D01*
X11100892Y-13068457D01*
X11091368Y-13097029D01*
X10977082Y-13211314D01*
X11100892Y-13211314D01*
X11281844Y-13011314D02*
X11186606Y-13011314D01*
X11177082Y-13106552D01*
X11186606Y-13097029D01*
X11205654Y-13087505D01*
X11253273Y-13087505D01*
X11272320Y-13097029D01*
X11281844Y-13106552D01*
X11291368Y-13125600D01*
X11291368Y-13173219D01*
X11281844Y-13192267D01*
X11272320Y-13201790D01*
X11253273Y-13211314D01*
X11205654Y-13211314D01*
X11186606Y-13201790D01*
X11177082Y-13192267D01*
X11462797Y-13011314D02*
X11424701Y-13011314D01*
X11405654Y-13020838D01*
X11396130Y-13030362D01*
X11377082Y-13058933D01*
X11367558Y-13097029D01*
X11367558Y-13173219D01*
X11377082Y-13192267D01*
X11386606Y-13201790D01*
X11405654Y-13211314D01*
X11443749Y-13211314D01*
X11462797Y-13201790D01*
X11472320Y-13192267D01*
X11481844Y-13173219D01*
X11481844Y-13125600D01*
X11472320Y-13106552D01*
X11462797Y-13097029D01*
X11443749Y-13087505D01*
X11405654Y-13087505D01*
X11386606Y-13097029D01*
X11377082Y-13106552D01*
X11367558Y-13125600D01*
X11558035Y-13011314D02*
X11558035Y-13049410D01*
X11634225Y-13011314D02*
X11634225Y-13049410D01*
X11929463Y-13287505D02*
X11919939Y-13277981D01*
X11900892Y-13249410D01*
X11891368Y-13230362D01*
X11881844Y-13201790D01*
X11872320Y-13154171D01*
X11872320Y-13116076D01*
X11881844Y-13068457D01*
X11891368Y-13039886D01*
X11900892Y-13020838D01*
X11919939Y-12992267D01*
X11929463Y-12982743D01*
X11996130Y-13030362D02*
X12005654Y-13020838D01*
X12024701Y-13011314D01*
X12072320Y-13011314D01*
X12091368Y-13020838D01*
X12100892Y-13030362D01*
X12110416Y-13049410D01*
X12110416Y-13068457D01*
X12100892Y-13097029D01*
X11986606Y-13211314D01*
X12110416Y-13211314D01*
X12234225Y-13011314D02*
X12253273Y-13011314D01*
X12272320Y-13020838D01*
X12281844Y-13030362D01*
X12291368Y-13049410D01*
X12300892Y-13087505D01*
X12300892Y-13135124D01*
X12291368Y-13173219D01*
X12281844Y-13192267D01*
X12272320Y-13201790D01*
X12253273Y-13211314D01*
X12234225Y-13211314D01*
X12215178Y-13201790D01*
X12205654Y-13192267D01*
X12196130Y-13173219D01*
X12186606Y-13135124D01*
X12186606Y-13087505D01*
X12196130Y-13049410D01*
X12205654Y-13030362D01*
X12215178Y-13020838D01*
X12234225Y-13011314D01*
X12538987Y-13211314D02*
X12538987Y-13011314D01*
X12624701Y-13211314D02*
X12624701Y-13106552D01*
X12615178Y-13087505D01*
X12596130Y-13077981D01*
X12567558Y-13077981D01*
X12548511Y-13087505D01*
X12538987Y-13097029D01*
X12748511Y-13211314D02*
X12729463Y-13201790D01*
X12719939Y-13192267D01*
X12710416Y-13173219D01*
X12710416Y-13116076D01*
X12719939Y-13097029D01*
X12729463Y-13087505D01*
X12748511Y-13077981D01*
X12777082Y-13077981D01*
X12796130Y-13087505D01*
X12805654Y-13097029D01*
X12815178Y-13116076D01*
X12815178Y-13173219D01*
X12805654Y-13192267D01*
X12796130Y-13201790D01*
X12777082Y-13211314D01*
X12748511Y-13211314D01*
X12929463Y-13211314D02*
X12910416Y-13201790D01*
X12900892Y-13182743D01*
X12900892Y-13011314D01*
X13081844Y-13201790D02*
X13062797Y-13211314D01*
X13024701Y-13211314D01*
X13005654Y-13201790D01*
X12996130Y-13182743D01*
X12996130Y-13106552D01*
X13005654Y-13087505D01*
X13024701Y-13077981D01*
X13062797Y-13077981D01*
X13081844Y-13087505D01*
X13091368Y-13106552D01*
X13091368Y-13125600D01*
X12996130Y-13144648D01*
X13167558Y-13201790D02*
X13186606Y-13211314D01*
X13224701Y-13211314D01*
X13243749Y-13201790D01*
X13253273Y-13182743D01*
X13253273Y-13173219D01*
X13243749Y-13154171D01*
X13224701Y-13144648D01*
X13196130Y-13144648D01*
X13177082Y-13135124D01*
X13167558Y-13116076D01*
X13167558Y-13106552D01*
X13177082Y-13087505D01*
X13196130Y-13077981D01*
X13224701Y-13077981D01*
X13243749Y-13087505D01*
X13319939Y-13287505D02*
X13329463Y-13277981D01*
X13348511Y-13249410D01*
X13358035Y-13230362D01*
X13367558Y-13201790D01*
X13377082Y-13154171D01*
X13377082Y-13116076D01*
X13367558Y-13068457D01*
X13358035Y-13039886D01*
X13348511Y-13020838D01*
X13329463Y-12992267D01*
X13319939Y-12982743D01*
D15*
X8317559Y-13344838D02*
X8317559Y-13424838D01*
X8277559Y-13384838D02*
X8357559Y-13384838D01*
D12*
X8653273Y-13275314D02*
X8672321Y-13275314D01*
X8691368Y-13284838D01*
X8700892Y-13294362D01*
X8710416Y-13313410D01*
X8719940Y-13351505D01*
X8719940Y-13399124D01*
X8710416Y-13437219D01*
X8700892Y-13456267D01*
X8691368Y-13465790D01*
X8672321Y-13475314D01*
X8653273Y-13475314D01*
X8634225Y-13465790D01*
X8624701Y-13456267D01*
X8615178Y-13437219D01*
X8605654Y-13399124D01*
X8605654Y-13351505D01*
X8615178Y-13313410D01*
X8624701Y-13294362D01*
X8634225Y-13284838D01*
X8653273Y-13275314D01*
X8805654Y-13456267D02*
X8815178Y-13465790D01*
X8805654Y-13475314D01*
X8796130Y-13465790D01*
X8805654Y-13456267D01*
X8805654Y-13475314D01*
X8929463Y-13361029D02*
X8910416Y-13351505D01*
X8900892Y-13341981D01*
X8891368Y-13322933D01*
X8891368Y-13313410D01*
X8900892Y-13294362D01*
X8910416Y-13284838D01*
X8929463Y-13275314D01*
X8967559Y-13275314D01*
X8986606Y-13284838D01*
X8996130Y-13294362D01*
X9005654Y-13313410D01*
X9005654Y-13322933D01*
X8996130Y-13341981D01*
X8986606Y-13351505D01*
X8967559Y-13361029D01*
X8929463Y-13361029D01*
X8910416Y-13370552D01*
X8900892Y-13380076D01*
X8891368Y-13399124D01*
X8891368Y-13437219D01*
X8900892Y-13456267D01*
X8910416Y-13465790D01*
X8929463Y-13475314D01*
X8967559Y-13475314D01*
X8986606Y-13465790D01*
X8996130Y-13456267D01*
X9005654Y-13437219D01*
X9005654Y-13399124D01*
X8996130Y-13380076D01*
X8986606Y-13370552D01*
X8967559Y-13361029D01*
X9129463Y-13275314D02*
X9148511Y-13275314D01*
X9167559Y-13284838D01*
X9177082Y-13294362D01*
X9186606Y-13313410D01*
X9196130Y-13351505D01*
X9196130Y-13399124D01*
X9186606Y-13437219D01*
X9177082Y-13456267D01*
X9167559Y-13465790D01*
X9148511Y-13475314D01*
X9129463Y-13475314D01*
X9110416Y-13465790D01*
X9100892Y-13456267D01*
X9091368Y-13437219D01*
X9081844Y-13399124D01*
X9081844Y-13351505D01*
X9091368Y-13313410D01*
X9100892Y-13294362D01*
X9110416Y-13284838D01*
X9129463Y-13275314D01*
X9319940Y-13275314D02*
X9338987Y-13275314D01*
X9358035Y-13284838D01*
X9367559Y-13294362D01*
X9377082Y-13313410D01*
X9386606Y-13351505D01*
X9386606Y-13399124D01*
X9377082Y-13437219D01*
X9367559Y-13456267D01*
X9358035Y-13465790D01*
X9338987Y-13475314D01*
X9319940Y-13475314D01*
X9300892Y-13465790D01*
X9291368Y-13456267D01*
X9281844Y-13437219D01*
X9272321Y-13399124D01*
X9272321Y-13351505D01*
X9281844Y-13313410D01*
X9291368Y-13294362D01*
X9300892Y-13284838D01*
X9319940Y-13275314D01*
X9472321Y-13475314D02*
X9472321Y-13341981D01*
X9472321Y-13361029D02*
X9481844Y-13351505D01*
X9500892Y-13341981D01*
X9529463Y-13341981D01*
X9548511Y-13351505D01*
X9558035Y-13370552D01*
X9558035Y-13475314D01*
X9558035Y-13370552D02*
X9567559Y-13351505D01*
X9586606Y-13341981D01*
X9615178Y-13341981D01*
X9634225Y-13351505D01*
X9643749Y-13370552D01*
X9643749Y-13475314D01*
X9738987Y-13475314D02*
X9738987Y-13341981D01*
X9738987Y-13361029D02*
X9748511Y-13351505D01*
X9767559Y-13341981D01*
X9796130Y-13341981D01*
X9815178Y-13351505D01*
X9824701Y-13370552D01*
X9824701Y-13475314D01*
X9824701Y-13370552D02*
X9834225Y-13351505D01*
X9853273Y-13341981D01*
X9881844Y-13341981D01*
X9900892Y-13351505D01*
X9910416Y-13370552D01*
X9910416Y-13475314D01*
X10300892Y-13265790D02*
X10129463Y-13522933D01*
X10558035Y-13275314D02*
X10577082Y-13275314D01*
X10596130Y-13284838D01*
X10605654Y-13294362D01*
X10615178Y-13313410D01*
X10624701Y-13351505D01*
X10624701Y-13399124D01*
X10615178Y-13437219D01*
X10605654Y-13456267D01*
X10596130Y-13465790D01*
X10577082Y-13475314D01*
X10558035Y-13475314D01*
X10538987Y-13465790D01*
X10529463Y-13456267D01*
X10519940Y-13437219D01*
X10510416Y-13399124D01*
X10510416Y-13351505D01*
X10519940Y-13313410D01*
X10529463Y-13294362D01*
X10538987Y-13284838D01*
X10558035Y-13275314D01*
X10710416Y-13456267D02*
X10719940Y-13465790D01*
X10710416Y-13475314D01*
X10700892Y-13465790D01*
X10710416Y-13456267D01*
X10710416Y-13475314D01*
X10843749Y-13275314D02*
X10862797Y-13275314D01*
X10881844Y-13284838D01*
X10891368Y-13294362D01*
X10900892Y-13313410D01*
X10910416Y-13351505D01*
X10910416Y-13399124D01*
X10900892Y-13437219D01*
X10891368Y-13456267D01*
X10881844Y-13465790D01*
X10862797Y-13475314D01*
X10843749Y-13475314D01*
X10824701Y-13465790D01*
X10815178Y-13456267D01*
X10805654Y-13437219D01*
X10796130Y-13399124D01*
X10796130Y-13351505D01*
X10805654Y-13313410D01*
X10815178Y-13294362D01*
X10824701Y-13284838D01*
X10843749Y-13275314D01*
X10977082Y-13275314D02*
X11100892Y-13275314D01*
X11034225Y-13351505D01*
X11062797Y-13351505D01*
X11081844Y-13361029D01*
X11091368Y-13370552D01*
X11100892Y-13389600D01*
X11100892Y-13437219D01*
X11091368Y-13456267D01*
X11081844Y-13465790D01*
X11062797Y-13475314D01*
X11005654Y-13475314D01*
X10986606Y-13465790D01*
X10977082Y-13456267D01*
X11291368Y-13475314D02*
X11177082Y-13475314D01*
X11234225Y-13475314D02*
X11234225Y-13275314D01*
X11215178Y-13303886D01*
X11196130Y-13322933D01*
X11177082Y-13332457D01*
X11472320Y-13275314D02*
X11377082Y-13275314D01*
X11367558Y-13370552D01*
X11377082Y-13361029D01*
X11396130Y-13351505D01*
X11443749Y-13351505D01*
X11462797Y-13361029D01*
X11472320Y-13370552D01*
X11481844Y-13389600D01*
X11481844Y-13437219D01*
X11472320Y-13456267D01*
X11462797Y-13465790D01*
X11443749Y-13475314D01*
X11396130Y-13475314D01*
X11377082Y-13465790D01*
X11367558Y-13456267D01*
X11558035Y-13275314D02*
X11558035Y-13313410D01*
X11634225Y-13275314D02*
X11634225Y-13313410D01*
X11929463Y-13551505D02*
X11919939Y-13541981D01*
X11900892Y-13513410D01*
X11891368Y-13494362D01*
X11881844Y-13465790D01*
X11872320Y-13418171D01*
X11872320Y-13380076D01*
X11881844Y-13332457D01*
X11891368Y-13303886D01*
X11900892Y-13284838D01*
X11919939Y-13256267D01*
X11929463Y-13246743D01*
X11996130Y-13294362D02*
X12005654Y-13284838D01*
X12024701Y-13275314D01*
X12072320Y-13275314D01*
X12091368Y-13284838D01*
X12100892Y-13294362D01*
X12110416Y-13313410D01*
X12110416Y-13332457D01*
X12100892Y-13361029D01*
X11986606Y-13475314D01*
X12110416Y-13475314D01*
X12281844Y-13341981D02*
X12281844Y-13475314D01*
X12234225Y-13265790D02*
X12186606Y-13408648D01*
X12310416Y-13408648D01*
X12538987Y-13475314D02*
X12538987Y-13275314D01*
X12624701Y-13475314D02*
X12624701Y-13370552D01*
X12615178Y-13351505D01*
X12596130Y-13341981D01*
X12567558Y-13341981D01*
X12548511Y-13351505D01*
X12538987Y-13361029D01*
X12748511Y-13475314D02*
X12729463Y-13465790D01*
X12719939Y-13456267D01*
X12710416Y-13437219D01*
X12710416Y-13380076D01*
X12719939Y-13361029D01*
X12729463Y-13351505D01*
X12748511Y-13341981D01*
X12777082Y-13341981D01*
X12796130Y-13351505D01*
X12805654Y-13361029D01*
X12815178Y-13380076D01*
X12815178Y-13437219D01*
X12805654Y-13456267D01*
X12796130Y-13465790D01*
X12777082Y-13475314D01*
X12748511Y-13475314D01*
X12929463Y-13475314D02*
X12910416Y-13465790D01*
X12900892Y-13446743D01*
X12900892Y-13275314D01*
X13081844Y-13465790D02*
X13062797Y-13475314D01*
X13024701Y-13475314D01*
X13005654Y-13465790D01*
X12996130Y-13446743D01*
X12996130Y-13370552D01*
X13005654Y-13351505D01*
X13024701Y-13341981D01*
X13062797Y-13341981D01*
X13081844Y-13351505D01*
X13091368Y-13370552D01*
X13091368Y-13389600D01*
X12996130Y-13408648D01*
X13167558Y-13465790D02*
X13186606Y-13475314D01*
X13224701Y-13475314D01*
X13243749Y-13465790D01*
X13253273Y-13446743D01*
X13253273Y-13437219D01*
X13243749Y-13418171D01*
X13224701Y-13408648D01*
X13196130Y-13408648D01*
X13177082Y-13399124D01*
X13167558Y-13380076D01*
X13167558Y-13370552D01*
X13177082Y-13351505D01*
X13196130Y-13341981D01*
X13224701Y-13341981D01*
X13243749Y-13351505D01*
X13319939Y-13551505D02*
X13329463Y-13541981D01*
X13348511Y-13513410D01*
X13358035Y-13494362D01*
X13367558Y-13465790D01*
X13377082Y-13418171D01*
X13377082Y-13380076D01*
X13367558Y-13332457D01*
X13358035Y-13303886D01*
X13348511Y-13284838D01*
X13329463Y-13256267D01*
X13319939Y-13246743D01*
D16*
X8342914Y-13684194D02*
X8342914Y-13613482D01*
X8272203Y-13613482D01*
X8272203Y-13684194D01*
X8342914Y-13684194D01*
D12*
X8719940Y-13739314D02*
X8605654Y-13739314D01*
X8662797Y-13739314D02*
X8662797Y-13539314D01*
X8643749Y-13567886D01*
X8624701Y-13586933D01*
X8605654Y-13596457D01*
X8805654Y-13720267D02*
X8815178Y-13729790D01*
X8805654Y-13739314D01*
X8796130Y-13729790D01*
X8805654Y-13720267D01*
X8805654Y-13739314D01*
X8938987Y-13539314D02*
X8958035Y-13539314D01*
X8977082Y-13548838D01*
X8986606Y-13558362D01*
X8996130Y-13577410D01*
X9005654Y-13615505D01*
X9005654Y-13663124D01*
X8996130Y-13701219D01*
X8986606Y-13720267D01*
X8977082Y-13729790D01*
X8958035Y-13739314D01*
X8938987Y-13739314D01*
X8919940Y-13729790D01*
X8910416Y-13720267D01*
X8900892Y-13701219D01*
X8891368Y-13663124D01*
X8891368Y-13615505D01*
X8900892Y-13577410D01*
X8910416Y-13558362D01*
X8919940Y-13548838D01*
X8938987Y-13539314D01*
X9129463Y-13539314D02*
X9148511Y-13539314D01*
X9167559Y-13548838D01*
X9177082Y-13558362D01*
X9186606Y-13577410D01*
X9196130Y-13615505D01*
X9196130Y-13663124D01*
X9186606Y-13701219D01*
X9177082Y-13720267D01*
X9167559Y-13729790D01*
X9148511Y-13739314D01*
X9129463Y-13739314D01*
X9110416Y-13729790D01*
X9100892Y-13720267D01*
X9091368Y-13701219D01*
X9081844Y-13663124D01*
X9081844Y-13615505D01*
X9091368Y-13577410D01*
X9100892Y-13558362D01*
X9110416Y-13548838D01*
X9129463Y-13539314D01*
X9319940Y-13539314D02*
X9338987Y-13539314D01*
X9358035Y-13548838D01*
X9367559Y-13558362D01*
X9377082Y-13577410D01*
X9386606Y-13615505D01*
X9386606Y-13663124D01*
X9377082Y-13701219D01*
X9367559Y-13720267D01*
X9358035Y-13729790D01*
X9338987Y-13739314D01*
X9319940Y-13739314D01*
X9300892Y-13729790D01*
X9291368Y-13720267D01*
X9281844Y-13701219D01*
X9272321Y-13663124D01*
X9272321Y-13615505D01*
X9281844Y-13577410D01*
X9291368Y-13558362D01*
X9300892Y-13548838D01*
X9319940Y-13539314D01*
X9472321Y-13739314D02*
X9472321Y-13605981D01*
X9472321Y-13625029D02*
X9481844Y-13615505D01*
X9500892Y-13605981D01*
X9529463Y-13605981D01*
X9548511Y-13615505D01*
X9558035Y-13634552D01*
X9558035Y-13739314D01*
X9558035Y-13634552D02*
X9567559Y-13615505D01*
X9586606Y-13605981D01*
X9615178Y-13605981D01*
X9634225Y-13615505D01*
X9643749Y-13634552D01*
X9643749Y-13739314D01*
X9738987Y-13739314D02*
X9738987Y-13605981D01*
X9738987Y-13625029D02*
X9748511Y-13615505D01*
X9767559Y-13605981D01*
X9796130Y-13605981D01*
X9815178Y-13615505D01*
X9824701Y-13634552D01*
X9824701Y-13739314D01*
X9824701Y-13634552D02*
X9834225Y-13615505D01*
X9853273Y-13605981D01*
X9881844Y-13605981D01*
X9900892Y-13615505D01*
X9910416Y-13634552D01*
X9910416Y-13739314D01*
X10300892Y-13529790D02*
X10129463Y-13786933D01*
X10558035Y-13539314D02*
X10577082Y-13539314D01*
X10596130Y-13548838D01*
X10605654Y-13558362D01*
X10615178Y-13577410D01*
X10624701Y-13615505D01*
X10624701Y-13663124D01*
X10615178Y-13701219D01*
X10605654Y-13720267D01*
X10596130Y-13729790D01*
X10577082Y-13739314D01*
X10558035Y-13739314D01*
X10538987Y-13729790D01*
X10529463Y-13720267D01*
X10519940Y-13701219D01*
X10510416Y-13663124D01*
X10510416Y-13615505D01*
X10519940Y-13577410D01*
X10529463Y-13558362D01*
X10538987Y-13548838D01*
X10558035Y-13539314D01*
X10710416Y-13720267D02*
X10719940Y-13729790D01*
X10710416Y-13739314D01*
X10700892Y-13729790D01*
X10710416Y-13720267D01*
X10710416Y-13739314D01*
X10843749Y-13539314D02*
X10862797Y-13539314D01*
X10881844Y-13548838D01*
X10891368Y-13558362D01*
X10900892Y-13577410D01*
X10910416Y-13615505D01*
X10910416Y-13663124D01*
X10900892Y-13701219D01*
X10891368Y-13720267D01*
X10881844Y-13729790D01*
X10862797Y-13739314D01*
X10843749Y-13739314D01*
X10824701Y-13729790D01*
X10815178Y-13720267D01*
X10805654Y-13701219D01*
X10796130Y-13663124D01*
X10796130Y-13615505D01*
X10805654Y-13577410D01*
X10815178Y-13558362D01*
X10824701Y-13548838D01*
X10843749Y-13539314D01*
X10977082Y-13539314D02*
X11100892Y-13539314D01*
X11034225Y-13615505D01*
X11062797Y-13615505D01*
X11081844Y-13625029D01*
X11091368Y-13634552D01*
X11100892Y-13653600D01*
X11100892Y-13701219D01*
X11091368Y-13720267D01*
X11081844Y-13729790D01*
X11062797Y-13739314D01*
X11005654Y-13739314D01*
X10986606Y-13729790D01*
X10977082Y-13720267D01*
X11196130Y-13739314D02*
X11234225Y-13739314D01*
X11253273Y-13729790D01*
X11262797Y-13720267D01*
X11281844Y-13691695D01*
X11291368Y-13653600D01*
X11291368Y-13577410D01*
X11281844Y-13558362D01*
X11272320Y-13548838D01*
X11253273Y-13539314D01*
X11215178Y-13539314D01*
X11196130Y-13548838D01*
X11186606Y-13558362D01*
X11177082Y-13577410D01*
X11177082Y-13625029D01*
X11186606Y-13644076D01*
X11196130Y-13653600D01*
X11215178Y-13663124D01*
X11253273Y-13663124D01*
X11272320Y-13653600D01*
X11281844Y-13644076D01*
X11291368Y-13625029D01*
X11462797Y-13605981D02*
X11462797Y-13739314D01*
X11415178Y-13529790D02*
X11367558Y-13672648D01*
X11491368Y-13672648D01*
X11558035Y-13539314D02*
X11558035Y-13577410D01*
X11634225Y-13539314D02*
X11634225Y-13577410D01*
X11929463Y-13815505D02*
X11919939Y-13805981D01*
X11900892Y-13777410D01*
X11891368Y-13758362D01*
X11881844Y-13729790D01*
X11872320Y-13682171D01*
X11872320Y-13644076D01*
X11881844Y-13596457D01*
X11891368Y-13567886D01*
X11900892Y-13548838D01*
X11919939Y-13520267D01*
X11929463Y-13510743D01*
X12034225Y-13625029D02*
X12015178Y-13615505D01*
X12005654Y-13605981D01*
X11996130Y-13586933D01*
X11996130Y-13577410D01*
X12005654Y-13558362D01*
X12015178Y-13548838D01*
X12034225Y-13539314D01*
X12072320Y-13539314D01*
X12091368Y-13548838D01*
X12100892Y-13558362D01*
X12110416Y-13577410D01*
X12110416Y-13586933D01*
X12100892Y-13605981D01*
X12091368Y-13615505D01*
X12072320Y-13625029D01*
X12034225Y-13625029D01*
X12015178Y-13634552D01*
X12005654Y-13644076D01*
X11996130Y-13663124D01*
X11996130Y-13701219D01*
X12005654Y-13720267D01*
X12015178Y-13729790D01*
X12034225Y-13739314D01*
X12072320Y-13739314D01*
X12091368Y-13729790D01*
X12100892Y-13720267D01*
X12110416Y-13701219D01*
X12110416Y-13663124D01*
X12100892Y-13644076D01*
X12091368Y-13634552D01*
X12072320Y-13625029D01*
X12348511Y-13739314D02*
X12348511Y-13539314D01*
X12434225Y-13739314D02*
X12434225Y-13634552D01*
X12424701Y-13615505D01*
X12405654Y-13605981D01*
X12377082Y-13605981D01*
X12358035Y-13615505D01*
X12348511Y-13625029D01*
X12558035Y-13739314D02*
X12538987Y-13729790D01*
X12529463Y-13720267D01*
X12519939Y-13701219D01*
X12519939Y-13644076D01*
X12529463Y-13625029D01*
X12538987Y-13615505D01*
X12558035Y-13605981D01*
X12586606Y-13605981D01*
X12605654Y-13615505D01*
X12615178Y-13625029D01*
X12624701Y-13644076D01*
X12624701Y-13701219D01*
X12615178Y-13720267D01*
X12605654Y-13729790D01*
X12586606Y-13739314D01*
X12558035Y-13739314D01*
X12738987Y-13739314D02*
X12719939Y-13729790D01*
X12710416Y-13710743D01*
X12710416Y-13539314D01*
X12891368Y-13729790D02*
X12872320Y-13739314D01*
X12834225Y-13739314D01*
X12815178Y-13729790D01*
X12805654Y-13710743D01*
X12805654Y-13634552D01*
X12815178Y-13615505D01*
X12834225Y-13605981D01*
X12872320Y-13605981D01*
X12891368Y-13615505D01*
X12900892Y-13634552D01*
X12900892Y-13653600D01*
X12805654Y-13672648D01*
X12977082Y-13729790D02*
X12996130Y-13739314D01*
X13034225Y-13739314D01*
X13053273Y-13729790D01*
X13062797Y-13710743D01*
X13062797Y-13701219D01*
X13053273Y-13682171D01*
X13034225Y-13672648D01*
X13005654Y-13672648D01*
X12986606Y-13663124D01*
X12977082Y-13644076D01*
X12977082Y-13634552D01*
X12986606Y-13615505D01*
X13005654Y-13605981D01*
X13034225Y-13605981D01*
X13053273Y-13615505D01*
X13129463Y-13815505D02*
X13138987Y-13805981D01*
X13158035Y-13777410D01*
X13167558Y-13758362D01*
X13177082Y-13729790D01*
X13186606Y-13682171D01*
X13186606Y-13644076D01*
X13177082Y-13596457D01*
X13167558Y-13567886D01*
X13158035Y-13548838D01*
X13138987Y-13520267D01*
X13129463Y-13510743D01*
M02*
