<?xml version="1.0" encoding="UTF-8"?>
<!DOCTYPE svg PUBLIC "-//W3C//DTD SVG 1.1//EN" "http://www.w3.org/Graphics/SVG/1.1/DTD/svg11.dtd">
<!-- Creator: CorelDRAW 2019 (64-Bit) -->
<svg xmlns="http://www.w3.org/2000/svg" xml:space="preserve" width="93.799mm" height="90.9627mm" version="1.1" style="shape-rendering:geometricPrecision; text-rendering:geometricPrecision; image-rendering:optimizeQuality; fill-rule:evenodd; clip-rule:evenodd"
viewBox="0 0 7024.93 6812.51"
 xmlns:xlink="http://www.w3.org/1999/xlink"
 xmlns:xodm="http://www.corel.com/coreldraw/odm/2003">
 <defs>
  <style type="text/css">
   <![CDATA[
    .str0 {stroke:black;stroke-width:14.98;stroke-miterlimit:22.9256}
    .fil0 {fill:none}
   ]]>
  </style>
 </defs>
 <g id="Layer_x0020_1">
  <metadata id="CorelCorpID_0Corel-Layer"/>
  <path class="fil0 str0" d="M6858.93 3743.92l0 3027.82 -3969.46 0 0 -1285.25 -97.16 0c-25.23,468.65 -286,895.21 -695.46,1133.06 -431.18,247.3 -963.83,247.3 -1395.02,0 -431.18,-250.47 -694.34,-710.19 -694.34,-1207.96 0,-497.76 263.15,-957.49 694.34,-1207.96 193.26,-110.83 406.88,-171.96 622.62,-183.44l0 -70.21 -1161.6 0 0 -700.67 136.33 0 0 -180.72 -136.33 0 0 -3027.82 3969.45 0 0 1285.25 100.3 0c24.94,-468.65 282.85,-895.2 692.32,-1133.06 431.19,-247.3 963.83,-247.3 1395.02,0 431.18,250.47 697.51,710.19 697.51,1207.96 0,497.77 -266.32,957.49 -697.51,1207.96 -193.25,110.83 -406.87,171.95 -622.61,183.44l0 70.21 1161.6 0 0 700.68 -136.34 0 0 180.72 136.34 0zm-3320.72 -417.84l53.79 53.79 45.71 -44.94 675.31 0 0 -472.41 1234.52 0 0 -70.21c-215.74,-11.48 -429.36,-72.6 -622.62,-183.44 -409.47,-237.85 -667.38,-664.42 -692.32,-1133.06l-100.3 0 0 1266.22 -594.1 584.04zm-53.03 158.8l-53.79 -53.79 -47.31 46.51 -675.32 0 0 472.4 -1234.51 0 0 70.21c215.74,11.49 429.36,72.6 622.61,183.44 409.47,237.85 670.23,664.42 695.46,1133.06l97.16 0 0 -1266.22 595.7 -585.6z"/>
 </g>
</svg>
