G04 #@! TF.GenerationSoftware,KiCad,Pcbnew,(6.0.1)*
G04 #@! TF.CreationDate,2022-12-12T17:51:50+08:00*
G04 #@! TF.ProjectId,CRVisionController,43525669-7369-46f6-9e43-6f6e74726f6c,rev?*
G04 #@! TF.SameCoordinates,Original*
G04 #@! TF.FileFunction,Copper,L2,Bot*
G04 #@! TF.FilePolarity,Positive*
%FSLAX46Y46*%
G04 Gerber Fmt 4.6, Leading zero omitted, Abs format (unit mm)*
G04 Created by KiCad (PCBNEW (6.0.1)) date 2022-12-12 17:51:50*
%MOMM*%
%LPD*%
G01*
G04 APERTURE LIST*
G04 #@! TA.AperFunction,ComponentPad*
%ADD10R,1.700000X1.700000*%
G04 #@! TD*
G04 #@! TA.AperFunction,ComponentPad*
%ADD11O,1.700000X1.700000*%
G04 #@! TD*
G04 #@! TA.AperFunction,ViaPad*
%ADD12C,0.800000*%
G04 #@! TD*
G04 #@! TA.AperFunction,Conductor*
%ADD13C,0.350000*%
G04 #@! TD*
G04 APERTURE END LIST*
D10*
X92900000Y-62425000D03*
D11*
X92900000Y-64965000D03*
X92900000Y-67505000D03*
X92900000Y-70045000D03*
X92900000Y-72585000D03*
D10*
X130206000Y-35779000D03*
D11*
X130206000Y-33239000D03*
D10*
X94036000Y-35779000D03*
D11*
X94036000Y-33239000D03*
D10*
X92900000Y-80800000D03*
D11*
X92900000Y-83340000D03*
X92900000Y-85880000D03*
X92900000Y-88420000D03*
X92900000Y-90960000D03*
D12*
X108200000Y-77000000D03*
X102000000Y-90600000D03*
X103400000Y-65000000D03*
X129800000Y-77800000D03*
X139200000Y-61400000D03*
X154400000Y-93100000D03*
X155640000Y-104460000D03*
X105000000Y-100200000D03*
X120300000Y-96400000D03*
X116200000Y-91100000D03*
X167400000Y-63300000D03*
X151700000Y-77400000D03*
X116229615Y-64050011D03*
X116200000Y-76800000D03*
X151900000Y-63300000D03*
X132300000Y-89900000D03*
X160400000Y-77300000D03*
X130875489Y-61375489D03*
X134900000Y-96200000D03*
X174200000Y-76000000D03*
X145100000Y-91000000D03*
X162300000Y-98800000D03*
X174075489Y-61775489D03*
X134400000Y-65200000D03*
X177125489Y-68325489D03*
X177600000Y-96800000D03*
X174500000Y-77600000D03*
X177600000Y-84700000D03*
X113200000Y-68300000D03*
X100300000Y-60700000D03*
X99000000Y-87800000D03*
X97800000Y-81900000D03*
D13*
X138200000Y-41500000D02*
X132700000Y-36000000D01*
X96800000Y-90600000D02*
X102000000Y-90600000D01*
X103400000Y-72200000D02*
X103400000Y-65000000D01*
X102000000Y-81200000D02*
X102000000Y-90600000D01*
X107200000Y-76000000D02*
X102000000Y-81200000D01*
X92900000Y-80800000D02*
X93000000Y-80900000D01*
X138200000Y-60400000D02*
X139200000Y-61400000D01*
X130427000Y-36000000D02*
X130206000Y-35779000D01*
X95000000Y-88800000D02*
X96800000Y-90600000D01*
X132700000Y-36000000D02*
X130427000Y-36000000D01*
X107200000Y-76000000D02*
X103400000Y-72200000D01*
X95000000Y-81500000D02*
X95000000Y-88800000D01*
X129800000Y-60400000D02*
X138200000Y-60400000D01*
X108200000Y-77000000D02*
X107200000Y-76000000D01*
X94400000Y-80900000D02*
X95000000Y-81500000D01*
X93000000Y-80900000D02*
X94400000Y-80900000D01*
X129800000Y-77800000D02*
X129800000Y-60400000D01*
X138200000Y-60400000D02*
X138200000Y-41500000D01*
X92700000Y-77900000D02*
X92700000Y-75100000D01*
X91200000Y-94100000D02*
X91200000Y-79400000D01*
X92600000Y-95500000D02*
X91200000Y-94100000D01*
X92700000Y-75100000D02*
X91100000Y-73500000D01*
X96300000Y-100200000D02*
X92600000Y-96500000D01*
X105000000Y-100200000D02*
X96300000Y-100200000D01*
X91100000Y-73500000D02*
X91100000Y-71845000D01*
X91200000Y-79400000D02*
X92700000Y-77900000D01*
X154400000Y-93100000D02*
X154400000Y-103220000D01*
X154400000Y-103220000D02*
X155640000Y-104460000D01*
X92600000Y-96500000D02*
X92600000Y-95500000D01*
X91100000Y-71845000D02*
X92900000Y-70045000D01*
X116200000Y-76800000D02*
X116200000Y-64079626D01*
X116200000Y-64079626D02*
X116229615Y-64050011D01*
X153200000Y-78900000D02*
X151700000Y-77400000D01*
X161900000Y-78900000D02*
X153200000Y-78900000D01*
X161900000Y-68800000D02*
X161900000Y-78900000D01*
X167400000Y-63300000D02*
X161900000Y-68800000D01*
X116200000Y-92300000D02*
X116200000Y-91100000D01*
X116200000Y-91100000D02*
X116200000Y-76800000D01*
X120300000Y-96400000D02*
X116200000Y-92300000D01*
X160400000Y-71800000D02*
X151900000Y-63300000D01*
X132300000Y-93600000D02*
X132300000Y-89900000D01*
X97700000Y-97400000D02*
X133700000Y-97400000D01*
X132300000Y-89900000D02*
X132300000Y-62800000D01*
X134900000Y-96200000D02*
X132300000Y-93600000D01*
X132300000Y-62800000D02*
X130875489Y-61375489D01*
X133700000Y-97400000D02*
X134900000Y-96200000D01*
X92900000Y-92600000D02*
X97700000Y-97400000D01*
X92900000Y-90960000D02*
X92900000Y-92600000D01*
X160400000Y-77300000D02*
X160400000Y-71800000D01*
X177125489Y-68325489D02*
X177125489Y-64825489D01*
X159200000Y-91000000D02*
X146400000Y-91000000D01*
X164850000Y-85350000D02*
X159200000Y-91000000D01*
X146400000Y-74500000D02*
X137100000Y-65200000D01*
X146400000Y-91000000D02*
X145100000Y-91000000D01*
X146400000Y-91000000D02*
X146400000Y-74500000D01*
X174200000Y-76000000D02*
X164850000Y-85350000D01*
X162300000Y-87900000D02*
X162300000Y-98800000D01*
X137100000Y-65200000D02*
X134400000Y-65200000D01*
X177125489Y-64825489D02*
X174075489Y-61775489D01*
X164850000Y-85350000D02*
X162300000Y-87900000D01*
X113200000Y-68300000D02*
X106100000Y-61200000D01*
X177600000Y-96800000D02*
X177600000Y-84700000D01*
X105600000Y-60700000D02*
X100300000Y-60700000D01*
X106100000Y-61200000D02*
X105600000Y-60700000D01*
X177600000Y-84700000D02*
X177600000Y-80700000D01*
X177600000Y-80700000D02*
X174500000Y-77600000D01*
X95600000Y-69900000D02*
X95600000Y-87400000D01*
X96000000Y-87800000D02*
X99000000Y-87800000D01*
X95600000Y-87400000D02*
X96000000Y-87800000D01*
X94695000Y-69300000D02*
X95000000Y-69300000D01*
X92900000Y-67505000D02*
X94695000Y-69300000D01*
X95000000Y-69300000D02*
X95600000Y-69900000D01*
X92900000Y-62425000D02*
X92925000Y-62425000D01*
X92925000Y-62425000D02*
X96300000Y-65800000D01*
X96300000Y-80400000D02*
X97800000Y-81900000D01*
X96300000Y-65800000D02*
X96300000Y-80400000D01*
M02*
