G04 #@! TF.GenerationSoftware,KiCad,Pcbnew,(6.0.1)*
G04 #@! TF.CreationDate,2022-07-24T11:11:26+08:00*
G04 #@! TF.ProjectId,CRVisionJoystickLower,43525669-7369-46f6-9e4a-6f7973746963,rev?*
G04 #@! TF.SameCoordinates,Original*
G04 #@! TF.FileFunction,Soldermask,Top*
G04 #@! TF.FilePolarity,Negative*
%FSLAX46Y46*%
G04 Gerber Fmt 4.6, Leading zero omitted, Abs format (unit mm)*
G04 Created by KiCad (PCBNEW (6.0.1)) date 2022-07-24 11:11:26*
%MOMM*%
%LPD*%
G01*
G04 APERTURE LIST*
G04 Aperture macros list*
%AMHorizOval*
0 Thick line with rounded ends*
0 $1 width*
0 $2 $3 position (X,Y) of the first rounded end (center of the circle)*
0 $4 $5 position (X,Y) of the second rounded end (center of the circle)*
0 Add line between two ends*
20,1,$1,$2,$3,$4,$5,0*
0 Add two circle primitives to create the rounded ends*
1,1,$1,$2,$3*
1,1,$1,$4,$5*%
G04 Aperture macros list end*
%ADD10C,0.036148*%
%ADD11HorizOval,1.200000X-0.450000X0.779423X0.450000X-0.779423X0*%
G04 APERTURE END LIST*
D10*
X135700001Y-51247742D02*
X136657510Y-51272012D01*
X136657510Y-51272012D02*
X137602451Y-51344039D01*
X137602451Y-51344039D02*
X138533653Y-51462652D01*
X138533653Y-51462652D02*
X139449949Y-51626679D01*
X139449949Y-51626679D02*
X140350168Y-51834948D01*
X140350168Y-51834948D02*
X141233142Y-52086288D01*
X141233142Y-52086288D02*
X142097702Y-52379526D01*
X142097702Y-52379526D02*
X142942677Y-52713490D01*
X142942677Y-52713490D02*
X143766900Y-53087008D01*
X143766900Y-53087008D02*
X144569200Y-53498910D01*
X144569200Y-53498910D02*
X145348410Y-53948022D01*
X145348410Y-53948022D02*
X146103358Y-54433173D01*
X146103358Y-54433173D02*
X146832878Y-54953191D01*
X146832878Y-54953191D02*
X147535798Y-55506904D01*
X147535798Y-55506904D02*
X148210950Y-56093140D01*
X148210950Y-56093140D02*
X148857165Y-56710727D01*
X148857165Y-56710727D02*
X149473274Y-57358494D01*
X149473274Y-57358494D02*
X150058107Y-58035268D01*
X150058107Y-58035268D02*
X150610495Y-58739878D01*
X150610495Y-58739878D02*
X151129270Y-59471152D01*
X151129270Y-59471152D02*
X151613261Y-60227918D01*
X151613261Y-60227918D02*
X152061300Y-61009003D01*
X152061300Y-61009003D02*
X152472218Y-61813236D01*
X152472218Y-61813236D02*
X152844845Y-62639446D01*
X152844845Y-62639446D02*
X153178012Y-63486460D01*
X153178012Y-63486460D02*
X153470551Y-64353106D01*
X153470551Y-64353106D02*
X153721291Y-65238213D01*
X153721291Y-65238213D02*
X153929064Y-66140608D01*
X153929064Y-66140608D02*
X154092700Y-67059120D01*
X154092700Y-67059120D02*
X154211031Y-67992577D01*
X154211031Y-67992577D02*
X154282887Y-68939807D01*
X154282887Y-68939807D02*
X154307098Y-69899638D01*
X154307098Y-69899638D02*
X154286338Y-70788547D01*
X154286338Y-70788547D02*
X154224675Y-71666729D01*
X154224675Y-71666729D02*
X154123038Y-72533255D01*
X154123038Y-72533255D02*
X153982353Y-73387194D01*
X153982353Y-73387194D02*
X153803549Y-74227619D01*
X153803549Y-74227619D02*
X153587553Y-75053599D01*
X153587553Y-75053599D02*
X153335292Y-75864205D01*
X153335292Y-75864205D02*
X153047695Y-76658508D01*
X153047695Y-76658508D02*
X152725688Y-77435579D01*
X152725688Y-77435579D02*
X152370200Y-78194489D01*
X152370200Y-78194489D02*
X151982158Y-78934308D01*
X151982158Y-78934308D02*
X151562489Y-79654107D01*
X151562489Y-79654107D02*
X151112121Y-80352957D01*
X151112121Y-80352957D02*
X150631982Y-81029929D01*
X150631982Y-81029929D02*
X150122999Y-81684094D01*
X150122999Y-81684094D02*
X149586100Y-82314521D01*
X149586100Y-82314521D02*
X149022213Y-82920282D01*
X149022213Y-82920282D02*
X148432264Y-83500448D01*
X148432264Y-83500448D02*
X147817183Y-84054090D01*
X147817183Y-84054090D02*
X147177895Y-84580277D01*
X147177895Y-84580277D02*
X146515329Y-85078082D01*
X146515329Y-85078082D02*
X145830413Y-85546574D01*
X145830413Y-85546574D02*
X145124074Y-85984825D01*
X145124074Y-85984825D02*
X144397239Y-86391905D01*
X144397239Y-86391905D02*
X143650836Y-86766885D01*
X143650836Y-86766885D02*
X142885793Y-87108836D01*
X142885793Y-87108836D02*
X142103037Y-87416829D01*
X142103037Y-87416829D02*
X141303496Y-87689934D01*
X141303496Y-87689934D02*
X140488098Y-87927221D01*
X140488098Y-87927221D02*
X139657770Y-88127763D01*
X139657770Y-88127763D02*
X138813439Y-88290629D01*
X138813439Y-88290629D02*
X137956034Y-88414891D01*
X137956034Y-88414891D02*
X135559021Y-81829363D01*
X135559021Y-81829363D02*
X135641667Y-81830719D01*
X135641667Y-81830719D02*
X135683108Y-81831295D01*
X135683108Y-81831295D02*
X135724583Y-81831532D01*
X135724583Y-81831532D02*
X136337728Y-81816004D01*
X136337728Y-81816004D02*
X136942826Y-81769921D01*
X136942826Y-81769921D02*
X137539128Y-81694033D01*
X137539128Y-81694033D02*
X138125884Y-81589089D01*
X138125884Y-81589089D02*
X138702347Y-81455840D01*
X138702347Y-81455840D02*
X139267767Y-81295034D01*
X139267767Y-81295034D02*
X139821396Y-81107423D01*
X139821396Y-81107423D02*
X140362484Y-80893755D01*
X140362484Y-80893755D02*
X140890284Y-80654782D01*
X140890284Y-80654782D02*
X141404047Y-80391251D01*
X141404047Y-80391251D02*
X141903023Y-80103915D01*
X141903023Y-80103915D02*
X142386463Y-79793522D01*
X142386463Y-79793522D02*
X142853621Y-79460822D01*
X142853621Y-79460822D02*
X143303745Y-79106565D01*
X143303745Y-79106565D02*
X143736089Y-78731501D01*
X143736089Y-78731501D02*
X144149902Y-78336380D01*
X144149902Y-78336380D02*
X144544436Y-77921951D01*
X144544436Y-77921951D02*
X144918944Y-77488965D01*
X144918944Y-77488965D02*
X145272674Y-77038172D01*
X145272674Y-77038172D02*
X145604880Y-76570320D01*
X145604880Y-76570320D02*
X145914813Y-76086161D01*
X145914813Y-76086161D02*
X146201722Y-75586444D01*
X146201722Y-75586444D02*
X146464861Y-75071919D01*
X146464861Y-75071919D02*
X146703479Y-74543336D01*
X146703479Y-74543336D02*
X146916829Y-74001444D01*
X146916829Y-74001444D02*
X147104162Y-73446993D01*
X147104162Y-73446993D02*
X147264728Y-72880734D01*
X147264728Y-72880734D02*
X147397780Y-72303416D01*
X147397780Y-72303416D02*
X147502568Y-71715790D01*
X147502568Y-71715790D02*
X147578343Y-71118604D01*
X147578343Y-71118604D02*
X147624358Y-70512609D01*
X147624358Y-70512609D02*
X147639862Y-69898554D01*
X147639862Y-69898554D02*
X147624358Y-69284468D01*
X147624358Y-69284468D02*
X147578343Y-68678445D01*
X147578343Y-68678445D02*
X147502568Y-68081236D01*
X147502568Y-68081236D02*
X147397780Y-67493588D01*
X147397780Y-67493588D02*
X147264728Y-66916254D01*
X147264728Y-66916254D02*
X147104162Y-66349981D01*
X147104162Y-66349981D02*
X146916829Y-65795520D01*
X146916829Y-65795520D02*
X146703479Y-65253621D01*
X146703479Y-65253621D02*
X146464861Y-64725032D01*
X146464861Y-64725032D02*
X146201722Y-64210505D01*
X146201722Y-64210505D02*
X145914813Y-63710787D01*
X145914813Y-63710787D02*
X145604880Y-63226630D01*
X145604880Y-63226630D02*
X145272674Y-62758782D01*
X145272674Y-62758782D02*
X144918944Y-62307994D01*
X144918944Y-62307994D02*
X144544436Y-61875015D01*
X144544436Y-61875015D02*
X144149902Y-61460594D01*
X144149902Y-61460594D02*
X143736089Y-61065482D01*
X143736089Y-61065482D02*
X143303745Y-60690428D01*
X143303745Y-60690428D02*
X142853621Y-60336182D01*
X142853621Y-60336182D02*
X142386463Y-60003493D01*
X142386463Y-60003493D02*
X141903023Y-59693111D01*
X141903023Y-59693111D02*
X141404047Y-59405785D01*
X141404047Y-59405785D02*
X140890284Y-59142266D01*
X140890284Y-59142266D02*
X140362484Y-58903304D01*
X140362484Y-58903304D02*
X139821396Y-58689646D01*
X139821396Y-58689646D02*
X139267767Y-58502045D01*
X139267767Y-58502045D02*
X138702347Y-58341248D01*
X138702347Y-58341248D02*
X138125884Y-58208006D01*
X138125884Y-58208006D02*
X137539128Y-58103068D01*
X137539128Y-58103068D02*
X136942826Y-58027184D01*
X136942826Y-58027184D02*
X136337728Y-57981104D01*
X136337728Y-57981104D02*
X135724583Y-57965578D01*
X135724583Y-57965578D02*
X135111437Y-57981106D01*
X135111437Y-57981106D02*
X134506339Y-58027188D01*
X134506339Y-58027188D02*
X133910037Y-58103077D01*
X133910037Y-58103077D02*
X133323280Y-58208021D01*
X133323280Y-58208021D02*
X132746817Y-58341270D01*
X132746817Y-58341270D02*
X132181397Y-58502076D01*
X132181397Y-58502076D02*
X131627768Y-58689687D01*
X131627768Y-58689687D02*
X131086680Y-58903354D01*
X131086680Y-58903354D02*
X130558880Y-59142328D01*
X130558880Y-59142328D02*
X130045117Y-59405858D01*
X130045117Y-59405858D02*
X129546141Y-59693195D01*
X129546141Y-59693195D02*
X129062700Y-60003588D01*
X129062700Y-60003588D02*
X128595543Y-60336288D01*
X128595543Y-60336288D02*
X128145418Y-60690545D01*
X128145418Y-60690545D02*
X127713075Y-61065609D01*
X127713075Y-61065609D02*
X127299261Y-61460730D01*
X127299261Y-61460730D02*
X126904727Y-61875158D01*
X126904727Y-61875158D02*
X126530219Y-62308144D01*
X126530219Y-62308144D02*
X126176488Y-62758938D01*
X126176488Y-62758938D02*
X125844283Y-63226789D01*
X125844283Y-63226789D02*
X125534350Y-63710948D01*
X125534350Y-63710948D02*
X125247440Y-64210665D01*
X125247440Y-64210665D02*
X124984302Y-64725190D01*
X124984302Y-64725190D02*
X124745683Y-65253773D01*
X124745683Y-65253773D02*
X124532333Y-65795665D01*
X124532333Y-65795665D02*
X124345001Y-66350115D01*
X124345001Y-66350115D02*
X124184434Y-66916374D01*
X124184434Y-66916374D02*
X124051383Y-67493692D01*
X124051383Y-67493692D02*
X123946595Y-68081319D01*
X123946595Y-68081319D02*
X123870819Y-68678505D01*
X123870819Y-68678505D02*
X123824805Y-69284500D01*
X123824805Y-69284500D02*
X123809300Y-69898554D01*
X123809300Y-69898554D02*
X123824327Y-70503135D01*
X123824327Y-70503135D02*
X123868929Y-71099913D01*
X123868929Y-71099913D02*
X123942394Y-71688174D01*
X123942394Y-71688174D02*
X124044007Y-72267203D01*
X124044007Y-72267203D02*
X124173054Y-72836284D01*
X124173054Y-72836284D02*
X124328821Y-73394701D01*
X124328821Y-73394701D02*
X124510593Y-73941741D01*
X124510593Y-73941741D02*
X124717657Y-74476687D01*
X124717657Y-74476687D02*
X124949297Y-74998824D01*
X124949297Y-74998824D02*
X125204801Y-75507438D01*
X125204801Y-75507438D02*
X125483453Y-76001813D01*
X125483453Y-76001813D02*
X125784540Y-76481234D01*
X125784540Y-76481234D02*
X126107347Y-76944986D01*
X126107347Y-76944986D02*
X126451160Y-77392353D01*
X126451160Y-77392353D02*
X126815266Y-77822621D01*
X126815266Y-77822621D02*
X127198949Y-78235074D01*
X127198949Y-78235074D02*
X127601496Y-78628997D01*
X127601496Y-78628997D02*
X128022192Y-79003674D01*
X128022192Y-79003674D02*
X128460323Y-79358392D01*
X128460323Y-79358392D02*
X128915176Y-79692434D01*
X128915176Y-79692434D02*
X129386035Y-80005085D01*
X129386035Y-80005085D02*
X129872187Y-80295630D01*
X129872187Y-80295630D02*
X130372917Y-80563354D01*
X130372917Y-80563354D02*
X130887512Y-80807542D01*
X130887512Y-80807542D02*
X131415257Y-81027478D01*
X131415257Y-81027478D02*
X131955437Y-81222448D01*
X131955437Y-81222448D02*
X132507340Y-81391736D01*
X132507340Y-81391736D02*
X133070250Y-81534627D01*
X133070250Y-81534627D02*
X133643453Y-81650406D01*
X133643453Y-81650406D02*
X134226235Y-81738357D01*
X134226235Y-81738357D02*
X134817883Y-81797766D01*
X134817883Y-81797766D02*
X135417681Y-81827917D01*
X135417681Y-81827917D02*
X137820835Y-88430802D01*
X137820835Y-88430802D02*
X137559245Y-88458749D01*
X137559245Y-88458749D02*
X137296642Y-88483176D01*
X137296642Y-88483176D02*
X137033031Y-88504019D01*
X137033031Y-88504019D02*
X136768416Y-88521216D01*
X136768416Y-88521216D02*
X136502801Y-88534701D01*
X136502801Y-88534701D02*
X136236191Y-88544413D01*
X136236191Y-88544413D02*
X135968589Y-88550286D01*
X135968589Y-88550286D02*
X135700001Y-88552258D01*
X135700001Y-88552258D02*
X134742492Y-88527988D01*
X134742492Y-88527988D02*
X133797551Y-88455961D01*
X133797551Y-88455961D02*
X132866349Y-88337348D01*
X132866349Y-88337348D02*
X131950053Y-88173321D01*
X131950053Y-88173321D02*
X131049834Y-87965051D01*
X131049834Y-87965051D02*
X130166860Y-87713712D01*
X130166860Y-87713712D02*
X129302301Y-87420474D01*
X129302301Y-87420474D02*
X128457325Y-87086510D01*
X128457325Y-87086510D02*
X127633102Y-86712991D01*
X127633102Y-86712991D02*
X126830802Y-86301090D01*
X126830802Y-86301090D02*
X126051593Y-85851978D01*
X126051593Y-85851978D02*
X125296644Y-85366827D01*
X125296644Y-85366827D02*
X124567125Y-84846809D01*
X124567125Y-84846809D02*
X123864204Y-84293096D01*
X123864204Y-84293096D02*
X123189052Y-83706860D01*
X123189052Y-83706860D02*
X122542837Y-83089273D01*
X122542837Y-83089273D02*
X121926728Y-82441506D01*
X121926728Y-82441506D02*
X121341895Y-81764731D01*
X121341895Y-81764731D02*
X120789507Y-81060121D01*
X120789507Y-81060121D02*
X120270732Y-80328848D01*
X120270732Y-80328848D02*
X119786741Y-79572082D01*
X119786741Y-79572082D02*
X119338701Y-78790997D01*
X119338701Y-78790997D02*
X118927784Y-77986763D01*
X118927784Y-77986763D02*
X118555156Y-77160554D01*
X118555156Y-77160554D02*
X118221989Y-76313540D01*
X118221989Y-76313540D02*
X117929451Y-75446894D01*
X117929451Y-75446894D02*
X117678710Y-74561787D01*
X117678710Y-74561787D02*
X117470938Y-73659392D01*
X117470938Y-73659392D02*
X117307301Y-72740880D01*
X117307301Y-72740880D02*
X117188970Y-71807423D01*
X117188970Y-71807423D02*
X117117115Y-70860193D01*
X117117115Y-70860193D02*
X117092903Y-69900362D01*
X117092903Y-69900362D02*
X117117115Y-68940531D01*
X117117115Y-68940531D02*
X117188970Y-67993302D01*
X117188970Y-67993302D02*
X117307301Y-67059845D01*
X117307301Y-67059845D02*
X117470938Y-66141332D01*
X117470938Y-66141332D02*
X117678710Y-65238937D01*
X117678710Y-65238937D02*
X117929451Y-64353830D01*
X117929451Y-64353830D02*
X118221989Y-63487184D01*
X118221989Y-63487184D02*
X118555156Y-62640170D01*
X118555156Y-62640170D02*
X118927784Y-61813960D01*
X118927784Y-61813960D02*
X119338701Y-61009726D01*
X119338701Y-61009726D02*
X119786741Y-60228641D01*
X119786741Y-60228641D02*
X120270732Y-59471875D01*
X120270732Y-59471875D02*
X120789507Y-58740602D01*
X120789507Y-58740602D02*
X121341895Y-58035992D01*
X121341895Y-58035992D02*
X121926728Y-57359217D01*
X121926728Y-57359217D02*
X122542837Y-56711450D01*
X122542837Y-56711450D02*
X123189052Y-56093863D01*
X123189052Y-56093863D02*
X123864204Y-55507627D01*
X123864204Y-55507627D02*
X124567125Y-54953914D01*
X124567125Y-54953914D02*
X125296644Y-54433896D01*
X125296644Y-54433896D02*
X126051593Y-53948745D01*
X126051593Y-53948745D02*
X126830802Y-53499633D01*
X126830802Y-53499633D02*
X127633102Y-53087731D01*
X127633102Y-53087731D02*
X128457325Y-52714213D01*
X128457325Y-52714213D02*
X129302301Y-52380249D01*
X129302301Y-52380249D02*
X130166860Y-52087011D01*
X130166860Y-52087011D02*
X131049834Y-51835671D01*
X131049834Y-51835671D02*
X131950053Y-51627402D01*
X131950053Y-51627402D02*
X132866349Y-51463375D01*
X132866349Y-51463375D02*
X133797551Y-51344762D01*
X133797551Y-51344762D02*
X134742492Y-51272734D01*
X134742492Y-51272734D02*
X135700001Y-51248465D01*
X135700001Y-51248465D02*
X135700001Y-51247742D01*
X135700001Y-51247742D02*
X135700001Y-51247742D01*
G36*
X136657510Y-51272012D02*
G01*
X137602451Y-51344039D01*
X138533653Y-51462652D01*
X139449949Y-51626679D01*
X140350168Y-51834948D01*
X141233142Y-52086288D01*
X142097702Y-52379526D01*
X142942677Y-52713490D01*
X143766900Y-53087008D01*
X144569200Y-53498910D01*
X145348410Y-53948022D01*
X146103358Y-54433173D01*
X146832878Y-54953191D01*
X147535798Y-55506904D01*
X148210950Y-56093140D01*
X148857165Y-56710727D01*
X149473274Y-57358494D01*
X150058107Y-58035268D01*
X150610495Y-58739878D01*
X151129270Y-59471152D01*
X151613261Y-60227918D01*
X152061300Y-61009003D01*
X152472218Y-61813236D01*
X152844845Y-62639446D01*
X153178012Y-63486460D01*
X153470551Y-64353106D01*
X153721291Y-65238213D01*
X153929064Y-66140608D01*
X154092700Y-67059120D01*
X154211031Y-67992577D01*
X154282887Y-68939807D01*
X154307098Y-69899638D01*
X154286338Y-70788547D01*
X154224675Y-71666729D01*
X154123038Y-72533255D01*
X153982353Y-73387194D01*
X153803549Y-74227619D01*
X153587553Y-75053599D01*
X153335292Y-75864205D01*
X153047695Y-76658508D01*
X152725688Y-77435579D01*
X152370200Y-78194489D01*
X151982158Y-78934308D01*
X151562489Y-79654107D01*
X151112121Y-80352957D01*
X150631982Y-81029929D01*
X150122999Y-81684094D01*
X149586100Y-82314521D01*
X149022213Y-82920282D01*
X148432264Y-83500448D01*
X147817183Y-84054090D01*
X147177895Y-84580277D01*
X146515329Y-85078082D01*
X145830413Y-85546574D01*
X145124074Y-85984825D01*
X144397239Y-86391905D01*
X143650836Y-86766885D01*
X142885793Y-87108836D01*
X142103037Y-87416829D01*
X141303496Y-87689934D01*
X140488098Y-87927221D01*
X139657770Y-88127763D01*
X138813439Y-88290629D01*
X137956034Y-88414891D01*
X135559021Y-81829363D01*
X135641667Y-81830719D01*
X135683108Y-81831295D01*
X135724583Y-81831532D01*
X136337728Y-81816004D01*
X136942826Y-81769921D01*
X137539128Y-81694033D01*
X138125884Y-81589089D01*
X138702347Y-81455840D01*
X139267767Y-81295034D01*
X139821396Y-81107423D01*
X140362484Y-80893755D01*
X140890284Y-80654782D01*
X141404047Y-80391251D01*
X141903023Y-80103915D01*
X142386463Y-79793522D01*
X142853621Y-79460822D01*
X143303745Y-79106565D01*
X143736089Y-78731501D01*
X144149902Y-78336380D01*
X144544436Y-77921951D01*
X144918944Y-77488965D01*
X145272674Y-77038172D01*
X145604880Y-76570320D01*
X145914813Y-76086161D01*
X146201722Y-75586444D01*
X146464861Y-75071919D01*
X146703479Y-74543336D01*
X146916829Y-74001444D01*
X147104162Y-73446993D01*
X147264728Y-72880734D01*
X147397780Y-72303416D01*
X147502568Y-71715790D01*
X147578343Y-71118604D01*
X147624358Y-70512609D01*
X147639862Y-69898554D01*
X147624358Y-69284468D01*
X147578343Y-68678445D01*
X147502568Y-68081236D01*
X147397780Y-67493588D01*
X147264728Y-66916254D01*
X147104162Y-66349981D01*
X146916829Y-65795520D01*
X146703479Y-65253621D01*
X146464861Y-64725032D01*
X146201722Y-64210505D01*
X145914813Y-63710787D01*
X145604880Y-63226630D01*
X145272674Y-62758782D01*
X144918944Y-62307994D01*
X144544436Y-61875015D01*
X144149902Y-61460594D01*
X143736089Y-61065482D01*
X143303745Y-60690428D01*
X142853621Y-60336182D01*
X142386463Y-60003493D01*
X141903023Y-59693111D01*
X141404047Y-59405785D01*
X140890284Y-59142266D01*
X140362484Y-58903304D01*
X139821396Y-58689646D01*
X139267767Y-58502045D01*
X138702347Y-58341248D01*
X138125884Y-58208006D01*
X137539128Y-58103068D01*
X136942826Y-58027184D01*
X136337728Y-57981104D01*
X135724583Y-57965578D01*
X135111437Y-57981106D01*
X134506339Y-58027188D01*
X133910037Y-58103077D01*
X133323280Y-58208021D01*
X132746817Y-58341270D01*
X132181397Y-58502076D01*
X131627768Y-58689687D01*
X131086680Y-58903354D01*
X130558880Y-59142328D01*
X130045117Y-59405858D01*
X129546141Y-59693195D01*
X129062700Y-60003588D01*
X128595543Y-60336288D01*
X128145418Y-60690545D01*
X127713075Y-61065609D01*
X127299261Y-61460730D01*
X126904727Y-61875158D01*
X126530219Y-62308144D01*
X126176488Y-62758938D01*
X125844283Y-63226789D01*
X125534350Y-63710948D01*
X125247440Y-64210665D01*
X124984302Y-64725190D01*
X124745683Y-65253773D01*
X124532333Y-65795665D01*
X124345001Y-66350115D01*
X124184434Y-66916374D01*
X124051383Y-67493692D01*
X123946595Y-68081319D01*
X123870819Y-68678505D01*
X123824805Y-69284500D01*
X123809300Y-69898554D01*
X123824327Y-70503135D01*
X123868929Y-71099913D01*
X123942394Y-71688174D01*
X124044007Y-72267203D01*
X124173054Y-72836284D01*
X124328821Y-73394701D01*
X124510593Y-73941741D01*
X124717657Y-74476687D01*
X124949297Y-74998824D01*
X125204801Y-75507438D01*
X125483453Y-76001813D01*
X125784540Y-76481234D01*
X126107347Y-76944986D01*
X126451160Y-77392353D01*
X126815266Y-77822621D01*
X127198949Y-78235074D01*
X127601496Y-78628997D01*
X128022192Y-79003674D01*
X128460323Y-79358392D01*
X128915176Y-79692434D01*
X129386035Y-80005085D01*
X129872187Y-80295630D01*
X130372917Y-80563354D01*
X130887512Y-80807542D01*
X131415257Y-81027478D01*
X131955437Y-81222448D01*
X132507340Y-81391736D01*
X133070250Y-81534627D01*
X133643453Y-81650406D01*
X134226235Y-81738357D01*
X134817883Y-81797766D01*
X135417681Y-81827917D01*
X137820835Y-88430802D01*
X137559245Y-88458749D01*
X137296642Y-88483176D01*
X137033031Y-88504019D01*
X136768416Y-88521216D01*
X136502801Y-88534701D01*
X136236191Y-88544413D01*
X135968589Y-88550286D01*
X135700001Y-88552258D01*
X134742492Y-88527988D01*
X133797551Y-88455961D01*
X132866349Y-88337348D01*
X131950053Y-88173321D01*
X131049834Y-87965051D01*
X130166860Y-87713712D01*
X129302301Y-87420474D01*
X128457325Y-87086510D01*
X127633102Y-86712991D01*
X126830802Y-86301090D01*
X126051593Y-85851978D01*
X125296644Y-85366827D01*
X124567125Y-84846809D01*
X123864204Y-84293096D01*
X123189052Y-83706860D01*
X122542837Y-83089273D01*
X121926728Y-82441506D01*
X121341895Y-81764731D01*
X120789507Y-81060121D01*
X120270732Y-80328848D01*
X119786741Y-79572082D01*
X119338701Y-78790997D01*
X118927784Y-77986763D01*
X118555156Y-77160554D01*
X118221989Y-76313540D01*
X117929451Y-75446894D01*
X117678710Y-74561787D01*
X117470938Y-73659392D01*
X117307301Y-72740880D01*
X117188970Y-71807423D01*
X117117115Y-70860193D01*
X117092903Y-69900362D01*
X117117115Y-68940531D01*
X117188970Y-67993302D01*
X117307301Y-67059845D01*
X117470938Y-66141332D01*
X117678710Y-65238937D01*
X117929451Y-64353830D01*
X118221989Y-63487184D01*
X118555156Y-62640170D01*
X118927784Y-61813960D01*
X119338701Y-61009726D01*
X119786741Y-60228641D01*
X120270732Y-59471875D01*
X120789507Y-58740602D01*
X121341895Y-58035992D01*
X121926728Y-57359217D01*
X122542837Y-56711450D01*
X123189052Y-56093863D01*
X123864204Y-55507627D01*
X124567125Y-54953914D01*
X125296644Y-54433896D01*
X126051593Y-53948745D01*
X126830802Y-53499633D01*
X127633102Y-53087731D01*
X128457325Y-52714213D01*
X129302301Y-52380249D01*
X130166860Y-52087011D01*
X131049834Y-51835671D01*
X131950053Y-51627402D01*
X132866349Y-51463375D01*
X133797551Y-51344762D01*
X134742492Y-51272734D01*
X135700001Y-51248465D01*
X135700001Y-51247742D01*
X136657510Y-51272012D01*
G37*
X136657510Y-51272012D02*
X137602451Y-51344039D01*
X138533653Y-51462652D01*
X139449949Y-51626679D01*
X140350168Y-51834948D01*
X141233142Y-52086288D01*
X142097702Y-52379526D01*
X142942677Y-52713490D01*
X143766900Y-53087008D01*
X144569200Y-53498910D01*
X145348410Y-53948022D01*
X146103358Y-54433173D01*
X146832878Y-54953191D01*
X147535798Y-55506904D01*
X148210950Y-56093140D01*
X148857165Y-56710727D01*
X149473274Y-57358494D01*
X150058107Y-58035268D01*
X150610495Y-58739878D01*
X151129270Y-59471152D01*
X151613261Y-60227918D01*
X152061300Y-61009003D01*
X152472218Y-61813236D01*
X152844845Y-62639446D01*
X153178012Y-63486460D01*
X153470551Y-64353106D01*
X153721291Y-65238213D01*
X153929064Y-66140608D01*
X154092700Y-67059120D01*
X154211031Y-67992577D01*
X154282887Y-68939807D01*
X154307098Y-69899638D01*
X154286338Y-70788547D01*
X154224675Y-71666729D01*
X154123038Y-72533255D01*
X153982353Y-73387194D01*
X153803549Y-74227619D01*
X153587553Y-75053599D01*
X153335292Y-75864205D01*
X153047695Y-76658508D01*
X152725688Y-77435579D01*
X152370200Y-78194489D01*
X151982158Y-78934308D01*
X151562489Y-79654107D01*
X151112121Y-80352957D01*
X150631982Y-81029929D01*
X150122999Y-81684094D01*
X149586100Y-82314521D01*
X149022213Y-82920282D01*
X148432264Y-83500448D01*
X147817183Y-84054090D01*
X147177895Y-84580277D01*
X146515329Y-85078082D01*
X145830413Y-85546574D01*
X145124074Y-85984825D01*
X144397239Y-86391905D01*
X143650836Y-86766885D01*
X142885793Y-87108836D01*
X142103037Y-87416829D01*
X141303496Y-87689934D01*
X140488098Y-87927221D01*
X139657770Y-88127763D01*
X138813439Y-88290629D01*
X137956034Y-88414891D01*
X135559021Y-81829363D01*
X135641667Y-81830719D01*
X135683108Y-81831295D01*
X135724583Y-81831532D01*
X136337728Y-81816004D01*
X136942826Y-81769921D01*
X137539128Y-81694033D01*
X138125884Y-81589089D01*
X138702347Y-81455840D01*
X139267767Y-81295034D01*
X139821396Y-81107423D01*
X140362484Y-80893755D01*
X140890284Y-80654782D01*
X141404047Y-80391251D01*
X141903023Y-80103915D01*
X142386463Y-79793522D01*
X142853621Y-79460822D01*
X143303745Y-79106565D01*
X143736089Y-78731501D01*
X144149902Y-78336380D01*
X144544436Y-77921951D01*
X144918944Y-77488965D01*
X145272674Y-77038172D01*
X145604880Y-76570320D01*
X145914813Y-76086161D01*
X146201722Y-75586444D01*
X146464861Y-75071919D01*
X146703479Y-74543336D01*
X146916829Y-74001444D01*
X147104162Y-73446993D01*
X147264728Y-72880734D01*
X147397780Y-72303416D01*
X147502568Y-71715790D01*
X147578343Y-71118604D01*
X147624358Y-70512609D01*
X147639862Y-69898554D01*
X147624358Y-69284468D01*
X147578343Y-68678445D01*
X147502568Y-68081236D01*
X147397780Y-67493588D01*
X147264728Y-66916254D01*
X147104162Y-66349981D01*
X146916829Y-65795520D01*
X146703479Y-65253621D01*
X146464861Y-64725032D01*
X146201722Y-64210505D01*
X145914813Y-63710787D01*
X145604880Y-63226630D01*
X145272674Y-62758782D01*
X144918944Y-62307994D01*
X144544436Y-61875015D01*
X144149902Y-61460594D01*
X143736089Y-61065482D01*
X143303745Y-60690428D01*
X142853621Y-60336182D01*
X142386463Y-60003493D01*
X141903023Y-59693111D01*
X141404047Y-59405785D01*
X140890284Y-59142266D01*
X140362484Y-58903304D01*
X139821396Y-58689646D01*
X139267767Y-58502045D01*
X138702347Y-58341248D01*
X138125884Y-58208006D01*
X137539128Y-58103068D01*
X136942826Y-58027184D01*
X136337728Y-57981104D01*
X135724583Y-57965578D01*
X135111437Y-57981106D01*
X134506339Y-58027188D01*
X133910037Y-58103077D01*
X133323280Y-58208021D01*
X132746817Y-58341270D01*
X132181397Y-58502076D01*
X131627768Y-58689687D01*
X131086680Y-58903354D01*
X130558880Y-59142328D01*
X130045117Y-59405858D01*
X129546141Y-59693195D01*
X129062700Y-60003588D01*
X128595543Y-60336288D01*
X128145418Y-60690545D01*
X127713075Y-61065609D01*
X127299261Y-61460730D01*
X126904727Y-61875158D01*
X126530219Y-62308144D01*
X126176488Y-62758938D01*
X125844283Y-63226789D01*
X125534350Y-63710948D01*
X125247440Y-64210665D01*
X124984302Y-64725190D01*
X124745683Y-65253773D01*
X124532333Y-65795665D01*
X124345001Y-66350115D01*
X124184434Y-66916374D01*
X124051383Y-67493692D01*
X123946595Y-68081319D01*
X123870819Y-68678505D01*
X123824805Y-69284500D01*
X123809300Y-69898554D01*
X123824327Y-70503135D01*
X123868929Y-71099913D01*
X123942394Y-71688174D01*
X124044007Y-72267203D01*
X124173054Y-72836284D01*
X124328821Y-73394701D01*
X124510593Y-73941741D01*
X124717657Y-74476687D01*
X124949297Y-74998824D01*
X125204801Y-75507438D01*
X125483453Y-76001813D01*
X125784540Y-76481234D01*
X126107347Y-76944986D01*
X126451160Y-77392353D01*
X126815266Y-77822621D01*
X127198949Y-78235074D01*
X127601496Y-78628997D01*
X128022192Y-79003674D01*
X128460323Y-79358392D01*
X128915176Y-79692434D01*
X129386035Y-80005085D01*
X129872187Y-80295630D01*
X130372917Y-80563354D01*
X130887512Y-80807542D01*
X131415257Y-81027478D01*
X131955437Y-81222448D01*
X132507340Y-81391736D01*
X133070250Y-81534627D01*
X133643453Y-81650406D01*
X134226235Y-81738357D01*
X134817883Y-81797766D01*
X135417681Y-81827917D01*
X137820835Y-88430802D01*
X137559245Y-88458749D01*
X137296642Y-88483176D01*
X137033031Y-88504019D01*
X136768416Y-88521216D01*
X136502801Y-88534701D01*
X136236191Y-88544413D01*
X135968589Y-88550286D01*
X135700001Y-88552258D01*
X134742492Y-88527988D01*
X133797551Y-88455961D01*
X132866349Y-88337348D01*
X131950053Y-88173321D01*
X131049834Y-87965051D01*
X130166860Y-87713712D01*
X129302301Y-87420474D01*
X128457325Y-87086510D01*
X127633102Y-86712991D01*
X126830802Y-86301090D01*
X126051593Y-85851978D01*
X125296644Y-85366827D01*
X124567125Y-84846809D01*
X123864204Y-84293096D01*
X123189052Y-83706860D01*
X122542837Y-83089273D01*
X121926728Y-82441506D01*
X121341895Y-81764731D01*
X120789507Y-81060121D01*
X120270732Y-80328848D01*
X119786741Y-79572082D01*
X119338701Y-78790997D01*
X118927784Y-77986763D01*
X118555156Y-77160554D01*
X118221989Y-76313540D01*
X117929451Y-75446894D01*
X117678710Y-74561787D01*
X117470938Y-73659392D01*
X117307301Y-72740880D01*
X117188970Y-71807423D01*
X117117115Y-70860193D01*
X117092903Y-69900362D01*
X117117115Y-68940531D01*
X117188970Y-67993302D01*
X117307301Y-67059845D01*
X117470938Y-66141332D01*
X117678710Y-65238937D01*
X117929451Y-64353830D01*
X118221989Y-63487184D01*
X118555156Y-62640170D01*
X118927784Y-61813960D01*
X119338701Y-61009726D01*
X119786741Y-60228641D01*
X120270732Y-59471875D01*
X120789507Y-58740602D01*
X121341895Y-58035992D01*
X121926728Y-57359217D01*
X122542837Y-56711450D01*
X123189052Y-56093863D01*
X123864204Y-55507627D01*
X124567125Y-54953914D01*
X125296644Y-54433896D01*
X126051593Y-53948745D01*
X126830802Y-53499633D01*
X127633102Y-53087731D01*
X128457325Y-52714213D01*
X129302301Y-52380249D01*
X130166860Y-52087011D01*
X131049834Y-51835671D01*
X131950053Y-51627402D01*
X132866349Y-51463375D01*
X133797551Y-51344762D01*
X134742492Y-51272734D01*
X135700001Y-51248465D01*
X135700001Y-51247742D01*
X136657510Y-51272012D01*
D11*
X144275000Y-83756699D03*
M02*
