%FSLAX45Y45*%
G04 Gerber Fmt 4.5, Leading zero omitted, Abs format (unit mm)*
G04 Created by KiCad (PCBNEW (6.0.1)) date 2022-07-24 11:11:30*
%MOMM*%
%LPD*%
G01*
G04 APERTURE LIST*
%TA.AperFunction,Profile*%
%ADD10C,0.050000*%
%TD*%
%TA.AperFunction,Profile*%
%ADD11C,0.100000*%
%TD*%
%ADD12C,0.200000*%
G04 APERTURE END LIST*
D10*
X15430000Y-6990000D02*
G75*
G03*
X15430000Y-6990000I-1860000J0D01*
G01*
D11*
X14090000Y-6990000D02*
G75*
G03*
X14090000Y-6990000I-520000J0D01*
G01*
D12*
X11965119Y-9162976D02*
X11965119Y-8962976D01*
X12012738Y-8962976D01*
X12041309Y-8972500D01*
X12060357Y-8991548D01*
X12069881Y-9010595D01*
X12079405Y-9048690D01*
X12079405Y-9077262D01*
X12069881Y-9115357D01*
X12060357Y-9134405D01*
X12041309Y-9153452D01*
X12012738Y-9162976D01*
X11965119Y-9162976D01*
X12165119Y-9162976D02*
X12165119Y-9029643D01*
X12165119Y-9067738D02*
X12174643Y-9048690D01*
X12184167Y-9039167D01*
X12203214Y-9029643D01*
X12222262Y-9029643D01*
X12288928Y-9162976D02*
X12288928Y-9029643D01*
X12288928Y-8962976D02*
X12279405Y-8972500D01*
X12288928Y-8982024D01*
X12298452Y-8972500D01*
X12288928Y-8962976D01*
X12288928Y-8982024D01*
X12412738Y-9162976D02*
X12393690Y-9153452D01*
X12384167Y-9134405D01*
X12384167Y-8962976D01*
X12517500Y-9162976D02*
X12498452Y-9153452D01*
X12488928Y-9134405D01*
X12488928Y-8962976D01*
X12746071Y-9162976D02*
X12746071Y-8962976D01*
X12812738Y-9105833D01*
X12879405Y-8962976D01*
X12879405Y-9162976D01*
X13060357Y-9162976D02*
X13060357Y-9058214D01*
X13050833Y-9039167D01*
X13031786Y-9029643D01*
X12993690Y-9029643D01*
X12974643Y-9039167D01*
X13060357Y-9153452D02*
X13041309Y-9162976D01*
X12993690Y-9162976D01*
X12974643Y-9153452D01*
X12965119Y-9134405D01*
X12965119Y-9115357D01*
X12974643Y-9096310D01*
X12993690Y-9086786D01*
X13041309Y-9086786D01*
X13060357Y-9077262D01*
X13155595Y-9029643D02*
X13155595Y-9229643D01*
X13155595Y-9039167D02*
X13174643Y-9029643D01*
X13212738Y-9029643D01*
X13231786Y-9039167D01*
X13241309Y-9048690D01*
X13250833Y-9067738D01*
X13250833Y-9124881D01*
X13241309Y-9143929D01*
X13231786Y-9153452D01*
X13212738Y-9162976D01*
X13174643Y-9162976D01*
X13155595Y-9153452D01*
X13336548Y-9143929D02*
X13346071Y-9153452D01*
X13336548Y-9162976D01*
X13327024Y-9153452D01*
X13336548Y-9143929D01*
X13336548Y-9162976D01*
X13336548Y-9039167D02*
X13346071Y-9048690D01*
X13336548Y-9058214D01*
X13327024Y-9048690D01*
X13336548Y-9039167D01*
X13336548Y-9058214D01*
M02*
