%TF.GenerationSoftware,KiCad,Pcbnew,(6.0.1)*%
%TF.CreationDate,2022-09-01T16:14:04+08:00*%
%TF.ProjectId,CRVisionJoystickMerge,43525669-7369-46f6-9e4a-6f7973746963,rev?*%
%TF.SameCoordinates,Original*%
%TF.FileFunction,Soldermask,Bot*%
%TF.FilePolarity,Negative*%
%FSLAX46Y46*%
G04 Gerber Fmt 4.6, Leading zero omitted, Abs format (unit mm)*
G04 Created by KiCad (PCBNEW (6.0.1)) date 2022-09-01 16:14:04*
%MOMM*%
%LPD*%
G01*
G04 APERTURE LIST*
G04 Aperture macros list*
%AMHorizOval*
0 Thick line with rounded ends*
0 $1 width*
0 $2 $3 position (X,Y) of the first rounded end (center of the circle)*
0 $4 $5 position (X,Y) of the second rounded end (center of the circle)*
0 Add line between two ends*
20,1,$1,$2,$3,$4,$5,0*
0 Add two circle primitives to create the rounded ends*
1,1,$1,$2,$3*
1,1,$1,$4,$5*%
G04 Aperture macros list end*
%ADD10R,1.700000X1.700000*%
%ADD11O,1.700000X1.700000*%
%ADD12O,1.200000X3.000000*%
%ADD13R,1.000000X1.000000*%
%ADD14O,1.000000X1.000000*%
%ADD15HorizOval,1.200000X-0.450000X0.779423X0.450000X-0.779423X0*%
G04 APERTURE END LIST*
D10*
X87682000Y-70280000D03*
D11*
X87682000Y-67740000D03*
D10*
X173118000Y-83220000D03*
D11*
X173118000Y-85760000D03*
D10*
X124350000Y-88046000D03*
D11*
X124350000Y-90586000D03*
D10*
X136450000Y-65454000D03*
D11*
X136450000Y-62914000D03*
D12*
X110060000Y-81650000D03*
X107520000Y-81650000D03*
X104980000Y-81650000D03*
X102440000Y-81650000D03*
X99900000Y-81650000D03*
X97360000Y-81650000D03*
X94820000Y-81650000D03*
X92280000Y-81650000D03*
X89740000Y-81650000D03*
X87200000Y-81650000D03*
D13*
X141612000Y-120050000D03*
D14*
X142882000Y-120050000D03*
X144152000Y-120050000D03*
X145422000Y-120050000D03*
X146692000Y-120050000D03*
D15*
X87496052Y-112403559D03*
D13*
X152544000Y-120050000D03*
D14*
X153814000Y-120050000D03*
X155084000Y-120050000D03*
X156354000Y-120050000D03*
X157624000Y-120050000D03*
D12*
X150740000Y-71850000D03*
X153280000Y-71850000D03*
X155820000Y-71850000D03*
X158360000Y-71850000D03*
X160900000Y-71850000D03*
X163440000Y-71850000D03*
X165980000Y-71850000D03*
X168520000Y-71850000D03*
X171060000Y-71850000D03*
X173600000Y-71850000D03*
D13*
X108256000Y-33450000D03*
D14*
X106986000Y-33450000D03*
X105716000Y-33450000D03*
X104446000Y-33450000D03*
X103176000Y-33450000D03*
D12*
X173880000Y-96732000D03*
D15*
X173303948Y-41096441D03*
D13*
X119188000Y-33450000D03*
D14*
X117918000Y-33450000D03*
X116648000Y-33450000D03*
X115378000Y-33450000D03*
X114108000Y-33450000D03*
D12*
X86920000Y-56768000D03*
M02*
