%TF.GenerationSoftware,KiCad,Pcbnew,(6.0.1)*%
%TF.CreationDate,2022-09-01T16:14:04+08:00*%
%TF.ProjectId,CRVisionJoystickMerge,43525669-7369-46f6-9e4a-6f7973746963,rev?*%
%TF.SameCoordinates,Original*%
%TF.FileFunction,Soldermask,Top*%
%TF.FilePolarity,Negative*%
%FSLAX46Y46*%
G04 Gerber Fmt 4.6, Leading zero omitted, Abs format (unit mm)*
G04 Created by KiCad (PCBNEW (6.0.1)) date 2022-09-01 16:14:04*
%MOMM*%
%LPD*%
G01*
G04 APERTURE LIST*
G04 Aperture macros list*
%AMHorizOval*
0 Thick line with rounded ends*
0 $1 width*
0 $2 $3 position (X,Y) of the first rounded end (center of the circle)*
0 $4 $5 position (X,Y) of the second rounded end (center of the circle)*
0 Add line between two ends*
20,1,$1,$2,$3,$4,$5,0*
0 Add two circle primitives to create the rounded ends*
1,1,$1,$2,$3*
1,1,$1,$4,$5*%
G04 Aperture macros list end*
%ADD10C,0.036148*%
%ADD11R,1.700000X1.700000*%
%ADD12O,1.700000X1.700000*%
%ADD13O,1.200000X3.000000*%
%ADD14R,1.000000X1.000000*%
%ADD15O,1.000000X1.000000*%
%ADD16HorizOval,1.200000X-0.450000X0.779423X0.450000X-0.779423X0*%
G04 APERTURE END LIST*
D10*
X102189051Y-122159118D02*
X101231542Y-122134848D01*
X101231542Y-122134848D02*
X100286601Y-122062821D01*
X100286601Y-122062821D02*
X99355399Y-121944208D01*
X99355399Y-121944208D02*
X98439103Y-121780181D01*
X98439103Y-121780181D02*
X97538884Y-121571912D01*
X97538884Y-121571912D02*
X96655910Y-121320572D01*
X96655910Y-121320572D02*
X95791350Y-121027334D01*
X95791350Y-121027334D02*
X94946375Y-120693370D01*
X94946375Y-120693370D02*
X94122152Y-120319852D01*
X94122152Y-120319852D02*
X93319852Y-119907950D01*
X93319852Y-119907950D02*
X92540642Y-119458838D01*
X92540642Y-119458838D02*
X91785694Y-118973687D01*
X91785694Y-118973687D02*
X91056174Y-118453669D01*
X91056174Y-118453669D02*
X90353254Y-117899956D01*
X90353254Y-117899956D02*
X89678102Y-117313720D01*
X89678102Y-117313720D02*
X89031887Y-116696133D01*
X89031887Y-116696133D02*
X88415778Y-116048366D01*
X88415778Y-116048366D02*
X87830945Y-115371592D01*
X87830945Y-115371592D02*
X87278557Y-114666982D01*
X87278557Y-114666982D02*
X86759782Y-113935708D01*
X86759782Y-113935708D02*
X86275791Y-113178942D01*
X86275791Y-113178942D02*
X85827752Y-112397857D01*
X85827752Y-112397857D02*
X85416834Y-111593624D01*
X85416834Y-111593624D02*
X85044207Y-110767414D01*
X85044207Y-110767414D02*
X84711040Y-109920400D01*
X84711040Y-109920400D02*
X84418501Y-109053754D01*
X84418501Y-109053754D02*
X84167761Y-108168647D01*
X84167761Y-108168647D02*
X83959988Y-107266252D01*
X83959988Y-107266252D02*
X83796352Y-106347740D01*
X83796352Y-106347740D02*
X83678021Y-105414283D01*
X83678021Y-105414283D02*
X83606165Y-104467053D01*
X83606165Y-104467053D02*
X83581954Y-103507222D01*
X83581954Y-103507222D02*
X83602714Y-102618313D01*
X83602714Y-102618313D02*
X83664377Y-101740131D01*
X83664377Y-101740131D02*
X83766014Y-100873605D01*
X83766014Y-100873605D02*
X83906699Y-100019666D01*
X83906699Y-100019666D02*
X84085503Y-99179241D01*
X84085503Y-99179241D02*
X84301499Y-98353261D01*
X84301499Y-98353261D02*
X84553760Y-97542655D01*
X84553760Y-97542655D02*
X84841357Y-96748352D01*
X84841357Y-96748352D02*
X85163364Y-95971281D01*
X85163364Y-95971281D02*
X85518852Y-95212371D01*
X85518852Y-95212371D02*
X85906894Y-94472552D01*
X85906894Y-94472552D02*
X86326563Y-93752753D01*
X86326563Y-93752753D02*
X86776931Y-93053903D01*
X86776931Y-93053903D02*
X87257070Y-92376931D01*
X87257070Y-92376931D02*
X87766053Y-91722766D01*
X87766053Y-91722766D02*
X88302952Y-91092339D01*
X88302952Y-91092339D02*
X88866839Y-90486578D01*
X88866839Y-90486578D02*
X89456788Y-89906412D01*
X89456788Y-89906412D02*
X90071869Y-89352770D01*
X90071869Y-89352770D02*
X90711157Y-88826583D01*
X90711157Y-88826583D02*
X91373723Y-88328778D01*
X91373723Y-88328778D02*
X92058639Y-87860286D01*
X92058639Y-87860286D02*
X92764978Y-87422035D01*
X92764978Y-87422035D02*
X93491813Y-87014955D01*
X93491813Y-87014955D02*
X94238216Y-86639975D01*
X94238216Y-86639975D02*
X95003259Y-86298024D01*
X95003259Y-86298024D02*
X95786015Y-85990031D01*
X95786015Y-85990031D02*
X96585556Y-85716926D01*
X96585556Y-85716926D02*
X97400954Y-85479639D01*
X97400954Y-85479639D02*
X98231282Y-85279097D01*
X98231282Y-85279097D02*
X99075613Y-85116231D01*
X99075613Y-85116231D02*
X99933018Y-84991969D01*
X99933018Y-84991969D02*
X102330031Y-91577497D01*
X102330031Y-91577497D02*
X102247385Y-91576141D01*
X102247385Y-91576141D02*
X102205944Y-91575565D01*
X102205944Y-91575565D02*
X102164469Y-91575328D01*
X102164469Y-91575328D02*
X101551324Y-91590856D01*
X101551324Y-91590856D02*
X100946226Y-91636939D01*
X100946226Y-91636939D02*
X100349924Y-91712827D01*
X100349924Y-91712827D02*
X99763168Y-91817771D01*
X99763168Y-91817771D02*
X99186705Y-91951020D01*
X99186705Y-91951020D02*
X98621285Y-92111826D01*
X98621285Y-92111826D02*
X98067656Y-92299437D01*
X98067656Y-92299437D02*
X97526568Y-92513105D01*
X97526568Y-92513105D02*
X96998768Y-92752078D01*
X96998768Y-92752078D02*
X96485005Y-93015609D01*
X96485005Y-93015609D02*
X95986029Y-93302945D01*
X95986029Y-93302945D02*
X95502589Y-93613338D01*
X95502589Y-93613338D02*
X95035431Y-93946038D01*
X95035431Y-93946038D02*
X94585307Y-94300295D01*
X94585307Y-94300295D02*
X94152963Y-94675359D01*
X94152963Y-94675359D02*
X93739150Y-95070480D01*
X93739150Y-95070480D02*
X93344616Y-95484909D01*
X93344616Y-95484909D02*
X92970108Y-95917895D01*
X92970108Y-95917895D02*
X92616378Y-96368688D01*
X92616378Y-96368688D02*
X92284172Y-96836540D01*
X92284172Y-96836540D02*
X91974239Y-97320699D01*
X91974239Y-97320699D02*
X91687330Y-97820416D01*
X91687330Y-97820416D02*
X91424191Y-98334941D01*
X91424191Y-98334941D02*
X91185573Y-98863524D01*
X91185573Y-98863524D02*
X90972223Y-99405416D01*
X90972223Y-99405416D02*
X90784890Y-99959867D01*
X90784890Y-99959867D02*
X90624324Y-100526126D01*
X90624324Y-100526126D02*
X90491272Y-101103444D01*
X90491272Y-101103444D02*
X90386484Y-101691070D01*
X90386484Y-101691070D02*
X90310709Y-102288256D01*
X90310709Y-102288256D02*
X90264694Y-102894251D01*
X90264694Y-102894251D02*
X90249190Y-103508306D01*
X90249190Y-103508306D02*
X90264694Y-104122392D01*
X90264694Y-104122392D02*
X90310709Y-104728415D01*
X90310709Y-104728415D02*
X90386484Y-105325624D01*
X90386484Y-105325624D02*
X90491272Y-105913272D01*
X90491272Y-105913272D02*
X90624324Y-106490606D01*
X90624324Y-106490606D02*
X90784890Y-107056879D01*
X90784890Y-107056879D02*
X90972223Y-107611340D01*
X90972223Y-107611340D02*
X91185573Y-108153239D01*
X91185573Y-108153239D02*
X91424191Y-108681828D01*
X91424191Y-108681828D02*
X91687330Y-109196355D01*
X91687330Y-109196355D02*
X91974239Y-109696073D01*
X91974239Y-109696073D02*
X92284172Y-110180230D01*
X92284172Y-110180230D02*
X92616378Y-110648078D01*
X92616378Y-110648078D02*
X92970108Y-111098866D01*
X92970108Y-111098866D02*
X93344616Y-111531845D01*
X93344616Y-111531845D02*
X93739150Y-111946266D01*
X93739150Y-111946266D02*
X94152963Y-112341378D01*
X94152963Y-112341378D02*
X94585307Y-112716432D01*
X94585307Y-112716432D02*
X95035431Y-113070678D01*
X95035431Y-113070678D02*
X95502589Y-113403367D01*
X95502589Y-113403367D02*
X95986029Y-113713749D01*
X95986029Y-113713749D02*
X96485005Y-114001075D01*
X96485005Y-114001075D02*
X96998768Y-114264594D01*
X96998768Y-114264594D02*
X97526568Y-114503556D01*
X97526568Y-114503556D02*
X98067656Y-114717214D01*
X98067656Y-114717214D02*
X98621285Y-114904815D01*
X98621285Y-114904815D02*
X99186705Y-115065612D01*
X99186705Y-115065612D02*
X99763168Y-115198854D01*
X99763168Y-115198854D02*
X100349924Y-115303792D01*
X100349924Y-115303792D02*
X100946226Y-115379676D01*
X100946226Y-115379676D02*
X101551324Y-115425756D01*
X101551324Y-115425756D02*
X102164469Y-115441282D01*
X102164469Y-115441282D02*
X102777615Y-115425754D01*
X102777615Y-115425754D02*
X103382713Y-115379672D01*
X103382713Y-115379672D02*
X103979015Y-115303783D01*
X103979015Y-115303783D02*
X104565772Y-115198839D01*
X104565772Y-115198839D02*
X105142235Y-115065590D01*
X105142235Y-115065590D02*
X105707655Y-114904784D01*
X105707655Y-114904784D02*
X106261284Y-114717173D01*
X106261284Y-114717173D02*
X106802372Y-114503506D01*
X106802372Y-114503506D02*
X107330172Y-114264532D01*
X107330172Y-114264532D02*
X107843935Y-114001002D01*
X107843935Y-114001002D02*
X108342911Y-113713665D01*
X108342911Y-113713665D02*
X108826352Y-113403272D01*
X108826352Y-113403272D02*
X109293509Y-113070572D01*
X109293509Y-113070572D02*
X109743634Y-112716315D01*
X109743634Y-112716315D02*
X110175977Y-112341251D01*
X110175977Y-112341251D02*
X110589791Y-111946130D01*
X110589791Y-111946130D02*
X110984325Y-111531702D01*
X110984325Y-111531702D02*
X111358833Y-111098716D01*
X111358833Y-111098716D02*
X111712564Y-110647922D01*
X111712564Y-110647922D02*
X112044769Y-110180071D01*
X112044769Y-110180071D02*
X112354702Y-109695912D01*
X112354702Y-109695912D02*
X112641612Y-109196195D01*
X112641612Y-109196195D02*
X112904750Y-108681670D01*
X112904750Y-108681670D02*
X113143369Y-108153087D01*
X113143369Y-108153087D02*
X113356719Y-107611195D01*
X113356719Y-107611195D02*
X113544051Y-107056745D01*
X113544051Y-107056745D02*
X113704618Y-106490486D01*
X113704618Y-106490486D02*
X113837669Y-105913168D01*
X113837669Y-105913168D02*
X113942457Y-105325541D01*
X113942457Y-105325541D02*
X114018233Y-104728355D01*
X114018233Y-104728355D02*
X114064247Y-104122360D01*
X114064247Y-104122360D02*
X114079752Y-103508306D01*
X114079752Y-103508306D02*
X114064725Y-102903725D01*
X114064725Y-102903725D02*
X114020123Y-102306947D01*
X114020123Y-102306947D02*
X113946658Y-101718686D01*
X113946658Y-101718686D02*
X113845045Y-101139657D01*
X113845045Y-101139657D02*
X113715998Y-100570576D01*
X113715998Y-100570576D02*
X113560231Y-100012159D01*
X113560231Y-100012159D02*
X113378459Y-99465119D01*
X113378459Y-99465119D02*
X113171395Y-98930173D01*
X113171395Y-98930173D02*
X112939755Y-98408036D01*
X112939755Y-98408036D02*
X112684251Y-97899422D01*
X112684251Y-97899422D02*
X112405599Y-97405047D01*
X112405599Y-97405047D02*
X112104512Y-96925626D01*
X112104512Y-96925626D02*
X111781705Y-96461874D01*
X111781705Y-96461874D02*
X111437892Y-96014507D01*
X111437892Y-96014507D02*
X111073786Y-95584239D01*
X111073786Y-95584239D02*
X110690103Y-95171786D01*
X110690103Y-95171786D02*
X110287556Y-94777863D01*
X110287556Y-94777863D02*
X109866860Y-94403186D01*
X109866860Y-94403186D02*
X109428729Y-94048468D01*
X109428729Y-94048468D02*
X108973876Y-93714426D01*
X108973876Y-93714426D02*
X108503017Y-93401775D01*
X108503017Y-93401775D02*
X108016865Y-93111230D01*
X108016865Y-93111230D02*
X107516135Y-92843506D01*
X107516135Y-92843506D02*
X107001540Y-92599318D01*
X107001540Y-92599318D02*
X106473795Y-92379382D01*
X106473795Y-92379382D02*
X105933615Y-92184412D01*
X105933615Y-92184412D02*
X105381712Y-92015124D01*
X105381712Y-92015124D02*
X104818802Y-91872233D01*
X104818802Y-91872233D02*
X104245599Y-91756454D01*
X104245599Y-91756454D02*
X103662817Y-91668503D01*
X103662817Y-91668503D02*
X103071169Y-91609094D01*
X103071169Y-91609094D02*
X102471371Y-91578943D01*
X102471371Y-91578943D02*
X100068217Y-84976058D01*
X100068217Y-84976058D02*
X100329807Y-84948111D01*
X100329807Y-84948111D02*
X100592410Y-84923684D01*
X100592410Y-84923684D02*
X100856021Y-84902841D01*
X100856021Y-84902841D02*
X101120636Y-84885644D01*
X101120636Y-84885644D02*
X101386251Y-84872159D01*
X101386251Y-84872159D02*
X101652861Y-84862447D01*
X101652861Y-84862447D02*
X101920463Y-84856574D01*
X101920463Y-84856574D02*
X102189051Y-84854602D01*
X102189051Y-84854602D02*
X103146560Y-84878872D01*
X103146560Y-84878872D02*
X104091501Y-84950899D01*
X104091501Y-84950899D02*
X105022703Y-85069512D01*
X105022703Y-85069512D02*
X105938999Y-85233539D01*
X105938999Y-85233539D02*
X106839218Y-85441809D01*
X106839218Y-85441809D02*
X107722192Y-85693148D01*
X107722192Y-85693148D02*
X108586751Y-85986386D01*
X108586751Y-85986386D02*
X109431727Y-86320350D01*
X109431727Y-86320350D02*
X110255950Y-86693869D01*
X110255950Y-86693869D02*
X111058250Y-87105770D01*
X111058250Y-87105770D02*
X111837459Y-87554882D01*
X111837459Y-87554882D02*
X112592408Y-88040033D01*
X112592408Y-88040033D02*
X113321927Y-88560051D01*
X113321927Y-88560051D02*
X114024848Y-89113764D01*
X114024848Y-89113764D02*
X114700000Y-89700000D01*
X114700000Y-89700000D02*
X115346215Y-90317587D01*
X115346215Y-90317587D02*
X115962324Y-90965354D01*
X115962324Y-90965354D02*
X116547157Y-91642129D01*
X116547157Y-91642129D02*
X117099545Y-92346739D01*
X117099545Y-92346739D02*
X117618320Y-93078012D01*
X117618320Y-93078012D02*
X118102311Y-93834778D01*
X118102311Y-93834778D02*
X118550351Y-94615863D01*
X118550351Y-94615863D02*
X118961268Y-95420097D01*
X118961268Y-95420097D02*
X119333896Y-96246306D01*
X119333896Y-96246306D02*
X119667063Y-97093320D01*
X119667063Y-97093320D02*
X119959601Y-97959966D01*
X119959601Y-97959966D02*
X120210342Y-98845073D01*
X120210342Y-98845073D02*
X120418114Y-99747468D01*
X120418114Y-99747468D02*
X120581751Y-100665980D01*
X120581751Y-100665980D02*
X120700082Y-101599437D01*
X120700082Y-101599437D02*
X120771937Y-102546667D01*
X120771937Y-102546667D02*
X120796149Y-103506498D01*
X120796149Y-103506498D02*
X120771937Y-104466329D01*
X120771937Y-104466329D02*
X120700082Y-105413558D01*
X120700082Y-105413558D02*
X120581751Y-106347015D01*
X120581751Y-106347015D02*
X120418114Y-107265528D01*
X120418114Y-107265528D02*
X120210342Y-108167923D01*
X120210342Y-108167923D02*
X119959601Y-109053030D01*
X119959601Y-109053030D02*
X119667063Y-109919676D01*
X119667063Y-109919676D02*
X119333896Y-110766690D01*
X119333896Y-110766690D02*
X118961268Y-111592900D01*
X118961268Y-111592900D02*
X118550351Y-112397134D01*
X118550351Y-112397134D02*
X118102311Y-113178219D01*
X118102311Y-113178219D02*
X117618320Y-113934985D01*
X117618320Y-113934985D02*
X117099545Y-114666258D01*
X117099545Y-114666258D02*
X116547157Y-115370868D01*
X116547157Y-115370868D02*
X115962324Y-116047643D01*
X115962324Y-116047643D02*
X115346215Y-116695410D01*
X115346215Y-116695410D02*
X114700000Y-117312997D01*
X114700000Y-117312997D02*
X114024848Y-117899233D01*
X114024848Y-117899233D02*
X113321927Y-118452946D01*
X113321927Y-118452946D02*
X112592408Y-118972964D01*
X112592408Y-118972964D02*
X111837459Y-119458115D01*
X111837459Y-119458115D02*
X111058250Y-119907227D01*
X111058250Y-119907227D02*
X110255950Y-120319129D01*
X110255950Y-120319129D02*
X109431727Y-120692647D01*
X109431727Y-120692647D02*
X108586751Y-121026611D01*
X108586751Y-121026611D02*
X107722192Y-121319849D01*
X107722192Y-121319849D02*
X106839218Y-121571189D01*
X106839218Y-121571189D02*
X105938999Y-121779458D01*
X105938999Y-121779458D02*
X105022703Y-121943485D01*
X105022703Y-121943485D02*
X104091501Y-122062098D01*
X104091501Y-122062098D02*
X103146560Y-122134126D01*
X103146560Y-122134126D02*
X102189051Y-122158395D01*
X102189051Y-122158395D02*
X102189051Y-122159118D01*
X102189051Y-122159118D02*
X102189051Y-122159118D01*
G36*
X103146560Y-84878872D02*
G01*
X104091501Y-84950899D01*
X105022703Y-85069512D01*
X105938999Y-85233539D01*
X106839218Y-85441809D01*
X107722192Y-85693148D01*
X108586751Y-85986386D01*
X109431727Y-86320350D01*
X110255950Y-86693869D01*
X111058250Y-87105770D01*
X111837459Y-87554882D01*
X112592408Y-88040033D01*
X113321927Y-88560051D01*
X114024848Y-89113764D01*
X114700000Y-89700000D01*
X115346215Y-90317587D01*
X115962324Y-90965354D01*
X116547157Y-91642129D01*
X117099545Y-92346739D01*
X117618320Y-93078012D01*
X118102311Y-93834778D01*
X118550351Y-94615863D01*
X118961268Y-95420097D01*
X119333896Y-96246306D01*
X119667063Y-97093320D01*
X119959601Y-97959966D01*
X120210342Y-98845073D01*
X120418114Y-99747468D01*
X120581751Y-100665980D01*
X120700082Y-101599437D01*
X120771937Y-102546667D01*
X120796149Y-103506498D01*
X120771937Y-104466329D01*
X120700082Y-105413558D01*
X120581751Y-106347015D01*
X120418114Y-107265528D01*
X120210342Y-108167923D01*
X119959601Y-109053030D01*
X119667063Y-109919676D01*
X119333896Y-110766690D01*
X118961268Y-111592900D01*
X118550351Y-112397134D01*
X118102311Y-113178219D01*
X117618320Y-113934985D01*
X117099545Y-114666258D01*
X116547157Y-115370868D01*
X115962324Y-116047643D01*
X115346215Y-116695410D01*
X114700000Y-117312997D01*
X114024848Y-117899233D01*
X113321927Y-118452946D01*
X112592408Y-118972964D01*
X111837459Y-119458115D01*
X111058250Y-119907227D01*
X110255950Y-120319129D01*
X109431727Y-120692647D01*
X108586751Y-121026611D01*
X107722192Y-121319849D01*
X106839218Y-121571189D01*
X105938999Y-121779458D01*
X105022703Y-121943485D01*
X104091501Y-122062098D01*
X103146560Y-122134126D01*
X102189051Y-122158395D01*
X102189051Y-122159118D01*
X101231542Y-122134848D01*
X100286601Y-122062821D01*
X99355399Y-121944208D01*
X98439103Y-121780181D01*
X97538884Y-121571912D01*
X96655910Y-121320572D01*
X95791350Y-121027334D01*
X94946375Y-120693370D01*
X94122152Y-120319852D01*
X93319852Y-119907950D01*
X92540642Y-119458838D01*
X91785694Y-118973687D01*
X91056174Y-118453669D01*
X90353254Y-117899956D01*
X89678102Y-117313720D01*
X89031887Y-116696133D01*
X88415778Y-116048366D01*
X87830945Y-115371592D01*
X87278557Y-114666982D01*
X86759782Y-113935708D01*
X86275791Y-113178942D01*
X85827752Y-112397857D01*
X85416834Y-111593624D01*
X85044207Y-110767414D01*
X84711040Y-109920400D01*
X84418501Y-109053754D01*
X84167761Y-108168647D01*
X83959988Y-107266252D01*
X83796352Y-106347740D01*
X83678021Y-105414283D01*
X83606165Y-104467053D01*
X83581954Y-103507222D01*
X83602714Y-102618313D01*
X83664377Y-101740131D01*
X83766014Y-100873605D01*
X83906699Y-100019666D01*
X84085503Y-99179241D01*
X84301499Y-98353261D01*
X84553760Y-97542655D01*
X84841357Y-96748352D01*
X85163364Y-95971281D01*
X85518852Y-95212371D01*
X85906894Y-94472552D01*
X86326563Y-93752753D01*
X86776931Y-93053903D01*
X87257070Y-92376931D01*
X87766053Y-91722766D01*
X88302952Y-91092339D01*
X88866839Y-90486578D01*
X89456788Y-89906412D01*
X90071869Y-89352770D01*
X90711157Y-88826583D01*
X91373723Y-88328778D01*
X92058639Y-87860286D01*
X92764978Y-87422035D01*
X93491813Y-87014955D01*
X94238216Y-86639975D01*
X95003259Y-86298024D01*
X95786015Y-85990031D01*
X96585556Y-85716926D01*
X97400954Y-85479639D01*
X98231282Y-85279097D01*
X99075613Y-85116231D01*
X99933018Y-84991969D01*
X102330031Y-91577497D01*
X102247385Y-91576141D01*
X102205944Y-91575565D01*
X102164469Y-91575328D01*
X101551324Y-91590856D01*
X100946226Y-91636939D01*
X100349924Y-91712827D01*
X99763168Y-91817771D01*
X99186705Y-91951020D01*
X98621285Y-92111826D01*
X98067656Y-92299437D01*
X97526568Y-92513105D01*
X96998768Y-92752078D01*
X96485005Y-93015609D01*
X95986029Y-93302945D01*
X95502589Y-93613338D01*
X95035431Y-93946038D01*
X94585307Y-94300295D01*
X94152963Y-94675359D01*
X93739150Y-95070480D01*
X93344616Y-95484909D01*
X92970108Y-95917895D01*
X92616378Y-96368688D01*
X92284172Y-96836540D01*
X91974239Y-97320699D01*
X91687330Y-97820416D01*
X91424191Y-98334941D01*
X91185573Y-98863524D01*
X90972223Y-99405416D01*
X90784890Y-99959867D01*
X90624324Y-100526126D01*
X90491272Y-101103444D01*
X90386484Y-101691070D01*
X90310709Y-102288256D01*
X90264694Y-102894251D01*
X90249190Y-103508306D01*
X90264694Y-104122392D01*
X90310709Y-104728415D01*
X90386484Y-105325624D01*
X90491272Y-105913272D01*
X90624324Y-106490606D01*
X90784890Y-107056879D01*
X90972223Y-107611340D01*
X91185573Y-108153239D01*
X91424191Y-108681828D01*
X91687330Y-109196355D01*
X91974239Y-109696073D01*
X92284172Y-110180230D01*
X92616378Y-110648078D01*
X92970108Y-111098866D01*
X93344616Y-111531845D01*
X93739150Y-111946266D01*
X94152963Y-112341378D01*
X94585307Y-112716432D01*
X95035431Y-113070678D01*
X95502589Y-113403367D01*
X95986029Y-113713749D01*
X96485005Y-114001075D01*
X96998768Y-114264594D01*
X97526568Y-114503556D01*
X98067656Y-114717214D01*
X98621285Y-114904815D01*
X99186705Y-115065612D01*
X99763168Y-115198854D01*
X100349924Y-115303792D01*
X100946226Y-115379676D01*
X101551324Y-115425756D01*
X102164469Y-115441282D01*
X102777615Y-115425754D01*
X103382713Y-115379672D01*
X103979015Y-115303783D01*
X104565772Y-115198839D01*
X105142235Y-115065590D01*
X105707655Y-114904784D01*
X106261284Y-114717173D01*
X106802372Y-114503506D01*
X107330172Y-114264532D01*
X107843935Y-114001002D01*
X108342911Y-113713665D01*
X108826352Y-113403272D01*
X109293509Y-113070572D01*
X109743634Y-112716315D01*
X110175977Y-112341251D01*
X110589791Y-111946130D01*
X110984325Y-111531702D01*
X111358833Y-111098716D01*
X111712564Y-110647922D01*
X112044769Y-110180071D01*
X112354702Y-109695912D01*
X112641612Y-109196195D01*
X112904750Y-108681670D01*
X113143369Y-108153087D01*
X113356719Y-107611195D01*
X113544051Y-107056745D01*
X113704618Y-106490486D01*
X113837669Y-105913168D01*
X113942457Y-105325541D01*
X114018233Y-104728355D01*
X114064247Y-104122360D01*
X114079752Y-103508306D01*
X114064725Y-102903725D01*
X114020123Y-102306947D01*
X113946658Y-101718686D01*
X113845045Y-101139657D01*
X113715998Y-100570576D01*
X113560231Y-100012159D01*
X113378459Y-99465119D01*
X113171395Y-98930173D01*
X112939755Y-98408036D01*
X112684251Y-97899422D01*
X112405599Y-97405047D01*
X112104512Y-96925626D01*
X111781705Y-96461874D01*
X111437892Y-96014507D01*
X111073786Y-95584239D01*
X110690103Y-95171786D01*
X110287556Y-94777863D01*
X109866860Y-94403186D01*
X109428729Y-94048468D01*
X108973876Y-93714426D01*
X108503017Y-93401775D01*
X108016865Y-93111230D01*
X107516135Y-92843506D01*
X107001540Y-92599318D01*
X106473795Y-92379382D01*
X105933615Y-92184412D01*
X105381712Y-92015124D01*
X104818802Y-91872233D01*
X104245599Y-91756454D01*
X103662817Y-91668503D01*
X103071169Y-91609094D01*
X102471371Y-91578943D01*
X100068217Y-84976058D01*
X100329807Y-84948111D01*
X100592410Y-84923684D01*
X100856021Y-84902841D01*
X101120636Y-84885644D01*
X101386251Y-84872159D01*
X101652861Y-84862447D01*
X101920463Y-84856574D01*
X102189051Y-84854602D01*
X103146560Y-84878872D01*
G37*
X103146560Y-84878872D02*
X104091501Y-84950899D01*
X105022703Y-85069512D01*
X105938999Y-85233539D01*
X106839218Y-85441809D01*
X107722192Y-85693148D01*
X108586751Y-85986386D01*
X109431727Y-86320350D01*
X110255950Y-86693869D01*
X111058250Y-87105770D01*
X111837459Y-87554882D01*
X112592408Y-88040033D01*
X113321927Y-88560051D01*
X114024848Y-89113764D01*
X114700000Y-89700000D01*
X115346215Y-90317587D01*
X115962324Y-90965354D01*
X116547157Y-91642129D01*
X117099545Y-92346739D01*
X117618320Y-93078012D01*
X118102311Y-93834778D01*
X118550351Y-94615863D01*
X118961268Y-95420097D01*
X119333896Y-96246306D01*
X119667063Y-97093320D01*
X119959601Y-97959966D01*
X120210342Y-98845073D01*
X120418114Y-99747468D01*
X120581751Y-100665980D01*
X120700082Y-101599437D01*
X120771937Y-102546667D01*
X120796149Y-103506498D01*
X120771937Y-104466329D01*
X120700082Y-105413558D01*
X120581751Y-106347015D01*
X120418114Y-107265528D01*
X120210342Y-108167923D01*
X119959601Y-109053030D01*
X119667063Y-109919676D01*
X119333896Y-110766690D01*
X118961268Y-111592900D01*
X118550351Y-112397134D01*
X118102311Y-113178219D01*
X117618320Y-113934985D01*
X117099545Y-114666258D01*
X116547157Y-115370868D01*
X115962324Y-116047643D01*
X115346215Y-116695410D01*
X114700000Y-117312997D01*
X114024848Y-117899233D01*
X113321927Y-118452946D01*
X112592408Y-118972964D01*
X111837459Y-119458115D01*
X111058250Y-119907227D01*
X110255950Y-120319129D01*
X109431727Y-120692647D01*
X108586751Y-121026611D01*
X107722192Y-121319849D01*
X106839218Y-121571189D01*
X105938999Y-121779458D01*
X105022703Y-121943485D01*
X104091501Y-122062098D01*
X103146560Y-122134126D01*
X102189051Y-122158395D01*
X102189051Y-122159118D01*
X101231542Y-122134848D01*
X100286601Y-122062821D01*
X99355399Y-121944208D01*
X98439103Y-121780181D01*
X97538884Y-121571912D01*
X96655910Y-121320572D01*
X95791350Y-121027334D01*
X94946375Y-120693370D01*
X94122152Y-120319852D01*
X93319852Y-119907950D01*
X92540642Y-119458838D01*
X91785694Y-118973687D01*
X91056174Y-118453669D01*
X90353254Y-117899956D01*
X89678102Y-117313720D01*
X89031887Y-116696133D01*
X88415778Y-116048366D01*
X87830945Y-115371592D01*
X87278557Y-114666982D01*
X86759782Y-113935708D01*
X86275791Y-113178942D01*
X85827752Y-112397857D01*
X85416834Y-111593624D01*
X85044207Y-110767414D01*
X84711040Y-109920400D01*
X84418501Y-109053754D01*
X84167761Y-108168647D01*
X83959988Y-107266252D01*
X83796352Y-106347740D01*
X83678021Y-105414283D01*
X83606165Y-104467053D01*
X83581954Y-103507222D01*
X83602714Y-102618313D01*
X83664377Y-101740131D01*
X83766014Y-100873605D01*
X83906699Y-100019666D01*
X84085503Y-99179241D01*
X84301499Y-98353261D01*
X84553760Y-97542655D01*
X84841357Y-96748352D01*
X85163364Y-95971281D01*
X85518852Y-95212371D01*
X85906894Y-94472552D01*
X86326563Y-93752753D01*
X86776931Y-93053903D01*
X87257070Y-92376931D01*
X87766053Y-91722766D01*
X88302952Y-91092339D01*
X88866839Y-90486578D01*
X89456788Y-89906412D01*
X90071869Y-89352770D01*
X90711157Y-88826583D01*
X91373723Y-88328778D01*
X92058639Y-87860286D01*
X92764978Y-87422035D01*
X93491813Y-87014955D01*
X94238216Y-86639975D01*
X95003259Y-86298024D01*
X95786015Y-85990031D01*
X96585556Y-85716926D01*
X97400954Y-85479639D01*
X98231282Y-85279097D01*
X99075613Y-85116231D01*
X99933018Y-84991969D01*
X102330031Y-91577497D01*
X102247385Y-91576141D01*
X102205944Y-91575565D01*
X102164469Y-91575328D01*
X101551324Y-91590856D01*
X100946226Y-91636939D01*
X100349924Y-91712827D01*
X99763168Y-91817771D01*
X99186705Y-91951020D01*
X98621285Y-92111826D01*
X98067656Y-92299437D01*
X97526568Y-92513105D01*
X96998768Y-92752078D01*
X96485005Y-93015609D01*
X95986029Y-93302945D01*
X95502589Y-93613338D01*
X95035431Y-93946038D01*
X94585307Y-94300295D01*
X94152963Y-94675359D01*
X93739150Y-95070480D01*
X93344616Y-95484909D01*
X92970108Y-95917895D01*
X92616378Y-96368688D01*
X92284172Y-96836540D01*
X91974239Y-97320699D01*
X91687330Y-97820416D01*
X91424191Y-98334941D01*
X91185573Y-98863524D01*
X90972223Y-99405416D01*
X90784890Y-99959867D01*
X90624324Y-100526126D01*
X90491272Y-101103444D01*
X90386484Y-101691070D01*
X90310709Y-102288256D01*
X90264694Y-102894251D01*
X90249190Y-103508306D01*
X90264694Y-104122392D01*
X90310709Y-104728415D01*
X90386484Y-105325624D01*
X90491272Y-105913272D01*
X90624324Y-106490606D01*
X90784890Y-107056879D01*
X90972223Y-107611340D01*
X91185573Y-108153239D01*
X91424191Y-108681828D01*
X91687330Y-109196355D01*
X91974239Y-109696073D01*
X92284172Y-110180230D01*
X92616378Y-110648078D01*
X92970108Y-111098866D01*
X93344616Y-111531845D01*
X93739150Y-111946266D01*
X94152963Y-112341378D01*
X94585307Y-112716432D01*
X95035431Y-113070678D01*
X95502589Y-113403367D01*
X95986029Y-113713749D01*
X96485005Y-114001075D01*
X96998768Y-114264594D01*
X97526568Y-114503556D01*
X98067656Y-114717214D01*
X98621285Y-114904815D01*
X99186705Y-115065612D01*
X99763168Y-115198854D01*
X100349924Y-115303792D01*
X100946226Y-115379676D01*
X101551324Y-115425756D01*
X102164469Y-115441282D01*
X102777615Y-115425754D01*
X103382713Y-115379672D01*
X103979015Y-115303783D01*
X104565772Y-115198839D01*
X105142235Y-115065590D01*
X105707655Y-114904784D01*
X106261284Y-114717173D01*
X106802372Y-114503506D01*
X107330172Y-114264532D01*
X107843935Y-114001002D01*
X108342911Y-113713665D01*
X108826352Y-113403272D01*
X109293509Y-113070572D01*
X109743634Y-112716315D01*
X110175977Y-112341251D01*
X110589791Y-111946130D01*
X110984325Y-111531702D01*
X111358833Y-111098716D01*
X111712564Y-110647922D01*
X112044769Y-110180071D01*
X112354702Y-109695912D01*
X112641612Y-109196195D01*
X112904750Y-108681670D01*
X113143369Y-108153087D01*
X113356719Y-107611195D01*
X113544051Y-107056745D01*
X113704618Y-106490486D01*
X113837669Y-105913168D01*
X113942457Y-105325541D01*
X114018233Y-104728355D01*
X114064247Y-104122360D01*
X114079752Y-103508306D01*
X114064725Y-102903725D01*
X114020123Y-102306947D01*
X113946658Y-101718686D01*
X113845045Y-101139657D01*
X113715998Y-100570576D01*
X113560231Y-100012159D01*
X113378459Y-99465119D01*
X113171395Y-98930173D01*
X112939755Y-98408036D01*
X112684251Y-97899422D01*
X112405599Y-97405047D01*
X112104512Y-96925626D01*
X111781705Y-96461874D01*
X111437892Y-96014507D01*
X111073786Y-95584239D01*
X110690103Y-95171786D01*
X110287556Y-94777863D01*
X109866860Y-94403186D01*
X109428729Y-94048468D01*
X108973876Y-93714426D01*
X108503017Y-93401775D01*
X108016865Y-93111230D01*
X107516135Y-92843506D01*
X107001540Y-92599318D01*
X106473795Y-92379382D01*
X105933615Y-92184412D01*
X105381712Y-92015124D01*
X104818802Y-91872233D01*
X104245599Y-91756454D01*
X103662817Y-91668503D01*
X103071169Y-91609094D01*
X102471371Y-91578943D01*
X100068217Y-84976058D01*
X100329807Y-84948111D01*
X100592410Y-84923684D01*
X100856021Y-84902841D01*
X101120636Y-84885644D01*
X101386251Y-84872159D01*
X101652861Y-84862447D01*
X101920463Y-84856574D01*
X102189051Y-84854602D01*
X103146560Y-84878872D01*
X158610949Y-31340882D02*
X159568458Y-31365152D01*
X159568458Y-31365152D02*
X160513399Y-31437179D01*
X160513399Y-31437179D02*
X161444601Y-31555792D01*
X161444601Y-31555792D02*
X162360897Y-31719819D01*
X162360897Y-31719819D02*
X163261116Y-31928088D01*
X163261116Y-31928088D02*
X164144090Y-32179428D01*
X164144090Y-32179428D02*
X165008650Y-32472666D01*
X165008650Y-32472666D02*
X165853625Y-32806630D01*
X165853625Y-32806630D02*
X166677848Y-33180148D01*
X166677848Y-33180148D02*
X167480148Y-33592050D01*
X167480148Y-33592050D02*
X168259358Y-34041162D01*
X168259358Y-34041162D02*
X169014306Y-34526313D01*
X169014306Y-34526313D02*
X169743826Y-35046331D01*
X169743826Y-35046331D02*
X170446746Y-35600044D01*
X170446746Y-35600044D02*
X171121898Y-36186280D01*
X171121898Y-36186280D02*
X171768113Y-36803867D01*
X171768113Y-36803867D02*
X172384222Y-37451634D01*
X172384222Y-37451634D02*
X172969055Y-38128408D01*
X172969055Y-38128408D02*
X173521443Y-38833018D01*
X173521443Y-38833018D02*
X174040218Y-39564292D01*
X174040218Y-39564292D02*
X174524209Y-40321058D01*
X174524209Y-40321058D02*
X174972248Y-41102143D01*
X174972248Y-41102143D02*
X175383166Y-41906376D01*
X175383166Y-41906376D02*
X175755793Y-42732586D01*
X175755793Y-42732586D02*
X176088960Y-43579600D01*
X176088960Y-43579600D02*
X176381499Y-44446246D01*
X176381499Y-44446246D02*
X176632239Y-45331353D01*
X176632239Y-45331353D02*
X176840012Y-46233748D01*
X176840012Y-46233748D02*
X177003648Y-47152260D01*
X177003648Y-47152260D02*
X177121979Y-48085717D01*
X177121979Y-48085717D02*
X177193835Y-49032947D01*
X177193835Y-49032947D02*
X177218046Y-49992778D01*
X177218046Y-49992778D02*
X177197286Y-50881687D01*
X177197286Y-50881687D02*
X177135623Y-51759869D01*
X177135623Y-51759869D02*
X177033986Y-52626395D01*
X177033986Y-52626395D02*
X176893301Y-53480334D01*
X176893301Y-53480334D02*
X176714497Y-54320759D01*
X176714497Y-54320759D02*
X176498501Y-55146739D01*
X176498501Y-55146739D02*
X176246240Y-55957345D01*
X176246240Y-55957345D02*
X175958643Y-56751648D01*
X175958643Y-56751648D02*
X175636636Y-57528719D01*
X175636636Y-57528719D02*
X175281148Y-58287629D01*
X175281148Y-58287629D02*
X174893106Y-59027448D01*
X174893106Y-59027448D02*
X174473437Y-59747247D01*
X174473437Y-59747247D02*
X174023069Y-60446097D01*
X174023069Y-60446097D02*
X173542930Y-61123069D01*
X173542930Y-61123069D02*
X173033947Y-61777234D01*
X173033947Y-61777234D02*
X172497048Y-62407661D01*
X172497048Y-62407661D02*
X171933161Y-63013422D01*
X171933161Y-63013422D02*
X171343212Y-63593588D01*
X171343212Y-63593588D02*
X170728131Y-64147230D01*
X170728131Y-64147230D02*
X170088843Y-64673417D01*
X170088843Y-64673417D02*
X169426277Y-65171222D01*
X169426277Y-65171222D02*
X168741361Y-65639714D01*
X168741361Y-65639714D02*
X168035022Y-66077965D01*
X168035022Y-66077965D02*
X167308187Y-66485045D01*
X167308187Y-66485045D02*
X166561784Y-66860025D01*
X166561784Y-66860025D02*
X165796741Y-67201976D01*
X165796741Y-67201976D02*
X165013985Y-67509969D01*
X165013985Y-67509969D02*
X164214444Y-67783074D01*
X164214444Y-67783074D02*
X163399046Y-68020361D01*
X163399046Y-68020361D02*
X162568718Y-68220903D01*
X162568718Y-68220903D02*
X161724387Y-68383769D01*
X161724387Y-68383769D02*
X160866982Y-68508031D01*
X160866982Y-68508031D02*
X158469969Y-61922503D01*
X158469969Y-61922503D02*
X158552615Y-61923859D01*
X158552615Y-61923859D02*
X158594056Y-61924435D01*
X158594056Y-61924435D02*
X158635531Y-61924672D01*
X158635531Y-61924672D02*
X159248676Y-61909144D01*
X159248676Y-61909144D02*
X159853774Y-61863061D01*
X159853774Y-61863061D02*
X160450076Y-61787173D01*
X160450076Y-61787173D02*
X161036832Y-61682229D01*
X161036832Y-61682229D02*
X161613295Y-61548980D01*
X161613295Y-61548980D02*
X162178715Y-61388174D01*
X162178715Y-61388174D02*
X162732344Y-61200563D01*
X162732344Y-61200563D02*
X163273432Y-60986895D01*
X163273432Y-60986895D02*
X163801232Y-60747922D01*
X163801232Y-60747922D02*
X164314995Y-60484391D01*
X164314995Y-60484391D02*
X164813971Y-60197055D01*
X164813971Y-60197055D02*
X165297411Y-59886662D01*
X165297411Y-59886662D02*
X165764569Y-59553962D01*
X165764569Y-59553962D02*
X166214693Y-59199705D01*
X166214693Y-59199705D02*
X166647037Y-58824641D01*
X166647037Y-58824641D02*
X167060850Y-58429520D01*
X167060850Y-58429520D02*
X167455384Y-58015091D01*
X167455384Y-58015091D02*
X167829892Y-57582105D01*
X167829892Y-57582105D02*
X168183622Y-57131312D01*
X168183622Y-57131312D02*
X168515828Y-56663460D01*
X168515828Y-56663460D02*
X168825761Y-56179301D01*
X168825761Y-56179301D02*
X169112670Y-55679584D01*
X169112670Y-55679584D02*
X169375809Y-55165059D01*
X169375809Y-55165059D02*
X169614427Y-54636476D01*
X169614427Y-54636476D02*
X169827777Y-54094584D01*
X169827777Y-54094584D02*
X170015110Y-53540133D01*
X170015110Y-53540133D02*
X170175676Y-52973874D01*
X170175676Y-52973874D02*
X170308728Y-52396556D01*
X170308728Y-52396556D02*
X170413516Y-51808930D01*
X170413516Y-51808930D02*
X170489291Y-51211744D01*
X170489291Y-51211744D02*
X170535306Y-50605749D01*
X170535306Y-50605749D02*
X170550810Y-49991694D01*
X170550810Y-49991694D02*
X170535306Y-49377608D01*
X170535306Y-49377608D02*
X170489291Y-48771585D01*
X170489291Y-48771585D02*
X170413516Y-48174376D01*
X170413516Y-48174376D02*
X170308728Y-47586728D01*
X170308728Y-47586728D02*
X170175676Y-47009394D01*
X170175676Y-47009394D02*
X170015110Y-46443121D01*
X170015110Y-46443121D02*
X169827777Y-45888660D01*
X169827777Y-45888660D02*
X169614427Y-45346761D01*
X169614427Y-45346761D02*
X169375809Y-44818172D01*
X169375809Y-44818172D02*
X169112670Y-44303645D01*
X169112670Y-44303645D02*
X168825761Y-43803927D01*
X168825761Y-43803927D02*
X168515828Y-43319770D01*
X168515828Y-43319770D02*
X168183622Y-42851922D01*
X168183622Y-42851922D02*
X167829892Y-42401134D01*
X167829892Y-42401134D02*
X167455384Y-41968155D01*
X167455384Y-41968155D02*
X167060850Y-41553734D01*
X167060850Y-41553734D02*
X166647037Y-41158622D01*
X166647037Y-41158622D02*
X166214693Y-40783568D01*
X166214693Y-40783568D02*
X165764569Y-40429322D01*
X165764569Y-40429322D02*
X165297411Y-40096633D01*
X165297411Y-40096633D02*
X164813971Y-39786251D01*
X164813971Y-39786251D02*
X164314995Y-39498925D01*
X164314995Y-39498925D02*
X163801232Y-39235406D01*
X163801232Y-39235406D02*
X163273432Y-38996444D01*
X163273432Y-38996444D02*
X162732344Y-38782786D01*
X162732344Y-38782786D02*
X162178715Y-38595185D01*
X162178715Y-38595185D02*
X161613295Y-38434388D01*
X161613295Y-38434388D02*
X161036832Y-38301146D01*
X161036832Y-38301146D02*
X160450076Y-38196208D01*
X160450076Y-38196208D02*
X159853774Y-38120324D01*
X159853774Y-38120324D02*
X159248676Y-38074244D01*
X159248676Y-38074244D02*
X158635531Y-38058718D01*
X158635531Y-38058718D02*
X158022385Y-38074246D01*
X158022385Y-38074246D02*
X157417287Y-38120328D01*
X157417287Y-38120328D02*
X156820985Y-38196217D01*
X156820985Y-38196217D02*
X156234228Y-38301161D01*
X156234228Y-38301161D02*
X155657765Y-38434410D01*
X155657765Y-38434410D02*
X155092345Y-38595216D01*
X155092345Y-38595216D02*
X154538716Y-38782827D01*
X154538716Y-38782827D02*
X153997628Y-38996494D01*
X153997628Y-38996494D02*
X153469828Y-39235468D01*
X153469828Y-39235468D02*
X152956065Y-39498998D01*
X152956065Y-39498998D02*
X152457089Y-39786335D01*
X152457089Y-39786335D02*
X151973648Y-40096728D01*
X151973648Y-40096728D02*
X151506491Y-40429428D01*
X151506491Y-40429428D02*
X151056366Y-40783685D01*
X151056366Y-40783685D02*
X150624023Y-41158749D01*
X150624023Y-41158749D02*
X150210209Y-41553870D01*
X150210209Y-41553870D02*
X149815675Y-41968298D01*
X149815675Y-41968298D02*
X149441167Y-42401284D01*
X149441167Y-42401284D02*
X149087436Y-42852078D01*
X149087436Y-42852078D02*
X148755231Y-43319929D01*
X148755231Y-43319929D02*
X148445298Y-43804088D01*
X148445298Y-43804088D02*
X148158388Y-44303805D01*
X148158388Y-44303805D02*
X147895250Y-44818330D01*
X147895250Y-44818330D02*
X147656631Y-45346913D01*
X147656631Y-45346913D02*
X147443281Y-45888805D01*
X147443281Y-45888805D02*
X147255949Y-46443255D01*
X147255949Y-46443255D02*
X147095382Y-47009514D01*
X147095382Y-47009514D02*
X146962331Y-47586832D01*
X146962331Y-47586832D02*
X146857543Y-48174459D01*
X146857543Y-48174459D02*
X146781767Y-48771645D01*
X146781767Y-48771645D02*
X146735753Y-49377640D01*
X146735753Y-49377640D02*
X146720248Y-49991694D01*
X146720248Y-49991694D02*
X146735275Y-50596275D01*
X146735275Y-50596275D02*
X146779877Y-51193053D01*
X146779877Y-51193053D02*
X146853342Y-51781314D01*
X146853342Y-51781314D02*
X146954955Y-52360343D01*
X146954955Y-52360343D02*
X147084002Y-52929424D01*
X147084002Y-52929424D02*
X147239769Y-53487841D01*
X147239769Y-53487841D02*
X147421541Y-54034881D01*
X147421541Y-54034881D02*
X147628605Y-54569827D01*
X147628605Y-54569827D02*
X147860245Y-55091964D01*
X147860245Y-55091964D02*
X148115749Y-55600578D01*
X148115749Y-55600578D02*
X148394401Y-56094953D01*
X148394401Y-56094953D02*
X148695488Y-56574374D01*
X148695488Y-56574374D02*
X149018295Y-57038126D01*
X149018295Y-57038126D02*
X149362108Y-57485493D01*
X149362108Y-57485493D02*
X149726214Y-57915761D01*
X149726214Y-57915761D02*
X150109897Y-58328214D01*
X150109897Y-58328214D02*
X150512444Y-58722137D01*
X150512444Y-58722137D02*
X150933140Y-59096814D01*
X150933140Y-59096814D02*
X151371271Y-59451532D01*
X151371271Y-59451532D02*
X151826124Y-59785574D01*
X151826124Y-59785574D02*
X152296983Y-60098225D01*
X152296983Y-60098225D02*
X152783135Y-60388770D01*
X152783135Y-60388770D02*
X153283865Y-60656494D01*
X153283865Y-60656494D02*
X153798460Y-60900682D01*
X153798460Y-60900682D02*
X154326205Y-61120618D01*
X154326205Y-61120618D02*
X154866385Y-61315588D01*
X154866385Y-61315588D02*
X155418288Y-61484876D01*
X155418288Y-61484876D02*
X155981198Y-61627767D01*
X155981198Y-61627767D02*
X156554401Y-61743546D01*
X156554401Y-61743546D02*
X157137183Y-61831497D01*
X157137183Y-61831497D02*
X157728831Y-61890906D01*
X157728831Y-61890906D02*
X158328629Y-61921057D01*
X158328629Y-61921057D02*
X160731783Y-68523942D01*
X160731783Y-68523942D02*
X160470193Y-68551889D01*
X160470193Y-68551889D02*
X160207590Y-68576316D01*
X160207590Y-68576316D02*
X159943979Y-68597159D01*
X159943979Y-68597159D02*
X159679364Y-68614356D01*
X159679364Y-68614356D02*
X159413749Y-68627841D01*
X159413749Y-68627841D02*
X159147139Y-68637553D01*
X159147139Y-68637553D02*
X158879537Y-68643426D01*
X158879537Y-68643426D02*
X158610949Y-68645398D01*
X158610949Y-68645398D02*
X157653440Y-68621128D01*
X157653440Y-68621128D02*
X156708499Y-68549101D01*
X156708499Y-68549101D02*
X155777297Y-68430488D01*
X155777297Y-68430488D02*
X154861001Y-68266461D01*
X154861001Y-68266461D02*
X153960782Y-68058191D01*
X153960782Y-68058191D02*
X153077808Y-67806852D01*
X153077808Y-67806852D02*
X152213249Y-67513614D01*
X152213249Y-67513614D02*
X151368273Y-67179650D01*
X151368273Y-67179650D02*
X150544050Y-66806131D01*
X150544050Y-66806131D02*
X149741750Y-66394230D01*
X149741750Y-66394230D02*
X148962541Y-65945118D01*
X148962541Y-65945118D02*
X148207592Y-65459967D01*
X148207592Y-65459967D02*
X147478073Y-64939949D01*
X147478073Y-64939949D02*
X146775152Y-64386236D01*
X146775152Y-64386236D02*
X146100000Y-63800000D01*
X146100000Y-63800000D02*
X145453785Y-63182413D01*
X145453785Y-63182413D02*
X144837676Y-62534646D01*
X144837676Y-62534646D02*
X144252843Y-61857871D01*
X144252843Y-61857871D02*
X143700455Y-61153261D01*
X143700455Y-61153261D02*
X143181680Y-60421988D01*
X143181680Y-60421988D02*
X142697689Y-59665222D01*
X142697689Y-59665222D02*
X142249649Y-58884137D01*
X142249649Y-58884137D02*
X141838732Y-58079903D01*
X141838732Y-58079903D02*
X141466104Y-57253694D01*
X141466104Y-57253694D02*
X141132937Y-56406680D01*
X141132937Y-56406680D02*
X140840399Y-55540034D01*
X140840399Y-55540034D02*
X140589658Y-54654927D01*
X140589658Y-54654927D02*
X140381886Y-53752532D01*
X140381886Y-53752532D02*
X140218249Y-52834020D01*
X140218249Y-52834020D02*
X140099918Y-51900563D01*
X140099918Y-51900563D02*
X140028063Y-50953333D01*
X140028063Y-50953333D02*
X140003851Y-49993502D01*
X140003851Y-49993502D02*
X140028063Y-49033671D01*
X140028063Y-49033671D02*
X140099918Y-48086442D01*
X140099918Y-48086442D02*
X140218249Y-47152985D01*
X140218249Y-47152985D02*
X140381886Y-46234472D01*
X140381886Y-46234472D02*
X140589658Y-45332077D01*
X140589658Y-45332077D02*
X140840399Y-44446970D01*
X140840399Y-44446970D02*
X141132937Y-43580324D01*
X141132937Y-43580324D02*
X141466104Y-42733310D01*
X141466104Y-42733310D02*
X141838732Y-41907100D01*
X141838732Y-41907100D02*
X142249649Y-41102866D01*
X142249649Y-41102866D02*
X142697689Y-40321781D01*
X142697689Y-40321781D02*
X143181680Y-39565015D01*
X143181680Y-39565015D02*
X143700455Y-38833742D01*
X143700455Y-38833742D02*
X144252843Y-38129132D01*
X144252843Y-38129132D02*
X144837676Y-37452357D01*
X144837676Y-37452357D02*
X145453785Y-36804590D01*
X145453785Y-36804590D02*
X146100000Y-36187003D01*
X146100000Y-36187003D02*
X146775152Y-35600767D01*
X146775152Y-35600767D02*
X147478073Y-35047054D01*
X147478073Y-35047054D02*
X148207592Y-34527036D01*
X148207592Y-34527036D02*
X148962541Y-34041885D01*
X148962541Y-34041885D02*
X149741750Y-33592773D01*
X149741750Y-33592773D02*
X150544050Y-33180871D01*
X150544050Y-33180871D02*
X151368273Y-32807353D01*
X151368273Y-32807353D02*
X152213249Y-32473389D01*
X152213249Y-32473389D02*
X153077808Y-32180151D01*
X153077808Y-32180151D02*
X153960782Y-31928811D01*
X153960782Y-31928811D02*
X154861001Y-31720542D01*
X154861001Y-31720542D02*
X155777297Y-31556515D01*
X155777297Y-31556515D02*
X156708499Y-31437902D01*
X156708499Y-31437902D02*
X157653440Y-31365874D01*
X157653440Y-31365874D02*
X158610949Y-31341605D01*
X158610949Y-31341605D02*
X158610949Y-31340882D01*
X158610949Y-31340882D02*
X158610949Y-31340882D01*
G36*
X159568458Y-31365152D02*
G01*
X160513399Y-31437179D01*
X161444601Y-31555792D01*
X162360897Y-31719819D01*
X163261116Y-31928088D01*
X164144090Y-32179428D01*
X165008650Y-32472666D01*
X165853625Y-32806630D01*
X166677848Y-33180148D01*
X167480148Y-33592050D01*
X168259358Y-34041162D01*
X169014306Y-34526313D01*
X169743826Y-35046331D01*
X170446746Y-35600044D01*
X171121898Y-36186280D01*
X171768113Y-36803867D01*
X172384222Y-37451634D01*
X172969055Y-38128408D01*
X173521443Y-38833018D01*
X174040218Y-39564292D01*
X174524209Y-40321058D01*
X174972248Y-41102143D01*
X175383166Y-41906376D01*
X175755793Y-42732586D01*
X176088960Y-43579600D01*
X176381499Y-44446246D01*
X176632239Y-45331353D01*
X176840012Y-46233748D01*
X177003648Y-47152260D01*
X177121979Y-48085717D01*
X177193835Y-49032947D01*
X177218046Y-49992778D01*
X177197286Y-50881687D01*
X177135623Y-51759869D01*
X177033986Y-52626395D01*
X176893301Y-53480334D01*
X176714497Y-54320759D01*
X176498501Y-55146739D01*
X176246240Y-55957345D01*
X175958643Y-56751648D01*
X175636636Y-57528719D01*
X175281148Y-58287629D01*
X174893106Y-59027448D01*
X174473437Y-59747247D01*
X174023069Y-60446097D01*
X173542930Y-61123069D01*
X173033947Y-61777234D01*
X172497048Y-62407661D01*
X171933161Y-63013422D01*
X171343212Y-63593588D01*
X170728131Y-64147230D01*
X170088843Y-64673417D01*
X169426277Y-65171222D01*
X168741361Y-65639714D01*
X168035022Y-66077965D01*
X167308187Y-66485045D01*
X166561784Y-66860025D01*
X165796741Y-67201976D01*
X165013985Y-67509969D01*
X164214444Y-67783074D01*
X163399046Y-68020361D01*
X162568718Y-68220903D01*
X161724387Y-68383769D01*
X160866982Y-68508031D01*
X158469969Y-61922503D01*
X158552615Y-61923859D01*
X158594056Y-61924435D01*
X158635531Y-61924672D01*
X159248676Y-61909144D01*
X159853774Y-61863061D01*
X160450076Y-61787173D01*
X161036832Y-61682229D01*
X161613295Y-61548980D01*
X162178715Y-61388174D01*
X162732344Y-61200563D01*
X163273432Y-60986895D01*
X163801232Y-60747922D01*
X164314995Y-60484391D01*
X164813971Y-60197055D01*
X165297411Y-59886662D01*
X165764569Y-59553962D01*
X166214693Y-59199705D01*
X166647037Y-58824641D01*
X167060850Y-58429520D01*
X167455384Y-58015091D01*
X167829892Y-57582105D01*
X168183622Y-57131312D01*
X168515828Y-56663460D01*
X168825761Y-56179301D01*
X169112670Y-55679584D01*
X169375809Y-55165059D01*
X169614427Y-54636476D01*
X169827777Y-54094584D01*
X170015110Y-53540133D01*
X170175676Y-52973874D01*
X170308728Y-52396556D01*
X170413516Y-51808930D01*
X170489291Y-51211744D01*
X170535306Y-50605749D01*
X170550810Y-49991694D01*
X170535306Y-49377608D01*
X170489291Y-48771585D01*
X170413516Y-48174376D01*
X170308728Y-47586728D01*
X170175676Y-47009394D01*
X170015110Y-46443121D01*
X169827777Y-45888660D01*
X169614427Y-45346761D01*
X169375809Y-44818172D01*
X169112670Y-44303645D01*
X168825761Y-43803927D01*
X168515828Y-43319770D01*
X168183622Y-42851922D01*
X167829892Y-42401134D01*
X167455384Y-41968155D01*
X167060850Y-41553734D01*
X166647037Y-41158622D01*
X166214693Y-40783568D01*
X165764569Y-40429322D01*
X165297411Y-40096633D01*
X164813971Y-39786251D01*
X164314995Y-39498925D01*
X163801232Y-39235406D01*
X163273432Y-38996444D01*
X162732344Y-38782786D01*
X162178715Y-38595185D01*
X161613295Y-38434388D01*
X161036832Y-38301146D01*
X160450076Y-38196208D01*
X159853774Y-38120324D01*
X159248676Y-38074244D01*
X158635531Y-38058718D01*
X158022385Y-38074246D01*
X157417287Y-38120328D01*
X156820985Y-38196217D01*
X156234228Y-38301161D01*
X155657765Y-38434410D01*
X155092345Y-38595216D01*
X154538716Y-38782827D01*
X153997628Y-38996494D01*
X153469828Y-39235468D01*
X152956065Y-39498998D01*
X152457089Y-39786335D01*
X151973648Y-40096728D01*
X151506491Y-40429428D01*
X151056366Y-40783685D01*
X150624023Y-41158749D01*
X150210209Y-41553870D01*
X149815675Y-41968298D01*
X149441167Y-42401284D01*
X149087436Y-42852078D01*
X148755231Y-43319929D01*
X148445298Y-43804088D01*
X148158388Y-44303805D01*
X147895250Y-44818330D01*
X147656631Y-45346913D01*
X147443281Y-45888805D01*
X147255949Y-46443255D01*
X147095382Y-47009514D01*
X146962331Y-47586832D01*
X146857543Y-48174459D01*
X146781767Y-48771645D01*
X146735753Y-49377640D01*
X146720248Y-49991694D01*
X146735275Y-50596275D01*
X146779877Y-51193053D01*
X146853342Y-51781314D01*
X146954955Y-52360343D01*
X147084002Y-52929424D01*
X147239769Y-53487841D01*
X147421541Y-54034881D01*
X147628605Y-54569827D01*
X147860245Y-55091964D01*
X148115749Y-55600578D01*
X148394401Y-56094953D01*
X148695488Y-56574374D01*
X149018295Y-57038126D01*
X149362108Y-57485493D01*
X149726214Y-57915761D01*
X150109897Y-58328214D01*
X150512444Y-58722137D01*
X150933140Y-59096814D01*
X151371271Y-59451532D01*
X151826124Y-59785574D01*
X152296983Y-60098225D01*
X152783135Y-60388770D01*
X153283865Y-60656494D01*
X153798460Y-60900682D01*
X154326205Y-61120618D01*
X154866385Y-61315588D01*
X155418288Y-61484876D01*
X155981198Y-61627767D01*
X156554401Y-61743546D01*
X157137183Y-61831497D01*
X157728831Y-61890906D01*
X158328629Y-61921057D01*
X160731783Y-68523942D01*
X160470193Y-68551889D01*
X160207590Y-68576316D01*
X159943979Y-68597159D01*
X159679364Y-68614356D01*
X159413749Y-68627841D01*
X159147139Y-68637553D01*
X158879537Y-68643426D01*
X158610949Y-68645398D01*
X157653440Y-68621128D01*
X156708499Y-68549101D01*
X155777297Y-68430488D01*
X154861001Y-68266461D01*
X153960782Y-68058191D01*
X153077808Y-67806852D01*
X152213249Y-67513614D01*
X151368273Y-67179650D01*
X150544050Y-66806131D01*
X149741750Y-66394230D01*
X148962541Y-65945118D01*
X148207592Y-65459967D01*
X147478073Y-64939949D01*
X146775152Y-64386236D01*
X146100000Y-63800000D01*
X145453785Y-63182413D01*
X144837676Y-62534646D01*
X144252843Y-61857871D01*
X143700455Y-61153261D01*
X143181680Y-60421988D01*
X142697689Y-59665222D01*
X142249649Y-58884137D01*
X141838732Y-58079903D01*
X141466104Y-57253694D01*
X141132937Y-56406680D01*
X140840399Y-55540034D01*
X140589658Y-54654927D01*
X140381886Y-53752532D01*
X140218249Y-52834020D01*
X140099918Y-51900563D01*
X140028063Y-50953333D01*
X140003851Y-49993502D01*
X140028063Y-49033671D01*
X140099918Y-48086442D01*
X140218249Y-47152985D01*
X140381886Y-46234472D01*
X140589658Y-45332077D01*
X140840399Y-44446970D01*
X141132937Y-43580324D01*
X141466104Y-42733310D01*
X141838732Y-41907100D01*
X142249649Y-41102866D01*
X142697689Y-40321781D01*
X143181680Y-39565015D01*
X143700455Y-38833742D01*
X144252843Y-38129132D01*
X144837676Y-37452357D01*
X145453785Y-36804590D01*
X146100000Y-36187003D01*
X146775152Y-35600767D01*
X147478073Y-35047054D01*
X148207592Y-34527036D01*
X148962541Y-34041885D01*
X149741750Y-33592773D01*
X150544050Y-33180871D01*
X151368273Y-32807353D01*
X152213249Y-32473389D01*
X153077808Y-32180151D01*
X153960782Y-31928811D01*
X154861001Y-31720542D01*
X155777297Y-31556515D01*
X156708499Y-31437902D01*
X157653440Y-31365874D01*
X158610949Y-31341605D01*
X158610949Y-31340882D01*
X159568458Y-31365152D01*
G37*
X159568458Y-31365152D02*
X160513399Y-31437179D01*
X161444601Y-31555792D01*
X162360897Y-31719819D01*
X163261116Y-31928088D01*
X164144090Y-32179428D01*
X165008650Y-32472666D01*
X165853625Y-32806630D01*
X166677848Y-33180148D01*
X167480148Y-33592050D01*
X168259358Y-34041162D01*
X169014306Y-34526313D01*
X169743826Y-35046331D01*
X170446746Y-35600044D01*
X171121898Y-36186280D01*
X171768113Y-36803867D01*
X172384222Y-37451634D01*
X172969055Y-38128408D01*
X173521443Y-38833018D01*
X174040218Y-39564292D01*
X174524209Y-40321058D01*
X174972248Y-41102143D01*
X175383166Y-41906376D01*
X175755793Y-42732586D01*
X176088960Y-43579600D01*
X176381499Y-44446246D01*
X176632239Y-45331353D01*
X176840012Y-46233748D01*
X177003648Y-47152260D01*
X177121979Y-48085717D01*
X177193835Y-49032947D01*
X177218046Y-49992778D01*
X177197286Y-50881687D01*
X177135623Y-51759869D01*
X177033986Y-52626395D01*
X176893301Y-53480334D01*
X176714497Y-54320759D01*
X176498501Y-55146739D01*
X176246240Y-55957345D01*
X175958643Y-56751648D01*
X175636636Y-57528719D01*
X175281148Y-58287629D01*
X174893106Y-59027448D01*
X174473437Y-59747247D01*
X174023069Y-60446097D01*
X173542930Y-61123069D01*
X173033947Y-61777234D01*
X172497048Y-62407661D01*
X171933161Y-63013422D01*
X171343212Y-63593588D01*
X170728131Y-64147230D01*
X170088843Y-64673417D01*
X169426277Y-65171222D01*
X168741361Y-65639714D01*
X168035022Y-66077965D01*
X167308187Y-66485045D01*
X166561784Y-66860025D01*
X165796741Y-67201976D01*
X165013985Y-67509969D01*
X164214444Y-67783074D01*
X163399046Y-68020361D01*
X162568718Y-68220903D01*
X161724387Y-68383769D01*
X160866982Y-68508031D01*
X158469969Y-61922503D01*
X158552615Y-61923859D01*
X158594056Y-61924435D01*
X158635531Y-61924672D01*
X159248676Y-61909144D01*
X159853774Y-61863061D01*
X160450076Y-61787173D01*
X161036832Y-61682229D01*
X161613295Y-61548980D01*
X162178715Y-61388174D01*
X162732344Y-61200563D01*
X163273432Y-60986895D01*
X163801232Y-60747922D01*
X164314995Y-60484391D01*
X164813971Y-60197055D01*
X165297411Y-59886662D01*
X165764569Y-59553962D01*
X166214693Y-59199705D01*
X166647037Y-58824641D01*
X167060850Y-58429520D01*
X167455384Y-58015091D01*
X167829892Y-57582105D01*
X168183622Y-57131312D01*
X168515828Y-56663460D01*
X168825761Y-56179301D01*
X169112670Y-55679584D01*
X169375809Y-55165059D01*
X169614427Y-54636476D01*
X169827777Y-54094584D01*
X170015110Y-53540133D01*
X170175676Y-52973874D01*
X170308728Y-52396556D01*
X170413516Y-51808930D01*
X170489291Y-51211744D01*
X170535306Y-50605749D01*
X170550810Y-49991694D01*
X170535306Y-49377608D01*
X170489291Y-48771585D01*
X170413516Y-48174376D01*
X170308728Y-47586728D01*
X170175676Y-47009394D01*
X170015110Y-46443121D01*
X169827777Y-45888660D01*
X169614427Y-45346761D01*
X169375809Y-44818172D01*
X169112670Y-44303645D01*
X168825761Y-43803927D01*
X168515828Y-43319770D01*
X168183622Y-42851922D01*
X167829892Y-42401134D01*
X167455384Y-41968155D01*
X167060850Y-41553734D01*
X166647037Y-41158622D01*
X166214693Y-40783568D01*
X165764569Y-40429322D01*
X165297411Y-40096633D01*
X164813971Y-39786251D01*
X164314995Y-39498925D01*
X163801232Y-39235406D01*
X163273432Y-38996444D01*
X162732344Y-38782786D01*
X162178715Y-38595185D01*
X161613295Y-38434388D01*
X161036832Y-38301146D01*
X160450076Y-38196208D01*
X159853774Y-38120324D01*
X159248676Y-38074244D01*
X158635531Y-38058718D01*
X158022385Y-38074246D01*
X157417287Y-38120328D01*
X156820985Y-38196217D01*
X156234228Y-38301161D01*
X155657765Y-38434410D01*
X155092345Y-38595216D01*
X154538716Y-38782827D01*
X153997628Y-38996494D01*
X153469828Y-39235468D01*
X152956065Y-39498998D01*
X152457089Y-39786335D01*
X151973648Y-40096728D01*
X151506491Y-40429428D01*
X151056366Y-40783685D01*
X150624023Y-41158749D01*
X150210209Y-41553870D01*
X149815675Y-41968298D01*
X149441167Y-42401284D01*
X149087436Y-42852078D01*
X148755231Y-43319929D01*
X148445298Y-43804088D01*
X148158388Y-44303805D01*
X147895250Y-44818330D01*
X147656631Y-45346913D01*
X147443281Y-45888805D01*
X147255949Y-46443255D01*
X147095382Y-47009514D01*
X146962331Y-47586832D01*
X146857543Y-48174459D01*
X146781767Y-48771645D01*
X146735753Y-49377640D01*
X146720248Y-49991694D01*
X146735275Y-50596275D01*
X146779877Y-51193053D01*
X146853342Y-51781314D01*
X146954955Y-52360343D01*
X147084002Y-52929424D01*
X147239769Y-53487841D01*
X147421541Y-54034881D01*
X147628605Y-54569827D01*
X147860245Y-55091964D01*
X148115749Y-55600578D01*
X148394401Y-56094953D01*
X148695488Y-56574374D01*
X149018295Y-57038126D01*
X149362108Y-57485493D01*
X149726214Y-57915761D01*
X150109897Y-58328214D01*
X150512444Y-58722137D01*
X150933140Y-59096814D01*
X151371271Y-59451532D01*
X151826124Y-59785574D01*
X152296983Y-60098225D01*
X152783135Y-60388770D01*
X153283865Y-60656494D01*
X153798460Y-60900682D01*
X154326205Y-61120618D01*
X154866385Y-61315588D01*
X155418288Y-61484876D01*
X155981198Y-61627767D01*
X156554401Y-61743546D01*
X157137183Y-61831497D01*
X157728831Y-61890906D01*
X158328629Y-61921057D01*
X160731783Y-68523942D01*
X160470193Y-68551889D01*
X160207590Y-68576316D01*
X159943979Y-68597159D01*
X159679364Y-68614356D01*
X159413749Y-68627841D01*
X159147139Y-68637553D01*
X158879537Y-68643426D01*
X158610949Y-68645398D01*
X157653440Y-68621128D01*
X156708499Y-68549101D01*
X155777297Y-68430488D01*
X154861001Y-68266461D01*
X153960782Y-68058191D01*
X153077808Y-67806852D01*
X152213249Y-67513614D01*
X151368273Y-67179650D01*
X150544050Y-66806131D01*
X149741750Y-66394230D01*
X148962541Y-65945118D01*
X148207592Y-65459967D01*
X147478073Y-64939949D01*
X146775152Y-64386236D01*
X146100000Y-63800000D01*
X145453785Y-63182413D01*
X144837676Y-62534646D01*
X144252843Y-61857871D01*
X143700455Y-61153261D01*
X143181680Y-60421988D01*
X142697689Y-59665222D01*
X142249649Y-58884137D01*
X141838732Y-58079903D01*
X141466104Y-57253694D01*
X141132937Y-56406680D01*
X140840399Y-55540034D01*
X140589658Y-54654927D01*
X140381886Y-53752532D01*
X140218249Y-52834020D01*
X140099918Y-51900563D01*
X140028063Y-50953333D01*
X140003851Y-49993502D01*
X140028063Y-49033671D01*
X140099918Y-48086442D01*
X140218249Y-47152985D01*
X140381886Y-46234472D01*
X140589658Y-45332077D01*
X140840399Y-44446970D01*
X141132937Y-43580324D01*
X141466104Y-42733310D01*
X141838732Y-41907100D01*
X142249649Y-41102866D01*
X142697689Y-40321781D01*
X143181680Y-39565015D01*
X143700455Y-38833742D01*
X144252843Y-38129132D01*
X144837676Y-37452357D01*
X145453785Y-36804590D01*
X146100000Y-36187003D01*
X146775152Y-35600767D01*
X147478073Y-35047054D01*
X148207592Y-34527036D01*
X148962541Y-34041885D01*
X149741750Y-33592773D01*
X150544050Y-33180871D01*
X151368273Y-32807353D01*
X152213249Y-32473389D01*
X153077808Y-32180151D01*
X153960782Y-31928811D01*
X154861001Y-31720542D01*
X155777297Y-31556515D01*
X156708499Y-31437902D01*
X157653440Y-31365874D01*
X158610949Y-31341605D01*
X158610949Y-31340882D01*
X159568458Y-31365152D01*
D11*
X87682000Y-70280000D03*
D12*
X87682000Y-67740000D03*
D11*
X173118000Y-83220000D03*
D12*
X173118000Y-85760000D03*
D11*
X124350000Y-88046000D03*
D12*
X124350000Y-90586000D03*
D11*
X136450000Y-65454000D03*
D12*
X136450000Y-62914000D03*
D13*
X110060000Y-81650000D03*
X107520000Y-81650000D03*
X104980000Y-81650000D03*
X102440000Y-81650000D03*
X99900000Y-81650000D03*
X97360000Y-81650000D03*
X94820000Y-81650000D03*
X92280000Y-81650000D03*
X89740000Y-81650000D03*
X87200000Y-81650000D03*
D14*
X141612000Y-120050000D03*
D15*
X142882000Y-120050000D03*
X144152000Y-120050000D03*
X145422000Y-120050000D03*
X146692000Y-120050000D03*
D16*
X87496052Y-112403559D03*
D14*
X152544000Y-120050000D03*
D15*
X153814000Y-120050000D03*
X155084000Y-120050000D03*
X156354000Y-120050000D03*
X157624000Y-120050000D03*
D13*
X150740000Y-71850000D03*
X153280000Y-71850000D03*
X155820000Y-71850000D03*
X158360000Y-71850000D03*
X160900000Y-71850000D03*
X163440000Y-71850000D03*
X165980000Y-71850000D03*
X168520000Y-71850000D03*
X171060000Y-71850000D03*
X173600000Y-71850000D03*
D14*
X108256000Y-33450000D03*
D15*
X106986000Y-33450000D03*
X105716000Y-33450000D03*
X104446000Y-33450000D03*
X103176000Y-33450000D03*
D13*
X173880000Y-96732000D03*
D16*
X173303948Y-41096441D03*
D14*
X119188000Y-33450000D03*
D15*
X117918000Y-33450000D03*
X116648000Y-33450000D03*
X115378000Y-33450000D03*
X114108000Y-33450000D03*
D13*
X86920000Y-56768000D03*
M02*
