%TF.GenerationSoftware,KiCad,Pcbnew,(6.0.1)*%
%TF.CreationDate,2022-09-01T16:14:04+08:00*%
%TF.ProjectId,CRVisionJoystickMerge,43525669-7369-46f6-9e4a-6f7973746963,rev?*%
%TF.SameCoordinates,Original*%
%TF.FileFunction,Legend,Bot*%
%TF.FilePolarity,Positive*%
%FSLAX46Y46*%
G04 Gerber Fmt 4.6, Leading zero omitted, Abs format (unit mm)*
G04 Created by KiCad (PCBNEW (6.0.1)) date 2022-09-01 16:14:04*
%MOMM*%
%LPD*%
G01*
G04 APERTURE LIST*
G04 Aperture macros list*
%AMHorizOval*
0 Thick line with rounded ends*
0 $1 width*
0 $2 $3 position (X,Y) of the first rounded end (center of the circle)*
0 $4 $5 position (X,Y) of the second rounded end (center of the circle)*
0 Add line between two ends*
20,1,$1,$2,$3,$4,$5,0*
0 Add two circle primitives to create the rounded ends*
1,1,$1,$2,$3*
1,1,$1,$4,$5*%
G04 Aperture macros list end*
%ADD10C,0.150000*%
%ADD11C,0.120000*%
%ADD12R,1.700000X1.700000*%
%ADD13O,1.700000X1.700000*%
%ADD14O,1.200000X3.000000*%
%ADD15R,1.000000X1.000000*%
%ADD16O,1.000000X1.000000*%
%ADD17HorizOval,1.200000X-0.450000X0.779423X0.450000X-0.779423X0*%
G04 APERTURE END LIST*
D10*
X112733333Y-81852380D02*
X112733333Y-82566666D01*
X112780952Y-82709523D01*
X112876190Y-82804761D01*
X113019047Y-82852380D01*
X113114285Y-82852380D01*
X111733333Y-82852380D02*
X112304761Y-82852380D01*
X112019047Y-82852380D02*
X112019047Y-81852380D01*
X112114285Y-81995238D01*
X112209523Y-82090476D01*
X112304761Y-82138095D01*
X139369380Y-119716666D02*
X140083666Y-119716666D01*
X140226523Y-119669047D01*
X140321761Y-119573809D01*
X140369380Y-119430952D01*
X140369380Y-119335714D01*
X139464619Y-120145238D02*
X139417000Y-120192857D01*
X139369380Y-120288095D01*
X139369380Y-120526190D01*
X139417000Y-120621428D01*
X139464619Y-120669047D01*
X139559857Y-120716666D01*
X139655095Y-120716666D01*
X139797952Y-120669047D01*
X140369380Y-120097619D01*
X140369380Y-120716666D01*
X86265917Y-109773941D02*
X86623060Y-110392530D01*
X86735728Y-110492439D01*
X86865826Y-110527298D01*
X87013353Y-110497109D01*
X87095832Y-110449490D01*
X85936003Y-109964417D02*
X85399892Y-110273941D01*
X85879043Y-110437189D01*
X85755325Y-110508617D01*
X85696656Y-110597476D01*
X85679226Y-110662524D01*
X85685606Y-110768812D01*
X85804654Y-110975009D01*
X85893512Y-111033678D01*
X85958561Y-111051108D01*
X86064849Y-111044728D01*
X86312285Y-110901871D01*
X86370954Y-110813013D01*
X86388384Y-110747964D01*
X150301380Y-119716666D02*
X151015666Y-119716666D01*
X151158523Y-119669047D01*
X151253761Y-119573809D01*
X151301380Y-119430952D01*
X151301380Y-119335714D01*
X150301380Y-120097619D02*
X150301380Y-120716666D01*
X150682333Y-120383333D01*
X150682333Y-120526190D01*
X150729952Y-120621428D01*
X150777571Y-120669047D01*
X150872809Y-120716666D01*
X151110904Y-120716666D01*
X151206142Y-120669047D01*
X151253761Y-120621428D01*
X151301380Y-120526190D01*
X151301380Y-120240476D01*
X151253761Y-120145238D01*
X151206142Y-120097619D01*
X148733333Y-70552380D02*
X148733333Y-71266666D01*
X148780952Y-71409523D01*
X148876190Y-71504761D01*
X149019047Y-71552380D01*
X149114285Y-71552380D01*
X147733333Y-71552380D02*
X148304761Y-71552380D01*
X148019047Y-71552380D02*
X148019047Y-70552380D01*
X148114285Y-70695238D01*
X148209523Y-70790476D01*
X148304761Y-70838095D01*
X109403380Y-33116666D02*
X110117666Y-33116666D01*
X110260523Y-33069047D01*
X110355761Y-32973809D01*
X110403380Y-32830952D01*
X110403380Y-32735714D01*
X109403380Y-33497619D02*
X109403380Y-34116666D01*
X109784333Y-33783333D01*
X109784333Y-33926190D01*
X109831952Y-34021428D01*
X109879571Y-34069047D01*
X109974809Y-34116666D01*
X110212904Y-34116666D01*
X110308142Y-34069047D01*
X110355761Y-34021428D01*
X110403380Y-33926190D01*
X110403380Y-33640476D01*
X110355761Y-33545238D01*
X110308142Y-33497619D01*
X174213333Y-99182380D02*
X174213333Y-99896666D01*
X174260952Y-100039523D01*
X174356190Y-100134761D01*
X174499047Y-100182380D01*
X174594285Y-100182380D01*
X173308571Y-99515714D02*
X173308571Y-100182380D01*
X173546666Y-99134761D02*
X173784761Y-99849047D01*
X173165714Y-99849047D01*
X174563813Y-42444221D02*
X174920956Y-43062810D01*
X175033624Y-43162719D01*
X175163722Y-43197578D01*
X175311249Y-43167389D01*
X175393728Y-43119770D01*
X174233899Y-42634697D02*
X173697788Y-42944221D01*
X174176939Y-43107469D01*
X174053221Y-43178897D01*
X173994552Y-43267756D01*
X173977122Y-43332804D01*
X173983502Y-43439092D01*
X174102550Y-43645289D01*
X174191408Y-43703958D01*
X174256457Y-43721388D01*
X174362745Y-43715008D01*
X174610181Y-43572151D01*
X174668850Y-43483293D01*
X174686280Y-43418244D01*
X120335380Y-33116666D02*
X121049666Y-33116666D01*
X121192523Y-33069047D01*
X121287761Y-32973809D01*
X121335380Y-32830952D01*
X121335380Y-32735714D01*
X120430619Y-33545238D02*
X120383000Y-33592857D01*
X120335380Y-33688095D01*
X120335380Y-33926190D01*
X120383000Y-34021428D01*
X120430619Y-34069047D01*
X120525857Y-34116666D01*
X120621095Y-34116666D01*
X120763952Y-34069047D01*
X121335380Y-33497619D01*
X121335380Y-34116666D01*
X87253333Y-53222380D02*
X87253333Y-53936666D01*
X87300952Y-54079523D01*
X87396190Y-54174761D01*
X87539047Y-54222380D01*
X87634285Y-54222380D01*
X86348571Y-53555714D02*
X86348571Y-54222380D01*
X86586666Y-53174761D02*
X86824761Y-53889047D01*
X86205714Y-53889047D01*
D11*
X108790000Y-79650000D02*
X108790000Y-83650000D01*
X111160000Y-79650000D02*
X86100000Y-79650000D01*
X86100000Y-83650000D02*
X111160000Y-83650000D01*
X86100000Y-79650000D02*
X86100000Y-83650000D01*
X111160000Y-83650000D02*
X111160000Y-79650000D01*
X142372000Y-120613471D02*
X142372000Y-121160000D01*
X141612000Y-118940000D02*
X140852000Y-118940000D01*
X147387000Y-120357530D02*
X147387000Y-121160000D01*
X142372000Y-118940000D02*
X142372000Y-119486529D01*
X142372000Y-118940000D02*
X147387000Y-118940000D01*
X142372000Y-121160000D02*
X147387000Y-121160000D01*
X140852000Y-118940000D02*
X140852000Y-120050000D01*
X147387000Y-118940000D02*
X147387000Y-119742470D01*
X87568424Y-114728911D02*
X89473680Y-113628911D01*
X89473680Y-113628911D02*
X87473680Y-110164809D01*
X87473680Y-110164809D02*
X85568424Y-111264809D01*
X85568424Y-111264809D02*
X87568424Y-114728911D01*
X89620904Y-113543911D02*
X87620904Y-110079809D01*
X153304000Y-118940000D02*
X153304000Y-119486529D01*
X153304000Y-118940000D02*
X158319000Y-118940000D01*
X151784000Y-118940000D02*
X151784000Y-120050000D01*
X158319000Y-120357530D02*
X158319000Y-121160000D01*
X152544000Y-118940000D02*
X151784000Y-118940000D01*
X153304000Y-121160000D02*
X158319000Y-121160000D01*
X153304000Y-120613471D02*
X153304000Y-121160000D01*
X158319000Y-118940000D02*
X158319000Y-119742470D01*
X152010000Y-73850000D02*
X152010000Y-69850000D01*
X149640000Y-73850000D02*
X174700000Y-73850000D01*
X174700000Y-69850000D02*
X149640000Y-69850000D01*
X174700000Y-73850000D02*
X174700000Y-69850000D01*
X149640000Y-69850000D02*
X149640000Y-73850000D01*
X107496000Y-34560000D02*
X107496000Y-34013471D01*
X107496000Y-34560000D02*
X102481000Y-34560000D01*
X109016000Y-34560000D02*
X109016000Y-33450000D01*
X102481000Y-33142470D02*
X102481000Y-32340000D01*
X108256000Y-34560000D02*
X109016000Y-34560000D01*
X107496000Y-32340000D02*
X102481000Y-32340000D01*
X107496000Y-32886529D02*
X107496000Y-32340000D01*
X102481000Y-34560000D02*
X102481000Y-33757530D01*
X174980000Y-94682000D02*
X172780000Y-94682000D01*
X172780000Y-94682000D02*
X172780000Y-98682000D01*
X172780000Y-98682000D02*
X174980000Y-98682000D01*
X174980000Y-98682000D02*
X174980000Y-94682000D01*
X172610000Y-94682000D02*
X172610000Y-98682000D01*
X173231576Y-38771089D02*
X171326320Y-39871089D01*
X171326320Y-39871089D02*
X173326320Y-43335191D01*
X173326320Y-43335191D02*
X175231576Y-42235191D01*
X175231576Y-42235191D02*
X173231576Y-38771089D01*
X171179096Y-39956089D02*
X173179096Y-43420191D01*
X118428000Y-32886529D02*
X118428000Y-32340000D01*
X119188000Y-34560000D02*
X119948000Y-34560000D01*
X113413000Y-33142470D02*
X113413000Y-32340000D01*
X118428000Y-34560000D02*
X118428000Y-34013471D01*
X118428000Y-34560000D02*
X113413000Y-34560000D01*
X118428000Y-32340000D02*
X113413000Y-32340000D01*
X119948000Y-34560000D02*
X119948000Y-33450000D01*
X113413000Y-34560000D02*
X113413000Y-33757530D01*
X85820000Y-58818000D02*
X88020000Y-58818000D01*
X88020000Y-58818000D02*
X88020000Y-54818000D01*
X88020000Y-54818000D02*
X85820000Y-54818000D01*
X85820000Y-54818000D02*
X85820000Y-58818000D01*
X88190000Y-58818000D02*
X88190000Y-54818000D01*
%LPC*%
D12*
X87682000Y-70280000D03*
D13*
X87682000Y-67740000D03*
D12*
X173118000Y-83220000D03*
D13*
X173118000Y-85760000D03*
D12*
X124350000Y-88046000D03*
D13*
X124350000Y-90586000D03*
D12*
X136450000Y-65454000D03*
D13*
X136450000Y-62914000D03*
D14*
X110060000Y-81650000D03*
X107520000Y-81650000D03*
X104980000Y-81650000D03*
X102440000Y-81650000D03*
X99900000Y-81650000D03*
X97360000Y-81650000D03*
X94820000Y-81650000D03*
X92280000Y-81650000D03*
X89740000Y-81650000D03*
X87200000Y-81650000D03*
D15*
X141612000Y-120050000D03*
D16*
X142882000Y-120050000D03*
X144152000Y-120050000D03*
X145422000Y-120050000D03*
X146692000Y-120050000D03*
D17*
X87496052Y-112403559D03*
D15*
X152544000Y-120050000D03*
D16*
X153814000Y-120050000D03*
X155084000Y-120050000D03*
X156354000Y-120050000D03*
X157624000Y-120050000D03*
D14*
X150740000Y-71850000D03*
X153280000Y-71850000D03*
X155820000Y-71850000D03*
X158360000Y-71850000D03*
X160900000Y-71850000D03*
X163440000Y-71850000D03*
X165980000Y-71850000D03*
X168520000Y-71850000D03*
X171060000Y-71850000D03*
X173600000Y-71850000D03*
D15*
X108256000Y-33450000D03*
D16*
X106986000Y-33450000D03*
X105716000Y-33450000D03*
X104446000Y-33450000D03*
X103176000Y-33450000D03*
D14*
X173880000Y-96732000D03*
D17*
X173303948Y-41096441D03*
D15*
X119188000Y-33450000D03*
D16*
X117918000Y-33450000D03*
X116648000Y-33450000D03*
X115378000Y-33450000D03*
X114108000Y-33450000D03*
D14*
X86920000Y-56768000D03*
M02*
