%TF.GenerationSoftware,KiCad,Pcbnew,(6.0.1)*%
%TF.CreationDate,2022-07-24T11:32:21+08:00*%
%TF.ProjectId,CRVisionJoystickbutton,43525669-7369-46f6-9e4a-6f7973746963,rev?*%
%TF.SameCoordinates,Original*%
%TF.FileFunction,Legend,Top*%
%TF.FilePolarity,Positive*%
%FSLAX46Y46*%
G04 Gerber Fmt 4.6, Leading zero omitted, Abs format (unit mm)*
G04 Created by KiCad (PCBNEW (6.0.1)) date 2022-07-24 11:32:21*
%MOMM*%
%LPD*%
G01*
G04 APERTURE LIST*
G04 Aperture macros list*
%AMRoundRect*
0 Rectangle with rounded corners*
0 $1 Rounding radius*
0 $2 $3 $4 $5 $6 $7 $8 $9 X,Y pos of 4 corners*
0 Add a 4 corners polygon primitive as box body*
4,1,4,$2,$3,$4,$5,$6,$7,$8,$9,$2,$3,0*
0 Add four circle primitives for the rounded corners*
1,1,$1+$1,$2,$3*
1,1,$1+$1,$4,$5*
1,1,$1+$1,$6,$7*
1,1,$1+$1,$8,$9*
0 Add four rect primitives between the rounded corners*
20,1,$1+$1,$2,$3,$4,$5,0*
20,1,$1+$1,$4,$5,$6,$7,0*
20,1,$1+$1,$6,$7,$8,$9,0*
20,1,$1+$1,$8,$9,$2,$3,0*%
G04 Aperture macros list end*
%ADD10C,0.150000*%
%ADD11C,0.120000*%
%ADD12O,3.000000X1.200000*%
%ADD13RoundRect,0.500000X-1.000000X-0.500000X1.000000X-0.500000X1.000000X0.500000X-1.000000X0.500000X0*%
G04 APERTURE END LIST*
D10*
X147752380Y-61333333D02*
X148466666Y-61333333D01*
X148609523Y-61380952D01*
X148704761Y-61476190D01*
X148752380Y-61619047D01*
X148752380Y-61714285D01*
X148752380Y-60333333D02*
X148752380Y-60904761D01*
X148752380Y-60619047D02*
X147752380Y-60619047D01*
X147895238Y-60714285D01*
X147990476Y-60809523D01*
X148038095Y-60904761D01*
X136638095Y-52884761D02*
X136780952Y-52932380D01*
X137019047Y-52932380D01*
X137114285Y-52884761D01*
X137161904Y-52837142D01*
X137209523Y-52741904D01*
X137209523Y-52646666D01*
X137161904Y-52551428D01*
X137114285Y-52503809D01*
X137019047Y-52456190D01*
X136828571Y-52408571D01*
X136733333Y-52360952D01*
X136685714Y-52313333D01*
X136638095Y-52218095D01*
X136638095Y-52122857D01*
X136685714Y-52027619D01*
X136733333Y-51980000D01*
X136828571Y-51932380D01*
X137066666Y-51932380D01*
X137209523Y-51980000D01*
X138161904Y-52932380D02*
X137590476Y-52932380D01*
X137876190Y-52932380D02*
X137876190Y-51932380D01*
X137780952Y-52075238D01*
X137685714Y-52170476D01*
X137590476Y-52218095D01*
D11*
X150100000Y-55230000D02*
X150100000Y-59970000D01*
X146100000Y-57600000D02*
X150100000Y-57600000D01*
X150100000Y-59970000D02*
X146100000Y-59970000D01*
X146100000Y-55230000D02*
X150100000Y-55230000D01*
X146100000Y-59970000D02*
X146100000Y-55230000D01*
%LPC*%
D12*
X148103864Y-58870000D03*
X148103864Y-56330000D03*
D13*
X135000000Y-56100000D03*
X135000000Y-60280000D03*
X141500000Y-56100000D03*
X141500000Y-60280000D03*
M02*
