%FSLAX45Y45*%
G04 Gerber Fmt 4.5, Leading zero omitted, Abs format (unit mm)*
G04 Created by KiCad (PCBNEW (6.0.1)) date 2022-07-24 11:32:25*
%MOMM*%
%LPD*%
G01*
G04 APERTURE LIST*
%TA.AperFunction,Profile*%
%ADD10C,0.050000*%
%TD*%
%ADD11C,0.200000*%
G04 APERTURE END LIST*
D10*
X11950000Y-5150000D02*
X15040000Y-5150000D01*
X15040000Y-5150000D02*
X15040000Y-6430000D01*
X15040000Y-6430000D02*
X11950000Y-6430000D01*
X11950000Y-6430000D02*
X11950000Y-5150000D01*
D11*
X12205119Y-6742976D02*
X12205119Y-6542976D01*
X12252738Y-6542976D01*
X12281309Y-6552500D01*
X12300357Y-6571548D01*
X12309881Y-6590595D01*
X12319405Y-6628690D01*
X12319405Y-6657262D01*
X12309881Y-6695357D01*
X12300357Y-6714405D01*
X12281309Y-6733452D01*
X12252738Y-6742976D01*
X12205119Y-6742976D01*
X12405119Y-6742976D02*
X12405119Y-6609643D01*
X12405119Y-6647738D02*
X12414643Y-6628690D01*
X12424167Y-6619167D01*
X12443214Y-6609643D01*
X12462262Y-6609643D01*
X12528928Y-6742976D02*
X12528928Y-6609643D01*
X12528928Y-6542976D02*
X12519405Y-6552500D01*
X12528928Y-6562024D01*
X12538452Y-6552500D01*
X12528928Y-6542976D01*
X12528928Y-6562024D01*
X12652738Y-6742976D02*
X12633690Y-6733452D01*
X12624167Y-6714405D01*
X12624167Y-6542976D01*
X12757500Y-6742976D02*
X12738452Y-6733452D01*
X12728928Y-6714405D01*
X12728928Y-6542976D01*
X12986071Y-6742976D02*
X12986071Y-6542976D01*
X13052738Y-6685833D01*
X13119405Y-6542976D01*
X13119405Y-6742976D01*
X13300357Y-6742976D02*
X13300357Y-6638214D01*
X13290833Y-6619167D01*
X13271786Y-6609643D01*
X13233690Y-6609643D01*
X13214643Y-6619167D01*
X13300357Y-6733452D02*
X13281309Y-6742976D01*
X13233690Y-6742976D01*
X13214643Y-6733452D01*
X13205119Y-6714405D01*
X13205119Y-6695357D01*
X13214643Y-6676309D01*
X13233690Y-6666786D01*
X13281309Y-6666786D01*
X13300357Y-6657262D01*
X13395595Y-6609643D02*
X13395595Y-6809643D01*
X13395595Y-6619167D02*
X13414643Y-6609643D01*
X13452738Y-6609643D01*
X13471786Y-6619167D01*
X13481309Y-6628690D01*
X13490833Y-6647738D01*
X13490833Y-6704881D01*
X13481309Y-6723928D01*
X13471786Y-6733452D01*
X13452738Y-6742976D01*
X13414643Y-6742976D01*
X13395595Y-6733452D01*
X13576548Y-6723928D02*
X13586071Y-6733452D01*
X13576548Y-6742976D01*
X13567024Y-6733452D01*
X13576548Y-6723928D01*
X13576548Y-6742976D01*
X13576548Y-6619167D02*
X13586071Y-6628690D01*
X13576548Y-6638214D01*
X13567024Y-6628690D01*
X13576548Y-6619167D01*
X13576548Y-6638214D01*
M02*
